IBM Plex Arabic-Regular.ufo
<glyph name="hyphen" format="1">
  <advance width="399"/>
  <unicode hex="002D"/>
  <outline>
    <contour>
      <point x="330" y="261" type="line" name="hr00"/>
      <point x="330" y="347" type="line"/>
      <point x="69" y="347" type="line"/>
      <point x="69" y="261" type="line"/>
    </contour>
  </outline>
</glyph>
<glyph name="equal" format="1">
  <advance width="600"/>
  <unicode hex="003D"/>
  <outline>
    <contour>
      <point x="533" y="372" type="line" name="hr00"/>
      <point x="533" y="440" type="line"/>
      <point x="67" y="440" type="line"/>
      <point x="67" y="372" type="line"/>
    </contour>
    <contour>
      <point x="533" y="172" type="line"/>
      <point x="533" y="240" type="line"/>
      <point x="67" y="240" type="line"/>
      <point x="67" y="172" type="line"/>
    </contour>
  </outline>
</glyph>
<glyph name="bracketright" format="1">
  <advance width="317"/>
  <unicode hex="005D"/>
  <outline>
    <contour>
      <point x="60" y="760" type="line" name="hr00"/>
      <point x="60" y="697" type="line"/>
      <point x="155" y="697" type="line"/>
      <point x="155" y="-75" type="line"/>
      <point x="60" y="-75" type="line"/>
      <point x="60" y="-138" type="line"/>
      <point x="224" y="-138" type="line"/>
      <point x="224" y="760" type="line"/>
    </contour>
  </outline>
</glyph>
<glyph name="yen" format="1">
  <advance width="605"/>
  <unicode hex="00A5"/>
  <outline>
    <contour>
      <point x="520" y="145" type="line" name="hr00"/>
      <point x="520" y="212" type="line"/>
      <point x="344" y="212" type="line"/>
      <point x="344" y="308" type="line"/>
      <point x="520" y="308" type="line"/>
      <point x="520" y="375" type="line"/>
      <point x="384" y="375" type="line"/>
      <point x="571" y="698" type="line"/>
      <point x="478" y="698" type="line"/>
      <point x="308" y="383" type="line"/>
      <point x="303" y="383" type="line"/>
      <point x="128" y="698" type="line"/>
      <point x="34" y="698" type="line"/>
      <point x="221" y="375" type="line"/>
      <point x="85" y="375" type="line"/>
      <point x="85" y="308" type="line"/>
      <point x="261" y="308" type="line"/>
      <point x="261" y="212" type="line"/>
      <point x="85" y="212" type="line"/>
      <point x="85" y="145" type="line"/>
      <point x="261" y="145" type="line"/>
      <point x="261" y="0" type="line"/>
      <point x="344" y="0" type="line"/>
      <point x="344" y="145" type="line"/>
    </contour>
  </outline>
</glyph>
<glyph name="Ccedilla" format="1">
  <advance width="621"/>
  <unicode hex="00C7"/>
  <outline>
    <contour>
      <point x="339" y="635" type="curve" smooth="yes" name="hr00"/>
      <point x="425" y="635"/>
      <point x="483" y="588"/>
      <point x="511" y="516" type="curve"/>
      <point x="579" y="557" type="line"/>
      <point x="535" y="654"/>
      <point x="455" y="710"/>
      <point x="339" y="710" type="curve" smooth="yes"/>
      <point x="163" y="710"/>
      <point x="58" y="578"/>
      <point x="58" y="345" type="curve" smooth="yes"/>
      <point x="58" y="124"/>
      <point x="152" y="1"/>
      <point x="311" y="-11" type="curve"/>
      <point x="298" y="-77" type="line"/>
      <point x="326" y="-81" type="line" smooth="yes"/>
      <point x="382" y="-89"/>
      <point x="394" y="-104"/>
      <point x="394" y="-122" type="curve" smooth="yes"/>
      <point x="394" y="-143"/>
      <point x="375" y="-153"/>
      <point x="350" y="-153" type="curve" smooth="yes"/>
      <point x="321" y="-153"/>
      <point x="301" y="-140"/>
      <point x="289" y="-125" type="curve"/>
      <point x="251" y="-166" type="line"/>
      <point x="265" y="-185"/>
      <point x="296" y="-207"/>
      <point x="350" y="-207" type="curve" smooth="yes"/>
      <point x="409" y="-207"/>
      <point x="461" y="-181"/>
      <point x="461" y="-124" type="curve" smooth="yes"/>
      <point x="461" y="-81"/>
      <point x="432" y="-58"/>
      <point x="393" y="-58" type="curve" smooth="yes"/>
      <point x="381" y="-58"/>
      <point x="367" y="-60"/>
      <point x="354" y="-64" type="curve"/>
      <point x="351" y="-61" type="line"/>
      <point x="361" y="-11" type="line"/>
      <point x="466" y="-4"/>
      <point x="543" y="55"/>
      <point x="584" y="147" type="curve"/>
      <point x="517" y="189" type="line"/>
      <point x="489" y="113"/>
      <point x="428" y="63"/>
      <point x="339" y="63" type="curve" smooth="yes"/>
      <point x="219" y="63"/>
      <point x="148" y="150"/>
      <point x="148" y="293" type="curve" smooth="yes"/>
      <point x="148" y="397" type="line" smooth="yes"/>
      <point x="148" y="540"/>
      <point x="219" y="635"/>
    </contour>
  </outline>
</glyph>
<glyph name="edieresis" format="1">
  <advance width="549"/>
  <unicode hex="00EB"/>
  <outline>
    <component base="e"/>
    <component base="dieresis" xOffset="-21"/>
    <contour>
      <point x="283.0" y="0.0" type="move" name="bottom"/>
    </contour>
    <contour>
      <point x="359.0" y="0.0" type="move" name="bottomright"/>
    </contour>
  </outline>
</glyph>
<glyph name="Dcroat" format="1">
  <advance width="674"/>
  <unicode hex="0110"/>
  <outline>
    <contour>
      <point x="96" y="0" type="line" name="hr00"/>
      <point x="330" y="0" type="line" smooth="yes"/>
      <point x="504" y="0"/>
      <point x="616" y="116"/>
      <point x="616" y="349" type="curve" smooth="yes"/>
      <point x="616" y="582"/>
      <point x="504" y="698"/>
      <point x="330" y="698" type="curve" smooth="yes"/>
      <point x="96" y="698" type="line"/>
      <point x="96" y="401" type="line"/>
      <point x="17" y="401" type="line"/>
      <point x="17" y="337" type="line"/>
      <point x="96" y="337" type="line"/>
    </contour>
    <contour>
      <point x="180" y="74" type="line"/>
      <point x="180" y="337" type="line"/>
      <point x="317" y="337" type="line"/>
      <point x="317" y="401" type="line"/>
      <point x="180" y="401" type="line"/>
      <point x="180" y="624" type="line"/>
      <point x="330" y="624" type="line" smooth="yes"/>
      <point x="445" y="624"/>
      <point x="526" y="544"/>
      <point x="526" y="406" type="curve" smooth="yes"/>
      <point x="526" y="292" type="line" smooth="yes"/>
      <point x="526" y="154"/>
      <point x="445" y="74"/>
      <point x="330" y="74" type="curve" smooth="yes"/>
    </contour>
  </outline>
</glyph>
<glyph name="acutecomb" format="1">
  <advance width="0"/>
  <unicode hex="0301"/>
  <outline>
    <component base="acute" xOffset="-300"/>
    <contour>
      <point x="0.0" y="540.0" type="move" name="_top"/>
    </contour>
  </outline>
</glyph>
<glyph name="number-ar" format="1">
  <advance width="1219"/>
  <unicode hex="0600"/>
  <outline>
    <contour>
      <point x="20" y="0" type="line" name="hr00"/>
      <point x="720" y="0" type="line" smooth="yes"/>
      <point x="860" y="0"/>
      <point x="941" y="9"/>
      <point x="1070" y="45" type="curve" smooth="yes"/>
      <point x="1200" y="81" type="line"/>
      <point x="1181" y="159" type="line"/>
      <point x="1101" y="139" type="line" smooth="yes"/>
      <point x="1064" y="130"/>
      <point x="1033" y="125"/>
      <point x="1007" y="125" type="curve" smooth="yes"/>
      <point x="952" y="125"/>
      <point x="919" y="142"/>
      <point x="877" y="192" type="curve" smooth="yes"/>
      <point x="857" y="216" type="line"/>
      <point x="1069" y="400" type="line"/>
      <point x="1017" y="459" type="line"/>
      <point x="816" y="283" type="line" smooth="yes"/>
      <point x="780" y="251"/>
      <point x="773" y="207"/>
      <point x="809" y="165" type="curve" smooth="yes"/>
      <point x="872" y="91" type="line"/>
      <point x="870" y="86" type="line"/>
      <point x="20" y="86" type="line"/>
    </contour>
  </outline>
</glyph>
<glyph name="year-ar" format="1">
  <advance width="1704"/>
  <unicode hex="0601"/>
  <outline>
    <contour>
      <point x="1604" y="0" type="line"/>
      <point x="1674" y="0" type="line"/>
      <point x="1674" y="80" type="line" smooth="yes"/>
      <point x="1674" y="135"/>
      <point x="1639" y="161"/>
      <point x="1581" y="155" type="curve" smooth="yes"/>
      <point x="956" y="91" type="line" smooth="yes"/>
      <point x="934" y="89"/>
      <point x="915" y="88"/>
      <point x="896" y="88" type="curve" smooth="yes" name="hr01"/>
      <point x="835" y="88"/>
      <point x="791" y="97"/>
      <point x="764" y="115" type="curve" smooth="yes"/>
      <point x="755" y="120" type="line"/>
      <point x="809" y="220" type="line"/>
      <point x="752" y="249" type="line"/>
      <point x="709" y="165" type="line" smooth="yes"/>
      <point x="677" y="102"/>
      <point x="656" y="86"/>
      <point x="599" y="86" type="curve" smooth="yes" name="hr02"/>
      <point x="569" y="86" type="line" smooth="yes"/>
      <point x="525" y="86"/>
      <point x="506" y="103"/>
      <point x="488" y="163" type="curve" smooth="yes"/>
      <point x="469" y="228" type="line" smooth="yes"/>
      <point x="447" y="303"/>
      <point x="416" y="329"/>
      <point x="356" y="329" type="curve" smooth="yes"/>
      <point x="313" y="329"/>
      <point x="265" y="311"/>
      <point x="198" y="274" type="curve" smooth="yes"/>
      <point x="20" y="175" type="line"/>
      <point x="60" y="104" type="line"/>
      <point x="238" y="203" type="line" smooth="yes"/>
      <point x="285" y="229"/>
      <point x="322" y="243"/>
      <point x="347" y="243" type="curve" smooth="yes"/>
      <point x="372" y="243"/>
      <point x="384" y="233"/>
      <point x="392" y="206" type="curve" smooth="yes"/>
      <point x="412" y="141" type="line" smooth="yes"/>
      <point x="445" y="28"/>
      <point x="480" y="0"/>
      <point x="584" y="0" type="curve" smooth="yes"/>
      <point x="637" y="0"/>
      <point x="676" y="15"/>
      <point x="711" y="55" type="curve"/>
      <point x="742" y="35" type="line" smooth="yes"/>
      <point x="781" y="10"/>
      <point x="818" y="-1"/>
      <point x="878" y="-1" type="curve" smooth="yes" name="hr03"/>
      <point x="902" y="-1"/>
      <point x="929" y="1"/>
      <point x="961" y="4" type="curve" smooth="yes" name="hr04"/>
      <point x="1604" y="70" type="line"/>
    </contour>
  </outline>
</glyph>
<glyph name="pagenumber-ar" format="1">
  <advance width="1292"/>
  <unicode hex="0603"/>
  <outline>
    <contour>
      <point x="20" y="0" type="line" name="hr00"/>
      <point x="417" y="0" type="line" smooth="yes"/>
      <point x="508" y="0"/>
      <point x="545" y="25"/>
      <point x="560" y="98" type="curve"/>
      <point x="565" y="98" type="line"/>
      <point x="581" y="32"/>
      <point x="634" y="0"/>
      <point x="727" y="0" type="curve" smooth="yes"/>
      <point x="1023" y="0" type="line" smooth="yes"/>
      <point x="1171" y="0"/>
      <point x="1248" y="58"/>
      <point x="1248" y="209" type="curve" smooth="yes"/>
      <point x="1248" y="334"/>
      <point x="1172" y="410"/>
      <point x="1043" y="410" type="curve" smooth="yes"/>
      <point x="924" y="410"/>
      <point x="824" y="356"/>
      <point x="719" y="183" type="curve" smooth="yes"/>
      <point x="666" y="94" type="line"/>
      <point x="639" y="106"/>
      <point x="627" y="131"/>
      <point x="627" y="171" type="curve" smooth="yes"/>
      <point x="627" y="249" type="line"/>
      <point x="557" y="249" type="line"/>
      <point x="557" y="171" type="line" smooth="yes"/>
      <point x="557" y="114"/>
      <point x="529" y="86"/>
      <point x="472" y="86" type="curve" smooth="yes"/>
      <point x="20" y="86" type="line"/>
    </contour>
    <contour>
      <point x="775" y="158" type="line"/>
      <point x="862" y="289"/>
      <point x="922" y="324"/>
      <point x="1028" y="324" type="curve" smooth="yes"/>
      <point x="1058" y="324" type="line" smooth="yes"/>
      <point x="1134" y="324"/>
      <point x="1178" y="281"/>
      <point x="1178" y="199" type="curve" smooth="yes"/>
      <point x="1178" y="116"/>
      <point x="1122" y="86"/>
      <point x="1023" y="86" type="curve" smooth="yes"/>
      <point x="735" y="86" type="line"/>
      <point x="732" y="91" type="line"/>
    </contour>
  </outline>
</glyph>
<glyph name="samvat-ar" format="1">
  <advance width="1680"/>
  <unicode hex="0604"/>
  <outline>
    <contour>
      <point x="928" y="-99" type="line"/>
      <point x="971" y="-24" type="line"/>
      <point x="870" y="41" type="line" smooth="yes"/>
      <point x="813" y="77"/>
      <point x="799" y="96"/>
      <point x="799" y="133" type="curve" smooth="yes"/>
      <point x="799" y="202"/>
      <point x="869" y="267"/>
      <point x="943" y="267" type="curve" smooth="yes"/>
      <point x="999" y="267"/>
      <point x="1035" y="243"/>
      <point x="1058" y="190" type="curve" smooth="yes"/>
      <point x="1091" y="115" type="line" smooth="yes"/>
      <point x="1132" y="22"/>
      <point x="1169" y="-12"/>
      <point x="1234" y="-12" type="curve" smooth="yes"/>
      <point x="1299" y="-12"/>
      <point x="1336" y="19"/>
      <point x="1350" y="88" type="curve"/>
      <point x="1355" y="88" type="line"/>
      <point x="1368" y="23"/>
      <point x="1414" y="-12"/>
      <point x="1493" y="-12" type="curve" smooth="yes"/>
      <point x="1583" y="-12"/>
      <point x="1635" y="46"/>
      <point x="1635" y="138" type="curve" smooth="yes"/>
      <point x="1635" y="164"/>
      <point x="1632" y="204"/>
      <point x="1627" y="245" type="curve" smooth="yes"/>
      <point x="1620" y="298" type="line"/>
      <point x="1551" y="289" type="line"/>
      <point x="1559" y="234" type="line" smooth="yes"/>
      <point x="1565" y="195"/>
      <point x="1567" y="159"/>
      <point x="1567" y="138" type="curve" smooth="yes"/>
      <point x="1567" y="94"/>
      <point x="1547" y="74"/>
      <point x="1503" y="74" type="curve" smooth="yes"/>
      <point x="1483" y="74" type="line" smooth="yes"/>
      <point x="1434" y="74"/>
      <point x="1416" y="99"/>
      <point x="1416" y="171" type="curve" smooth="yes"/>
      <point x="1416" y="249" type="line"/>
      <point x="1346" y="249" type="line"/>
      <point x="1346" y="171" type="line" smooth="yes"/>
      <point x="1346" y="101"/>
      <point x="1316" y="74"/>
      <point x="1254" y="74" type="curve" smooth="yes"/>
      <point x="1210" y="74"/>
      <point x="1188" y="92"/>
      <point x="1166" y="143" type="curve" smooth="yes"/>
      <point x="1132" y="223" type="line" smooth="yes"/>
      <point x="1095" y="310"/>
      <point x="1037" y="353"/>
      <point x="953" y="353" type="curve" smooth="yes"/>
      <point x="839" y="353"/>
      <point x="732" y="240"/>
      <point x="732" y="130" type="curve" smooth="yes"/>
      <point x="732" y="111"/>
      <point x="735" y="95"/>
      <point x="742" y="78" type="curve"/>
      <point x="739" y="75" type="line"/>
      <point x="721" y="83"/>
      <point x="700" y="86"/>
      <point x="662" y="86" type="curve" smooth="yes" name="hr01"/>
      <point x="20" y="86" type="line"/>
      <point x="20" y="0" type="line"/>
      <point x="662" y="0" type="line" smooth="yes"/>
      <point x="738" y="0"/>
      <point x="790" y="-11"/>
      <point x="827" y="-34" type="curve" smooth="yes"/>
    </contour>
  </outline>
</glyph>
<glyph name="ray-ar" format="1">
  <advance width="777"/>
  <unicode hex="0608"/>
  <outline>
    <contour>
      <point x="-71" y="191" type="line" name="hr00"/>
      <point x="99" y="191" type="line"/>
      <point x="74" y="129"/>
      <point x="60" y="65"/>
      <point x="60" y="10" type="curve" smooth="yes"/>
      <point x="60" y="-147"/>
      <point x="168" y="-240"/>
      <point x="352" y="-240" type="curve" smooth="yes"/>
      <point x="576" y="-240"/>
      <point x="683" y="-149"/>
      <point x="690" y="47" type="curve"/>
      <point x="741" y="75"/>
      <point x="784" y="113"/>
      <point x="817" y="159" type="curve"/>
      <point x="767" y="214" type="line"/>
      <point x="745" y="183"/>
      <point x="718" y="158"/>
      <point x="688" y="138" type="curve"/>
      <point x="673" y="291"/>
      <point x="609" y="379"/>
      <point x="508" y="379" type="curve" smooth="yes"/>
      <point x="402" y="379"/>
      <point x="326" y="280"/>
      <point x="326" y="160" type="curve" smooth="yes"/>
      <point x="326" y="58"/>
      <point x="388" y="-2"/>
      <point x="494" y="-2" type="curve" smooth="yes"/>
      <point x="539" y="-2"/>
      <point x="582" y="4"/>
      <point x="622" y="17" type="curve"/>
      <point x="618" y="-97"/>
      <point x="543" y="-150"/>
      <point x="382" y="-150" type="curve" smooth="yes"/>
      <point x="322" y="-150" type="line" smooth="yes"/>
      <point x="199" y="-150"/>
      <point x="126" y="-84"/>
      <point x="126" y="29" type="curve" smooth="yes"/>
      <point x="126" y="79"/>
      <point x="144" y="139"/>
      <point x="169" y="191" type="curve"/>
      <point x="169" y="255" type="line"/>
      <point x="-71" y="255" type="line"/>
    </contour>
    <contour>
      <point x="514" y="86" type="curve"/>
      <point x="494" y="86" type="line" smooth="yes"/>
      <point x="427" y="86"/>
      <point x="396" y="112"/>
      <point x="396" y="170" type="curve" smooth="yes"/>
      <point x="396" y="243"/>
      <point x="434" y="293"/>
      <point x="502" y="293" type="curve" smooth="yes"/>
      <point x="576" y="293"/>
      <point x="622" y="224"/>
      <point x="622" y="117" type="curve" smooth="yes"/>
      <point x="622" y="105" type="line"/>
      <point x="588" y="93"/>
      <point x="551" y="86"/>
    </contour>
  </outline>
</glyph>
<glyph name="perthousand-ar" format="1">
  <advance width="655"/>
  <unicode hex="0609"/>
  <outline>
    <contour>
      <point x="50" y="0" type="line"/>
      <point x="127" y="0" type="line"/>
      <point x="526" y="618" type="line"/>
      <point x="449" y="618" type="line"/>
    </contour>
    <contour>
      <point x="60" y="557" type="curve" smooth="yes"/>
      <point x="60" y="515"/>
      <point x="84" y="496"/>
      <point x="118" y="496" type="curve" smooth="yes"/>
      <point x="131" y="496" type="line" smooth="yes"/>
      <point x="165" y="496"/>
      <point x="189" y="515"/>
      <point x="189" y="557" type="curve" smooth="yes"/>
      <point x="189" y="599"/>
      <point x="165" y="618"/>
      <point x="131" y="618" type="curve" smooth="yes"/>
      <point x="118" y="618" type="line" smooth="yes"/>
      <point x="84" y="618"/>
      <point x="60" y="599"/>
    </contour>
    <contour>
      <point x="486" y="57" type="curve" smooth="yes"/>
      <point x="486" y="15"/>
      <point x="510" y="-4"/>
      <point x="544" y="-4" type="curve" smooth="yes" name="hr01"/>
      <point x="557" y="-4" type="line" smooth="yes"/>
      <point x="591" y="-4"/>
      <point x="615" y="15"/>
      <point x="615" y="57" type="curve" smooth="yes"/>
      <point x="615" y="99"/>
      <point x="591" y="118"/>
      <point x="557" y="118" type="curve" smooth="yes"/>
      <point x="544" y="118" type="line" smooth="yes"/>
      <point x="510" y="118"/>
      <point x="486" y="99"/>
    </contour>
    <contour>
      <point x="317" y="57" type="curve" smooth="yes"/>
      <point x="317" y="15"/>
      <point x="341" y="-4"/>
      <point x="375" y="-4" type="curve" smooth="yes"/>
      <point x="388" y="-4" type="line" smooth="yes"/>
      <point x="422" y="-4"/>
      <point x="446" y="15"/>
      <point x="446" y="57" type="curve" smooth="yes"/>
      <point x="446" y="99"/>
      <point x="422" y="118"/>
      <point x="388" y="118" type="curve" smooth="yes"/>
      <point x="375" y="118" type="line" smooth="yes"/>
      <point x="341" y="118"/>
      <point x="317" y="99"/>
    </contour>
  </outline>
</glyph>
<glyph name="afghani-ar" format="1">
  <advance width="831"/>
  <unicode hex="060B"/>
  <outline>
    <contour>
      <point x="324" y="-240" type="line"/>
      <point x="394" y="-240" type="line"/>
      <point x="394" y="0" type="line"/>
      <point x="569" y="0" type="line" smooth="yes"/>
      <point x="731" y="0"/>
      <point x="786" y="69"/>
      <point x="786" y="270" type="curve" smooth="yes"/>
      <point x="786" y="447"/>
      <point x="716" y="552"/>
      <point x="602" y="552" type="curve" smooth="yes"/>
      <point x="496" y="552"/>
      <point x="420" y="455"/>
      <point x="420" y="338" type="curve" smooth="yes"/>
      <point x="420" y="239"/>
      <point x="482" y="181"/>
      <point x="588" y="181" type="curve" smooth="yes"/>
      <point x="646" y="181"/>
      <point x="692" y="208"/>
      <point x="711" y="252" type="curve"/>
      <point x="716" y="252" type="line"/>
      <point x="716" y="220" type="line" smooth="yes"/>
      <point x="716" y="121"/>
      <point x="678" y="86"/>
      <point x="569" y="86" type="curve" smooth="yes"/>
      <point x="394" y="86" type="line"/>
      <point x="394" y="107" type="line" smooth="yes"/>
      <point x="394" y="278"/>
      <point x="326" y="379"/>
      <point x="216" y="379" type="curve" smooth="yes"/>
      <point x="110" y="379"/>
      <point x="34" y="280"/>
      <point x="34" y="160" type="curve" smooth="yes"/>
      <point x="34" y="59"/>
      <point x="96" y="0"/>
      <point x="202" y="0" type="curve" smooth="yes"/>
      <point x="324" y="0" type="line"/>
    </contour>
    <contour>
      <point x="104" y="170" type="curve" smooth="yes"/>
      <point x="104" y="243"/>
      <point x="142" y="293"/>
      <point x="210" y="293" type="curve" smooth="yes"/>
      <point x="280" y="293"/>
      <point x="324" y="220"/>
      <point x="324" y="107" type="curve" smooth="yes"/>
      <point x="324" y="86" type="line"/>
      <point x="202" y="86" type="line" smooth="yes"/>
      <point x="135" y="86"/>
      <point x="104" y="112"/>
    </contour>
    <contour>
      <point x="608" y="269" type="curve"/>
      <point x="588" y="269" type="line" smooth="yes"/>
      <point x="521" y="269"/>
      <point x="490" y="293"/>
      <point x="490" y="348" type="curve" smooth="yes"/>
      <point x="490" y="418"/>
      <point x="528" y="466"/>
      <point x="596" y="466" type="curve" smooth="yes"/>
      <point x="667" y="466"/>
      <point x="713" y="401"/>
      <point x="716" y="300" type="curve"/>
      <point x="697" y="279"/>
      <point x="665" y="269"/>
    </contour>
    <contour>
      <point x="353" y="540" type="curve" name="hr01"/>
      <point x="364" y="540" type="line" smooth="yes"/>
      <point x="390" y="540"/>
      <point x="408" y="555"/>
      <point x="408" y="589" type="curve" smooth="yes"/>
      <point x="408" y="623"/>
      <point x="390" y="638"/>
      <point x="364" y="638" type="curve" smooth="yes"/>
      <point x="353" y="638" type="line" smooth="yes"/>
      <point x="326" y="638"/>
      <point x="309" y="623"/>
      <point x="309" y="589" type="curve" smooth="yes"/>
      <point x="309" y="555"/>
      <point x="326" y="540"/>
    </contour>
  </outline>
</glyph>
<glyph name="comma-ar" format="1">
  <advance width="272"/>
  <unicode hex="060C"/>
  <outline>
    <contour>
      <point x="136" y="-12" type="curve" smooth="yes" name="hr00"/>
      <point x="178" y="-12"/>
      <point x="197" y="12"/>
      <point x="197" y="47" type="curve" smooth="yes"/>
      <point x="197" y="61" type="line" smooth="yes"/>
      <point x="197" y="88"/>
      <point x="185" y="108"/>
      <point x="158" y="114" type="curve"/>
      <point x="169" y="161"/>
      <point x="193" y="196"/>
      <point x="233" y="238" type="curve"/>
      <point x="166" y="238" type="line"/>
      <point x="109" y="189"/>
      <point x="75" y="115"/>
      <point x="75" y="61" type="curve" smooth="yes"/>
      <point x="75" y="47" type="line" smooth="yes"/>
      <point x="75" y="12"/>
      <point x="94" y="-12"/>
    </contour>
  </outline>
</glyph>
<glyph name="misraComma-ar" format="1">
  <advance width="652"/>
  <unicode hex="060F"/>
  <outline>
    <contour>
      <point x="-3" y="-304" type="line"/>
      <point x="91" y="-193" type="line"/>
      <point x="143" y="-266"/>
      <point x="241" y="-304"/>
      <point x="367" y="-304" type="curve" smooth="yes"/>
      <point x="527" y="-304"/>
      <point x="622" y="-238"/>
      <point x="622" y="-125" type="curve" smooth="yes"/>
      <point x="622" y="-12"/>
      <point x="546" y="54"/>
      <point x="417" y="54" type="curve" smooth="yes"/>
      <point x="288" y="54"/>
      <point x="214" y="30"/>
      <point x="122" y="-56" type="curve"/>
      <point x="122" y="-40" type="line" smooth="yes"/>
      <point x="122" y="85"/>
      <point x="195" y="149"/>
      <point x="405" y="194" type="curve" smooth="yes"/>
      <point x="537" y="222" type="line"/>
      <point x="522" y="300" type="line"/>
      <point x="441" y="285" type="line" smooth="yes"/>
      <point x="411" y="279"/>
      <point x="381" y="276"/>
      <point x="354" y="276" type="curve" smooth="yes"/>
      <point x="258" y="276"/>
      <point x="188" y="314"/>
      <point x="188" y="402" type="curve" smooth="yes" name="hr01"/>
      <point x="188" y="471"/>
      <point x="229" y="517"/>
      <point x="304" y="517" type="curve" smooth="yes"/>
      <point x="355" y="517"/>
      <point x="393" y="498"/>
      <point x="427" y="455" type="curve"/>
      <point x="477" y="513" type="line"/>
      <point x="440" y="570"/>
      <point x="383" y="603"/>
      <point x="308" y="603" type="curve" smooth="yes"/>
      <point x="203" y="603"/>
      <point x="118" y="521"/>
      <point x="118" y="402" type="curve" smooth="yes"/>
      <point x="118" y="328"/>
      <point x="163" y="256"/>
      <point x="238" y="210" type="curve"/>
      <point x="238" y="205" type="line"/>
      <point x="118" y="153"/>
      <point x="48" y="59"/>
      <point x="48" y="-48" type="curve" smooth="yes" name="hr02"/>
      <point x="48" y="-75"/>
      <point x="51" y="-101"/>
      <point x="58" y="-124" type="curve"/>
      <point x="34" y="-152" type="line"/>
      <point x="-58" y="-261" type="line"/>
    </contour>
    <contour>
      <point x="402" y="-32" type="curve"/>
      <point x="432" y="-32" type="line" smooth="yes"/>
      <point x="514" y="-32"/>
      <point x="552" y="-61"/>
      <point x="552" y="-125" type="curve" smooth="yes"/>
      <point x="552" y="-189"/>
      <point x="503" y="-218"/>
      <point x="397" y="-218" type="curve" smooth="yes"/>
      <point x="337" y="-218" type="line" smooth="yes"/>
      <point x="248" y="-218"/>
      <point x="180" y="-187"/>
      <point x="146" y="-132" type="curve"/>
      <point x="225" y="-54"/>
      <point x="288" y="-32"/>
    </contour>
  </outline>
</glyph>
<glyph name="sadabove-ar" format="1">
  <advance width="0"/>
  <unicode hex="0610"/>
  <outline>
    <contour>
      <point x="10" y="289" type="line" name="hr00"/>
      <point x="60" y="289" type="line"/>
      <point x="67" y="322" type="line" smooth="yes"/>
      <point x="70" y="339"/>
      <point x="73" y="354"/>
      <point x="75" y="369" type="curve"/>
      <point x="189" y="369" type="line" smooth="yes"/>
      <point x="235" y="369"/>
      <point x="281" y="381"/>
      <point x="281" y="451" type="curve" smooth="yes"/>
      <point x="281" y="502"/>
      <point x="252" y="534"/>
      <point x="197" y="534" type="curve" smooth="yes"/>
      <point x="140" y="534"/>
      <point x="121" y="507"/>
      <point x="94" y="459" type="curve" smooth="yes"/>
      <point x="77" y="429" type="line"/>
      <point x="75" y="429" type="line"/>
      <point x="70" y="459" type="line"/>
      <point x="66" y="479" type="line"/>
      <point x="15" y="469" type="line"/>
      <point x="21" y="441" type="line" smooth="yes"/>
      <point x="25" y="424"/>
      <point x="27" y="410"/>
      <point x="27" y="395" type="curve" smooth="yes"/>
      <point x="27" y="375"/>
      <point x="24" y="356"/>
      <point x="17" y="322" type="curve" smooth="yes"/>
    </contour>
    <contour>
      <point x="127" y="446" type="line" smooth="yes"/>
      <point x="140" y="468"/>
      <point x="153" y="474"/>
      <point x="192" y="474" type="curve" smooth="yes"/>
      <point x="202" y="474" type="line" smooth="yes"/>
      <point x="222" y="474"/>
      <point x="242" y="470"/>
      <point x="242" y="451" type="curve" smooth="yes"/>
      <point x="242" y="430"/>
      <point x="221" y="429"/>
      <point x="189" y="429" type="curve" smooth="yes"/>
      <point x="119" y="429" type="line"/>
      <point x="118" y="431" type="line"/>
    </contour>
    <contour>
      <point x="156.0" y="249.0" type="move" name="_top"/>
    </contour>
    <contour>
      <point x="146.0" y="534.0" type="move" name="top"/>
    </contour>
  </outline>
</glyph>
<glyph name="rehHahabove-ar" format="1">
  <advance width="0"/>
  <unicode hex="0612"/>
  <outline>
    <contour>
      <point x="13" y="289" type="curve"/>
      <point x="61" y="289" type="line"/>
      <point x="61" y="303" type="line" smooth="yes"/>
      <point x="61" y="355"/>
      <point x="92" y="365"/>
      <point x="139" y="380" type="curve" smooth="yes"/>
      <point x="216" y="404" type="line"/>
      <point x="216" y="484" type="line"/>
      <point x="85" y="498" type="line" smooth="yes"/>
      <point x="40" y="503"/>
      <point x="19" y="480"/>
      <point x="19" y="442" type="curve" smooth="yes" name="hr01"/>
      <point x="19" y="417" type="line"/>
      <point x="65" y="417" type="line"/>
      <point x="65" y="439" type="line"/>
      <point x="182" y="432" type="line"/>
      <point x="182" y="430" type="line"/>
      <point x="115" y="411" type="line" smooth="yes"/>
      <point x="44" y="391"/>
      <point x="13" y="347"/>
    </contour>
    <contour>
      <point x="183" y="289" type="line"/>
      <point x="199" y="289" type="line" smooth="yes"/>
      <point x="262" y="289"/>
      <point x="298" y="337"/>
      <point x="298" y="409" type="curve" smooth="yes"/>
      <point x="298" y="427"/>
      <point x="295" y="446"/>
      <point x="291" y="468" type="curve" smooth="yes"/>
      <point x="287" y="488" type="line"/>
      <point x="236" y="478" type="line"/>
      <point x="242" y="450" type="line" smooth="yes"/>
      <point x="246" y="433"/>
      <point x="248" y="419"/>
      <point x="248" y="404" type="curve" smooth="yes"/>
      <point x="248" y="365"/>
      <point x="233" y="348"/>
      <point x="199" y="348" type="curve" smooth="yes"/>
      <point x="183" y="348" type="line"/>
    </contour>
    <contour>
      <point x="155.0" y="289.0" type="move" name="_top"/>
    </contour>
    <contour>
      <point x="156.0" y="499.0" type="move" name="top"/>
    </contour>
  </outline>
</glyph>
<glyph name="rehDadabove-ar" format="1">
  <advance width="0"/>
  <unicode hex="0613"/>
  <outline>
    <contour>
      <point x="10" y="289" type="line" name="hr00"/>
      <point x="60" y="289" type="line"/>
      <point x="67" y="322" type="line" smooth="yes"/>
      <point x="70" y="339"/>
      <point x="73" y="354"/>
      <point x="75" y="369" type="curve"/>
      <point x="189" y="369" type="line" smooth="yes"/>
      <point x="235" y="369"/>
      <point x="281" y="381"/>
      <point x="281" y="451" type="curve" smooth="yes"/>
      <point x="281" y="502"/>
      <point x="252" y="534"/>
      <point x="197" y="534" type="curve" smooth="yes"/>
      <point x="140" y="534"/>
      <point x="121" y="507"/>
      <point x="94" y="459" type="curve" smooth="yes"/>
      <point x="77" y="429" type="line"/>
      <point x="75" y="429" type="line"/>
      <point x="70" y="459" type="line"/>
      <point x="66" y="479" type="line"/>
      <point x="15" y="469" type="line"/>
      <point x="21" y="441" type="line" smooth="yes"/>
      <point x="25" y="424"/>
      <point x="27" y="410"/>
      <point x="27" y="395" type="curve" smooth="yes"/>
      <point x="27" y="375"/>
      <point x="24" y="356"/>
      <point x="17" y="322" type="curve" smooth="yes"/>
    </contour>
    <contour>
      <point x="244" y="289" type="line"/>
      <point x="260" y="289" type="line" smooth="yes"/>
      <point x="323" y="289"/>
      <point x="359" y="337"/>
      <point x="359" y="409" type="curve" smooth="yes"/>
      <point x="359" y="427"/>
      <point x="356" y="446"/>
      <point x="352" y="468" type="curve" smooth="yes"/>
      <point x="348" y="488" type="line"/>
      <point x="297" y="478" type="line"/>
      <point x="303" y="450" type="line" smooth="yes"/>
      <point x="307" y="433"/>
      <point x="309" y="419"/>
      <point x="309" y="404" type="curve" smooth="yes"/>
      <point x="309" y="365"/>
      <point x="294" y="348"/>
      <point x="260" y="348" type="curve" smooth="yes"/>
      <point x="244" y="348" type="line"/>
    </contour>
    <contour>
      <point x="127" y="446" type="line" smooth="yes"/>
      <point x="140" y="468"/>
      <point x="153" y="474"/>
      <point x="192" y="474" type="curve" smooth="yes"/>
      <point x="202" y="474" type="line" smooth="yes"/>
      <point x="222" y="474"/>
      <point x="242" y="470"/>
      <point x="242" y="451" type="curve" smooth="yes"/>
      <point x="242" y="430"/>
      <point x="221" y="429"/>
      <point x="189" y="429" type="curve" smooth="yes"/>
      <point x="119" y="429" type="line"/>
      <point x="118" y="431" type="line"/>
    </contour>
    <contour>
      <point x="187" y="562" type="curve"/>
      <point x="195" y="562" type="line" smooth="yes"/>
      <point x="207" y="562"/>
      <point x="218" y="570"/>
      <point x="218" y="588" type="curve" smooth="yes"/>
      <point x="218" y="606"/>
      <point x="207" y="614"/>
      <point x="195" y="614" type="curve" smooth="yes"/>
      <point x="187" y="614" type="line" smooth="yes"/>
      <point x="174" y="614"/>
      <point x="164" y="605"/>
      <point x="164" y="588" type="curve" smooth="yes"/>
      <point x="164" y="570"/>
      <point x="175" y="562"/>
    </contour>
    <contour>
      <point x="183.0" y="289.0" type="move" name="_top"/>
    </contour>
    <contour>
      <point x="185.0" y="614.0" type="move" name="top"/>
    </contour>
  </outline>
</glyph>
<glyph name="takhallusabove-ar" format="1">
  <advance width="0"/>
  <unicode hex="0614"/>
  <outline>
    <contour>
      <point x="357" y="366" type="curve" smooth="yes"/>
      <point x="394" y="366"/>
      <point x="416" y="394"/>
      <point x="416" y="442" type="curve" smooth="yes"/>
      <point x="416" y="455"/>
      <point x="415" y="469"/>
      <point x="412" y="483" type="curve" smooth="yes"/>
      <point x="409" y="498" type="line"/>
      <point x="366" y="491" type="line"/>
      <point x="369" y="472" type="line" smooth="yes"/>
      <point x="371" y="462"/>
      <point x="372" y="451"/>
      <point x="372" y="443" type="curve" smooth="yes"/>
      <point x="372" y="433"/>
      <point x="369" y="426"/>
      <point x="357" y="426" type="curve" smooth="yes"/>
      <point x="347" y="426"/>
      <point x="340" y="433"/>
      <point x="340" y="449" type="curve" smooth="yes"/>
      <point x="340" y="468" type="line"/>
      <point x="297" y="468" type="line"/>
      <point x="297" y="449" type="line" smooth="yes"/>
      <point x="297" y="433"/>
      <point x="292" y="429"/>
      <point x="272" y="429" type="curve" smooth="yes" name="hr01"/>
      <point x="20" y="429" type="line"/>
      <point x="20" y="369" type="line"/>
      <point x="257" y="369" type="line" smooth="yes"/>
      <point x="280" y="369"/>
      <point x="296" y="386"/>
      <point x="299" y="415" type="curve"/>
      <point x="302" y="415" type="line"/>
      <point x="308" y="378"/>
      <point x="327" y="366"/>
    </contour>
    <contour>
      <point x="218.0" y="249.0" type="move" name="_top"/>
    </contour>
    <contour>
      <point x="218.0" y="498.0" type="move" name="top"/>
    </contour>
  </outline>
</glyph>
<glyph name="fathasmall-ar" format="1">
  <advance width="0"/>
  <unicode hex="0618"/>
  <outline>
    <contour>
      <point x="165" y="479" type="line" name="hr00"/>
      <point x="0" y="403" type="line"/>
      <point x="23" y="354" type="line"/>
      <point x="188" y="430" type="line"/>
    </contour>
    <contour>
      <point x="94.0" y="289.0" type="move" name="_top"/>
    </contour>
    <contour>
      <point x="94.0" y="419.0" type="move" name="top"/>
    </contour>
  </outline>
</glyph>
<glyph name="dammasmall-ar" format="1">
  <advance width="0"/>
  <unicode hex="0619"/>
  <outline>
    <contour>
      <point x="23" y="354" type="line" name="hr00"/>
      <point x="125" y="402" type="line" smooth="yes"/>
      <point x="179" y="427"/>
      <point x="204" y="464"/>
      <point x="204" y="510" type="curve" smooth="yes"/>
      <point x="204" y="555"/>
      <point x="171" y="590"/>
      <point x="130" y="590" type="curve" smooth="yes"/>
      <point x="84" y="590"/>
      <point x="51" y="556"/>
      <point x="51" y="510" type="curve" smooth="yes"/>
      <point x="51" y="484"/>
      <point x="64" y="461"/>
      <point x="85" y="447" type="curve"/>
      <point x="85" y="442" type="line"/>
      <point x="0" y="403" type="line"/>
    </contour>
    <contour>
      <point x="102" y="513" type="curve" smooth="yes"/>
      <point x="102" y="526"/>
      <point x="111" y="535"/>
      <point x="124" y="535" type="curve" smooth="yes"/>
      <point x="140" y="535"/>
      <point x="154" y="522"/>
      <point x="154" y="505" type="curve" smooth="yes"/>
      <point x="154" y="492"/>
      <point x="150" y="482"/>
      <point x="141" y="473" type="curve"/>
      <point x="128" y="480" type="line" smooth="yes"/>
      <point x="110" y="490"/>
      <point x="102" y="501"/>
    </contour>
    <contour>
      <point x="102.0" y="289.0" type="move" name="_top"/>
    </contour>
    <contour>
      <point x="102.0" y="590.0" type="move" name="top"/>
    </contour>
  </outline>
</glyph>
<glyph name="kasrasmall-ar" format="1">
  <advance width="0"/>
  <unicode hex="061A"/>
  <outline>
    <contour>
      <point x="165" y="479" type="line" name="hr00"/>
      <point x="0" y="403" type="line"/>
      <point x="23" y="354" type="line"/>
      <point x="188" y="430" type="line"/>
    </contour>
    <contour>
      <point x="94.0" y="574.0" type="move" name="_bottom"/>
    </contour>
    <contour>
      <point x="94.0" y="439.0" type="move" name="bottom"/>
    </contour>
  </outline>
</glyph>
<glyph name="yehKashmiri-ar" format="1">
  <advance width="726"/>
  <unicode hex="0620"/>
  <outline>
    <contour>
      <point x="347" y="-382" type="curve" smooth="yes" name="hr00"/>
      <point x="402" y="-382"/>
      <point x="443" y="-339"/>
      <point x="443" y="-282" type="curve" smooth="yes"/>
      <point x="443" y="-264"/>
      <point x="439" y="-249"/>
      <point x="432" y="-235" type="curve"/>
      <point x="599" y="-213"/>
      <point x="696" y="-120"/>
      <point x="696" y="22" type="curve" smooth="yes"/>
      <point x="696" y="78"/>
      <point x="669" y="110"/>
      <point x="609" y="124" type="curve" smooth="yes"/>
      <point x="473" y="156" type="line" smooth="yes"/>
      <point x="402" y="173"/>
      <point x="370" y="199"/>
      <point x="370" y="240" type="curve" smooth="yes"/>
      <point x="370" y="324"/>
      <point x="435" y="393"/>
      <point x="513" y="393" type="curve" smooth="yes"/>
      <point x="556" y="393"/>
      <point x="588" y="374"/>
      <point x="616" y="331" type="curve"/>
      <point x="676" y="389" type="line"/>
      <point x="643" y="446"/>
      <point x="594" y="479"/>
      <point x="523" y="479" type="curve" smooth="yes"/>
      <point x="410" y="479"/>
      <point x="303" y="354"/>
      <point x="303" y="227" type="curve" smooth="yes"/>
      <point x="303" y="145"/>
      <point x="355" y="95"/>
      <point x="470" y="69" type="curve" smooth="yes"/>
      <point x="630" y="33" type="line"/>
      <point x="630" y="22" type="line" smooth="yes"/>
      <point x="630" y="-86"/>
      <point x="536" y="-150"/>
      <point x="377" y="-150" type="curve" smooth="yes"/>
      <point x="317" y="-150" type="line" smooth="yes"/>
      <point x="185" y="-150"/>
      <point x="106" y="-84"/>
      <point x="106" y="29" type="curve" smooth="yes"/>
      <point x="106" y="79"/>
      <point x="124" y="139"/>
      <point x="149" y="191" type="curve"/>
      <point x="87" y="210" type="line"/>
      <point x="58" y="142"/>
      <point x="40" y="71"/>
      <point x="40" y="10" type="curve" smooth="yes"/>
      <point x="40" y="-122"/>
      <point x="122" y="-209"/>
      <point x="262" y="-233" type="curve"/>
      <point x="255" y="-247"/>
      <point x="250" y="-264"/>
      <point x="250" y="-282" type="curve" smooth="yes"/>
      <point x="250" y="-339"/>
      <point x="292" y="-382"/>
    </contour>
    <contour>
      <point x="347" y="-324" type="curve" smooth="yes"/>
      <point x="320" y="-324"/>
      <point x="300" y="-306"/>
      <point x="300" y="-282" type="curve" smooth="yes"/>
      <point x="300" y="-258"/>
      <point x="320" y="-240"/>
      <point x="347" y="-240" type="curve" smooth="yes"/>
      <point x="373" y="-240"/>
      <point x="393" y="-258"/>
      <point x="393" y="-282" type="curve" smooth="yes"/>
      <point x="393" y="-306"/>
      <point x="373" y="-324"/>
    </contour>
  </outline>
</glyph>
<glyph name="hamza-ar" format="1">
  <advance width="388"/>
  <unicode hex="0621"/>
  <outline>
    <contour>
      <point x="30" y="0" type="line" name="hr00"/>
      <point x="358" y="0" type="line"/>
      <point x="358" y="82" type="line"/>
      <point x="237" y="82" type="line" smooth="yes"/>
      <point x="166" y="82"/>
      <point x="119" y="115"/>
      <point x="119" y="169" type="curve" smooth="yes"/>
      <point x="119" y="213"/>
      <point x="154" y="240"/>
      <point x="201" y="240" type="curve" smooth="yes"/>
      <point x="233" y="240"/>
      <point x="265" y="232"/>
      <point x="286" y="202" type="curve"/>
      <point x="339" y="262" type="line"/>
      <point x="308" y="301"/>
      <point x="267" y="324"/>
      <point x="208" y="324" type="curve" smooth="yes"/>
      <point x="122" y="324"/>
      <point x="59" y="259"/>
      <point x="59" y="174" type="curve" smooth="yes"/>
      <point x="59" y="139"/>
      <point x="70" y="107"/>
      <point x="88" y="81" type="curve"/>
      <point x="86" y="77" type="line"/>
      <point x="30" y="77" type="line"/>
    </contour>
    <contour>
      <point x="225.0" y="0.0" type="move" name="bottom"/>
    </contour>
    <contour>
      <point x="208.0" y="324.0" type="move" name="top"/>
    </contour>
  </outline>
</glyph>
<glyph name="alefHamzaabove-ar" format="1">
  <advance width="224"/>
  <unicode hex="0623"/>
  <outline>
    <component base="alef-ar.short"/>
    <component base="hamzaabove-ar" xOffset="-1" yOffset="329"/>
    <contour>
      <point x="112.0" y="0.0" type="move" name="bottom"/>
    </contour>
    <contour>
      <point x="112.0" y="618.0" type="move" name="top"/>
    </contour>
  </outline>
</glyph>
<glyph name="alef-ar" format="1">
  <advance width="224"/>
  <unicode hex="0627"/>
  <outline>
    <contour>
      <point x="75" y="0" type="line" name="hr00"/>
      <point x="149" y="0" type="line"/>
      <point x="149" y="740" type="line"/>
      <point x="75" y="740" type="line"/>
    </contour>
    <contour>
      <point x="112.0" y="0.0" type="move" name="bottom"/>
    </contour>
    <contour>
      <point x="299.0" y="507.0" type="move" name="high"/>
    </contour>
    <contour>
      <point x="112.0" y="740.0" type="move" name="top"/>
    </contour>
  </outline>
</glyph>
<glyph name="hah-ar" format="1">
  <advance width="591"/>
  <unicode hex="062D"/>
  <outline>
    <contour>
      <point x="322" y="-304" type="curve" smooth="yes"/>
      <point x="443" y="-304"/>
      <point x="529" y="-267"/>
      <point x="611" y="-181" type="curve"/>
      <point x="557" y="-114" type="line"/>
      <point x="489" y="-184"/>
      <point x="418" y="-214"/>
      <point x="322" y="-214" type="curve" smooth="yes"/>
      <point x="192" y="-214"/>
      <point x="109" y="-144"/>
      <point x="109" y="-23" type="curve" smooth="yes"/>
      <point x="109" y="1" type="line" smooth="yes"/>
      <point x="109" y="96"/>
      <point x="172" y="158"/>
      <point x="308" y="209" type="curve" smooth="yes"/>
      <point x="565" y="306" type="line"/>
      <point x="565" y="438" type="line"/>
      <point x="184" y="461" type="line" smooth="yes"/>
      <point x="115" y="465"/>
      <point x="74" y="437"/>
      <point x="74" y="378" type="curve" smooth="yes" name="hr01"/>
      <point x="74" y="301" type="line"/>
      <point x="144" y="301" type="line"/>
      <point x="144" y="379" type="line"/>
      <point x="504" y="366" type="line"/>
      <point x="504" y="362" type="line"/>
      <point x="299" y="282" type="line" smooth="yes"/>
      <point x="96" y="203"/>
      <point x="35" y="93"/>
      <point x="35" y="-21" type="curve" smooth="yes" name="hr02"/>
      <point x="35" y="-199"/>
      <point x="145" y="-304"/>
    </contour>
    <contour>
      <point x="332.0" y="-304.0" type="move" name="bottom"/>
    </contour>
    <contour>
      <point x="319.0" y="11.0" type="move" name="center"/>
    </contour>
    <contour>
      <point x="300.0" y="424.0" type="move" name="top"/>
    </contour>
  </outline>
</glyph>
<glyph name="dal-ar" format="1">
  <advance width="468"/>
  <unicode hex="062F"/>
  <outline>
    <contour>
      <point x="113" y="0" type="curve" smooth="yes" name="hr00"/>
      <point x="255" y="0" type="line" smooth="yes"/>
      <point x="366" y="0"/>
      <point x="429" y="60"/>
      <point x="429" y="157" type="curve" smooth="yes"/>
      <point x="429" y="234"/>
      <point x="401" y="292"/>
      <point x="322" y="384" type="curve" smooth="yes"/>
      <point x="222" y="499" type="line"/>
      <point x="157" y="437" type="line"/>
      <point x="262" y="322" type="line" smooth="yes"/>
      <point x="333" y="251"/>
      <point x="358" y="210"/>
      <point x="358" y="164" type="curve" smooth="yes"/>
      <point x="358" y="124"/>
      <point x="339" y="86"/>
      <point x="265" y="86" type="curve" smooth="yes"/>
      <point x="100" y="86" type="line"/>
      <point x="100" y="162" type="line"/>
      <point x="30" y="162" type="line"/>
      <point x="30" y="85" type="line" smooth="yes"/>
      <point x="30" y="30"/>
      <point x="65" y="0"/>
    </contour>
    <contour>
      <point x="230.0" y="0.0" type="move" name="bottom"/>
    </contour>
    <contour>
      <point x="240.0" y="0.0" type="move" name="ring"/>
    </contour>
    <contour>
      <point x="210.0" y="489.0" type="move" name="top"/>
    </contour>
  </outline>
</glyph>
<glyph name="thal-ar" format="1">
  <advance width="468"/>
  <unicode hex="0630"/>
  <outline>
    <component base="dal-ar"/>
    <component base="dotabove-ar" xOffset="145" yOffset="240"/>
    <contour>
      <point x="230.0" y="0.0" type="move" name="bottom"/>
    </contour>
    <contour>
      <point x="240.0" y="0.0" type="move" name="ring"/>
    </contour>
    <contour>
      <point x="210.0" y="489.0" type="move" name="top"/>
    </contour>
  </outline>
</glyph>
<glyph name="sheen-ar" format="1">
  <advance width="1133"/>
  <unicode hex="0634"/>
  <outline>
    <component base="seen-ar"/>
    <component base="threedotsupabove-ar" xOffset="705"/>
    <contour>
      <point x="347.0" y="-240.0" type="move" name="bottom"/>
    </contour>
    <contour>
      <point x="834.0" y="-145.0" type="move" name="center"/>
    </contour>
    <contour>
      <point x="834.0" y="249.0" type="move" name="top"/>
    </contour>
  </outline>
</glyph>
<glyph name="dad-ar" format="1">
  <advance width="1248"/>
  <unicode hex="0636"/>
  <outline>
    <component base="sad-ar"/>
    <component base="dotabove-ar" xOffset="904" yOffset="161"/>
    <contour>
      <point x="317.0" y="-240.0" type="move" name="bottom"/>
    </contour>
    <contour>
      <point x="969.0" y="410.0" type="move" name="top"/>
    </contour>
  </outline>
</glyph>
<glyph name="kehehThreedotsbelow-ar" format="1">
  <advance width="851"/>
  <unicode hex="063C"/>
  <outline>
    <component base="keheh-ar"/>
    <component base="threedotsdownbelow-ar" xOffset="286" yOffset="-687"/>
    <contour>
      <point x="418.0" y="0.0" type="move" name="bottom"/>
    </contour>
    <contour>
      <point x="529.0" y="552.0" type="move" name="kafbar"/>
    </contour>
    <contour>
      <point x="785.0" y="571.0" type="move" name="ring"/>
    </contour>
    <contour>
      <point x="654.0" y="668.0" type="move" name="top"/>
    </contour>
  </outline>
</glyph>
<glyph name="feh-ar" format="1">
  <advance width="901"/>
  <unicode hex="0641"/>
  <outline>
    <component base="fehDotless-ar"/>
    <component base="dotabove-ar" xOffset="607" yOffset="303"/>
    <contour>
      <point x="418.0" y="-12.0" type="move" name="bottom"/>
    </contour>
    <contour>
      <point x="672.0" y="552.0" type="move" name="top"/>
    </contour>
  </outline>
</glyph>
<glyph name="kaf-ar" format="1">
  <advance width="751"/>
  <unicode hex="0643"/>
  <outline>
    <contour>
      <point x="50" y="0" type="line" name="hr00"/>
      <point x="448" y="0" type="line" smooth="yes"/>
      <point x="602" y="0"/>
      <point x="676" y="74"/>
      <point x="676" y="228" type="curve" smooth="yes"/>
      <point x="676" y="740" type="line"/>
      <point x="602" y="740" type="line"/>
      <point x="602" y="228" type="line" smooth="yes"/>
      <point x="602" y="123"/>
      <point x="562" y="86"/>
      <point x="448" y="86" type="curve" smooth="yes"/>
      <point x="50" y="86" type="line"/>
    </contour>
    <contour>
      <point x="283" y="227" type="line"/>
      <point x="385" y="279" type="line" smooth="yes"/>
      <point x="437" y="305"/>
      <point x="450" y="321"/>
      <point x="450" y="363" type="curve" smooth="yes"/>
      <point x="450" y="398"/>
      <point x="430" y="418"/>
      <point x="396" y="418" type="curve" smooth="yes"/>
      <point x="319" y="418" type="line"/>
      <point x="318" y="423" type="line"/>
      <point x="429" y="490" type="line"/>
      <point x="399" y="538" type="line"/>
      <point x="338" y="502" type="line" smooth="yes"/>
      <point x="284" y="470"/>
      <point x="268" y="444"/>
      <point x="268" y="415" type="curve" smooth="yes"/>
      <point x="268" y="373"/>
      <point x="294" y="352"/>
      <point x="336" y="352" type="curve" smooth="yes"/>
      <point x="399" y="352" type="line"/>
      <point x="400" y="348" type="line"/>
      <point x="258" y="277" type="line"/>
    </contour>
    <contour>
      <point x="356.0" y="0.0" type="move" name="bottom"/>
    </contour>
    <contour>
      <point x="357.0" y="516.0" type="move" name="top"/>
    </contour>
  </outline>
</glyph>
<glyph name="heh-ar" format="1">
  <advance width="448"/>
  <unicode hex="0647"/>
  <outline>
    <contour>
      <point x="224" y="-9" type="curve" smooth="yes" name="hr00"/>
      <point x="337" y="-9"/>
      <point x="403" y="67"/>
      <point x="403" y="169" type="curve" smooth="yes"/>
      <point x="403" y="235"/>
      <point x="376" y="301"/>
      <point x="301" y="382" type="curve" smooth="yes"/>
      <point x="274" y="411" type="line"/>
      <point x="184" y="411" type="line"/>
      <point x="150" y="372" type="line" smooth="yes"/>
      <point x="80" y="295"/>
      <point x="45" y="229"/>
      <point x="45" y="159" type="curve" smooth="yes"/>
      <point x="45" y="64"/>
      <point x="111" y="-9"/>
    </contour>
    <contour>
      <point x="214" y="77" type="line" smooth="yes"/>
      <point x="157" y="77"/>
      <point x="115" y="122"/>
      <point x="115" y="174" type="curve" smooth="yes"/>
      <point x="115" y="213"/>
      <point x="136" y="245"/>
      <point x="176" y="292" type="curve" smooth="yes"/>
      <point x="217" y="340" type="line"/>
      <point x="223" y="340" type="line"/>
      <point x="268" y="292" type="line" smooth="yes"/>
      <point x="312" y="246"/>
      <point x="333" y="208"/>
      <point x="333" y="169" type="curve" smooth="yes"/>
      <point x="333" y="116"/>
      <point x="291" y="77"/>
      <point x="234" y="77" type="curve" smooth="yes"/>
    </contour>
    <contour>
      <point x="224.0" y="-9.0" type="move" name="bottom"/>
    </contour>
    <contour>
      <point x="229.0" y="411.0" type="move" name="top"/>
    </contour>
  </outline>
</glyph>
<glyph name="yeh-ar" format="1">
  <advance width="726"/>
  <unicode hex="064A"/>
  <outline>
    <component base="alefMaksura-ar"/>
    <component base="twodotshorizontalbelow-ar" xOffset="218" yOffset="-810"/>
    <contour>
      <point x="347.0" y="-240.0" type="move" name="bottom"/>
    </contour>
    <contour>
      <point x="523.0" y="479.0" type="move" name="high"/>
    </contour>
    <contour>
      <point x="347.0" y="-240.0" type="move" name="ring"/>
    </contour>
    <contour>
      <point x="149.0" y="191.0" type="move" name="tail"/>
    </contour>
    <contour>
      <point x="118.0" y="191.0" type="move" name="top"/>
    </contour>
  </outline>
</glyph>
<glyph name="dammatan-ar" format="1">
  <advance width="0"/>
  <unicode hex="064C"/>
  <outline>
    <contour>
      <point x="74" y="354" type="line" name="hr00"/>
      <point x="205" y="416" type="line" smooth="yes"/>
      <point x="265" y="445"/>
      <point x="293" y="482"/>
      <point x="293" y="534" type="curve" smooth="yes"/>
      <point x="293" y="585"/>
      <point x="257" y="624"/>
      <point x="210" y="624" type="curve" smooth="yes"/>
      <point x="158" y="624"/>
      <point x="122" y="586"/>
      <point x="122" y="534" type="curve" smooth="yes"/>
      <point x="122" y="504"/>
      <point x="138" y="477"/>
      <point x="165" y="461" type="curve"/>
      <point x="165" y="457" type="line"/>
      <point x="94" y="423" type="line"/>
      <point x="93" y="427" type="line"/>
      <point x="102" y="444"/>
      <point x="107" y="466"/>
      <point x="107" y="484" type="curve" smooth="yes"/>
      <point x="107" y="520"/>
      <point x="86" y="542"/>
      <point x="50" y="542" type="curve" smooth="yes"/>
      <point x="33" y="542"/>
      <point x="15" y="536"/>
      <point x="-3" y="525" type="curve"/>
      <point x="21" y="476" type="line"/>
      <point x="28" y="480"/>
      <point x="35" y="482"/>
      <point x="42" y="482" type="curve" smooth="yes"/>
      <point x="57" y="482"/>
      <point x="66" y="473"/>
      <point x="66" y="459" type="curve" smooth="yes"/>
      <point x="66" y="445"/>
      <point x="60" y="424"/>
      <point x="51" y="403" type="curve"/>
    </contour>
    <contour>
      <point x="173" y="537" type="curve" smooth="yes"/>
      <point x="173" y="556"/>
      <point x="186" y="569"/>
      <point x="204" y="569" type="curve" smooth="yes"/>
      <point x="226" y="569"/>
      <point x="243" y="552"/>
      <point x="243" y="529" type="curve" smooth="yes"/>
      <point x="243" y="511"/>
      <point x="237" y="499"/>
      <point x="222" y="487" type="curve"/>
      <point x="208" y="495" type="line" smooth="yes"/>
      <point x="184" y="508"/>
      <point x="173" y="521"/>
    </contour>
    <contour>
      <point x="182.0" y="289.0" type="move" name="_top"/>
    </contour>
    <contour>
      <point x="182.0" y="636.0" type="move" name="top"/>
    </contour>
  </outline>
</glyph>
<glyph name="sukun-ar" format="1">
  <advance width="0"/>
  <unicode hex="0652"/>
  <outline>
    <contour>
      <point x="113" y="359" type="curve" smooth="yes" name="hr00"/>
      <point x="169" y="359"/>
      <point x="210" y="403"/>
      <point x="210" y="461" type="curve" smooth="yes"/>
      <point x="210" y="519"/>
      <point x="169" y="563"/>
      <point x="113" y="563" type="curve" smooth="yes"/>
      <point x="57" y="563"/>
      <point x="15" y="519"/>
      <point x="15" y="461" type="curve" smooth="yes"/>
      <point x="15" y="403"/>
      <point x="57" y="359"/>
    </contour>
    <contour>
      <point x="107" y="419" type="line" smooth="yes"/>
      <point x="81" y="419"/>
      <point x="65" y="435"/>
      <point x="65" y="461" type="curve" smooth="yes"/>
      <point x="65" y="487"/>
      <point x="81" y="503"/>
      <point x="107" y="503" type="curve" smooth="yes"/>
      <point x="119" y="503" type="line" smooth="yes"/>
      <point x="145" y="503"/>
      <point x="160" y="487"/>
      <point x="160" y="461" type="curve" smooth="yes"/>
      <point x="160" y="435"/>
      <point x="145" y="419"/>
      <point x="119" y="419" type="curve" smooth="yes"/>
    </contour>
    <contour>
      <point x="113.0" y="289.0" type="move" name="_top"/>
    </contour>
    <contour>
      <point x="113.0" y="563.0" type="move" name="top"/>
    </contour>
  </outline>
</glyph>
<glyph name="madda-ar" format="1">
  <advance width="0"/>
  <unicode hex="0653"/>
  <outline>
    <contour>
      <point x="10" y="359" type="line" name="hr00"/>
      <point x="60" y="359" type="line"/>
      <point x="60" y="389" type="line"/>
      <point x="137" y="375" type="line" smooth="yes"/>
      <point x="176" y="368"/>
      <point x="189" y="367"/>
      <point x="201" y="367" type="curve" smooth="yes"/>
      <point x="250" y="367"/>
      <point x="278" y="393"/>
      <point x="289" y="450" type="curve"/>
      <point x="244" y="471" type="line"/>
      <point x="236" y="440"/>
      <point x="225" y="429"/>
      <point x="201" y="429" type="curve" smooth="yes"/>
      <point x="191" y="429"/>
      <point x="180" y="431"/>
      <point x="147" y="438" type="curve" smooth="yes"/>
      <point x="90" y="450" type="line" smooth="yes"/>
      <point x="30" y="463"/>
      <point x="10" y="430"/>
      <point x="10" y="392" type="curve" smooth="yes"/>
    </contour>
    <contour>
      <point x="146.0" y="289.0" type="move" name="_top"/>
    </contour>
    <contour>
      <point x="146.0" y="454.0" type="move" name="top"/>
    </contour>
  </outline>
</glyph>
<glyph name="dammainverted-ar" format="1">
  <advance width="0"/>
  <unicode hex="0657"/>
  <outline>
    <contour>
      <point x="233" y="634" type="line" name="hr00"/>
      <point x="102" y="572" type="line" smooth="yes"/>
      <point x="42" y="543"/>
      <point x="14" y="506"/>
      <point x="14" y="454" type="curve" smooth="yes"/>
      <point x="14" y="403"/>
      <point x="50" y="364"/>
      <point x="97" y="364" type="curve" smooth="yes"/>
      <point x="149" y="364"/>
      <point x="185" y="402"/>
      <point x="185" y="454" type="curve" smooth="yes"/>
      <point x="185" y="484"/>
      <point x="169" y="511"/>
      <point x="142" y="527" type="curve"/>
      <point x="142" y="531" type="line"/>
      <point x="256" y="585" type="line"/>
    </contour>
    <contour>
      <point x="134" y="451" type="curve" smooth="yes"/>
      <point x="134" y="432"/>
      <point x="121" y="419"/>
      <point x="103" y="419" type="curve" smooth="yes"/>
      <point x="81" y="419"/>
      <point x="64" y="436"/>
      <point x="64" y="459" type="curve" smooth="yes"/>
      <point x="64" y="477"/>
      <point x="70" y="489"/>
      <point x="85" y="501" type="curve"/>
      <point x="99" y="493" type="line" smooth="yes"/>
      <point x="123" y="480"/>
      <point x="134" y="467"/>
    </contour>
    <contour>
      <point x="135.0" y="289.0" type="move" name="_top"/>
    </contour>
    <contour>
      <point x="135.0" y="634.0" type="move" name="top"/>
    </contour>
  </outline>
</glyph>
<glyph name="vabove-ar" format="1">
  <advance width="0"/>
  <unicode hex="065A"/>
  <outline>
    <contour>
      <point x="87" y="369" type="line" name="hr00"/>
      <point x="162" y="369" type="line"/>
      <point x="240" y="565" type="line"/>
      <point x="178" y="565" type="line"/>
      <point x="130" y="429" type="line"/>
      <point x="129" y="429" type="line"/>
      <point x="79" y="565" type="line"/>
      <point x="10" y="565" type="line"/>
    </contour>
    <contour>
      <point x="125.0" y="289.0" type="move" name="_top"/>
    </contour>
    <contour>
      <point x="125.0" y="565.0" type="move" name="top"/>
    </contour>
  </outline>
</glyph>
<glyph name="dammareversed-ar" format="1">
  <advance width="0"/>
  <unicode hex="065D"/>
  <outline>
    <contour>
      <point x="239" y="354" type="line" name="hr00"/>
      <point x="108" y="416" type="line" smooth="yes"/>
      <point x="48" y="445"/>
      <point x="20" y="482"/>
      <point x="20" y="534" type="curve" smooth="yes"/>
      <point x="20" y="585"/>
      <point x="56" y="624"/>
      <point x="103" y="624" type="curve" smooth="yes"/>
      <point x="155" y="624"/>
      <point x="191" y="586"/>
      <point x="191" y="534" type="curve" smooth="yes"/>
      <point x="191" y="504"/>
      <point x="175" y="477"/>
      <point x="148" y="461" type="curve"/>
      <point x="148" y="457" type="line"/>
      <point x="262" y="403" type="line"/>
    </contour>
    <contour>
      <point x="140" y="537" type="curve" smooth="yes"/>
      <point x="140" y="556"/>
      <point x="127" y="569"/>
      <point x="109" y="569" type="curve" smooth="yes"/>
      <point x="87" y="569"/>
      <point x="70" y="552"/>
      <point x="70" y="529" type="curve" smooth="yes"/>
      <point x="70" y="511"/>
      <point x="76" y="499"/>
      <point x="91" y="487" type="curve"/>
      <point x="105" y="495" type="line" smooth="yes"/>
      <point x="129" y="508"/>
      <point x="140" y="521"/>
    </contour>
    <contour>
      <point x="131.0" y="289.0" type="move" name="_top"/>
    </contour>
    <contour>
      <point x="121.0" y="624.0" type="move" name="top"/>
    </contour>
  </outline>
</glyph>
<glyph name="fathatwodots-ar" format="1">
  <advance width="0"/>
  <unicode hex="065E"/>
  <outline>
    <contour>
      <point x="65" y="325" type="line" name="hr00"/>
      <point x="236" y="495" type="line"/>
      <point x="197" y="533" type="line"/>
      <point x="26" y="363" type="line"/>
    </contour>
    <contour>
      <point x="61" y="459" type="curve" smooth="yes"/>
      <point x="70" y="459" type="line" smooth="yes"/>
      <point x="88" y="459"/>
      <point x="101" y="470"/>
      <point x="101" y="494" type="curve" smooth="yes"/>
      <point x="101" y="518"/>
      <point x="88" y="529"/>
      <point x="70" y="529" type="curve" smooth="yes"/>
      <point x="61" y="529" type="line" smooth="yes"/>
      <point x="43" y="529"/>
      <point x="30" y="518"/>
      <point x="30" y="494" type="curve" smooth="yes"/>
      <point x="30" y="470"/>
      <point x="43" y="459"/>
    </contour>
    <contour>
      <point x="193" y="329" type="curve" smooth="yes"/>
      <point x="200" y="329" type="line" smooth="yes"/>
      <point x="219" y="329"/>
      <point x="232" y="340"/>
      <point x="232" y="364" type="curve" smooth="yes"/>
      <point x="232" y="388"/>
      <point x="219" y="399"/>
      <point x="200" y="399" type="curve" smooth="yes"/>
      <point x="193" y="399" type="line" smooth="yes"/>
      <point x="173" y="399"/>
      <point x="161" y="388"/>
      <point x="161" y="364" type="curve" smooth="yes"/>
      <point x="161" y="340"/>
      <point x="173" y="329"/>
    </contour>
    <contour>
      <point x="131.0" y="289.0" type="move" name="_top"/>
    </contour>
    <contour>
      <point x="131.0" y="419.0" type="move" name="top"/>
    </contour>
  </outline>
</glyph>
<glyph name="one-ar" format="1">
  <advance width="263"/>
  <unicode hex="0661"/>
  <outline>
    <contour>
      <point x="149" y="606" type="line" name="hr00"/>
      <point x="75" y="606" type="line"/>
      <point x="114" y="0" type="line"/>
      <point x="188" y="0" type="line"/>
    </contour>
  </outline>
</glyph>
<glyph name="three-ar" format="1">
  <advance width="630"/>
  <unicode hex="0663"/>
  <outline>
    <contour>
      <point x="149" y="606" type="line"/>
      <point x="75" y="606" type="line"/>
      <point x="114" y="0" type="line"/>
      <point x="188" y="0" type="line"/>
      <point x="168" y="310" type="line"/>
      <point x="201" y="310" type="line" smooth="yes"/>
      <point x="266" y="310"/>
      <point x="306" y="343"/>
      <point x="319" y="398" type="curve"/>
      <point x="324" y="398" type="line"/>
      <point x="337" y="333"/>
      <point x="377" y="298"/>
      <point x="455" y="298" type="curve" smooth="yes" name="hr01"/>
      <point x="542" y="298"/>
      <point x="591" y="351"/>
      <point x="591" y="467" type="curve" smooth="yes"/>
      <point x="591" y="510"/>
      <point x="584" y="558"/>
      <point x="568" y="618" type="curve"/>
      <point x="496" y="601" type="line"/>
      <point x="515" y="538"/>
      <point x="523" y="495"/>
      <point x="523" y="467" type="curve" smooth="yes"/>
      <point x="523" y="411"/>
      <point x="506" y="384"/>
      <point x="465" y="384" type="curve" smooth="yes"/>
      <point x="445" y="384" type="line" smooth="yes"/>
      <point x="401" y="384"/>
      <point x="385" y="409"/>
      <point x="385" y="481" type="curve" smooth="yes"/>
      <point x="385" y="555" type="line"/>
      <point x="315" y="555" type="line"/>
      <point x="315" y="481" type="line" smooth="yes"/>
      <point x="315" y="420"/>
      <point x="284" y="396"/>
      <point x="221" y="396" type="curve" smooth="yes" name="hr02"/>
      <point x="162" y="396" type="line"/>
    </contour>
  </outline>
</glyph>
<glyph name="five-ar" format="1">
  <advance width="526"/>
  <unicode hex="0665"/>
  <outline>
    <contour>
      <point x="251" y="138" type="curve" smooth="yes" name="hr00"/>
      <point x="275" y="138" type="line" smooth="yes"/>
      <point x="368" y="138"/>
      <point x="419" y="200"/>
      <point x="419" y="289" type="curve" smooth="yes"/>
      <point x="419" y="391"/>
      <point x="352" y="468"/>
      <point x="263" y="468" type="curve" smooth="yes"/>
      <point x="174" y="468"/>
      <point x="107" y="391"/>
      <point x="107" y="289" type="curve" smooth="yes"/>
      <point x="107" y="201"/>
      <point x="158" y="138"/>
    </contour>
    <contour>
      <point x="263" y="58" type="curve" smooth="yes"/>
      <point x="123" y="58"/>
      <point x="40" y="147"/>
      <point x="40" y="288" type="curve" smooth="yes"/>
      <point x="40" y="437"/>
      <point x="136" y="548"/>
      <point x="263" y="548" type="curve" smooth="yes"/>
      <point x="390" y="548"/>
      <point x="486" y="437"/>
      <point x="486" y="288" type="curve" smooth="yes"/>
      <point x="486" y="147"/>
      <point x="403" y="58"/>
    </contour>
  </outline>
</glyph>
<glyph name="six-ar" format="1">
  <advance width="503"/>
  <unicode hex="0666"/>
  <outline>
    <contour>
      <point x="428" y="0" type="line" name="hr00"/>
      <point x="393" y="533" type="line" smooth="yes"/>
      <point x="390" y="582"/>
      <point x="354" y="606"/>
      <point x="301" y="606" type="curve" smooth="yes"/>
      <point x="36" y="606" type="line"/>
      <point x="36" y="521" type="line"/>
      <point x="320" y="521" type="line"/>
      <point x="354" y="0" type="line"/>
    </contour>
  </outline>
</glyph>
<glyph name="behDotless-ar" format="1">
  <advance width="839"/>
  <unicode hex="066E"/>
  <outline>
    <contour>
      <point x="418" y="-12" type="curve" smooth="yes" name="hr00"/>
      <point x="697" y="-12"/>
      <point x="794" y="37"/>
      <point x="794" y="176" type="curve" smooth="yes"/>
      <point x="794" y="201"/>
      <point x="791" y="237"/>
      <point x="782" y="297" type="curve" smooth="yes"/>
      <point x="769" y="380" type="line"/>
      <point x="699" y="369" type="line"/>
      <point x="714" y="286" type="line" smooth="yes"/>
      <point x="724" y="230"/>
      <point x="726" y="198"/>
      <point x="726" y="176" type="curve" smooth="yes"/>
      <point x="726" y="104"/>
      <point x="678" y="86"/>
      <point x="488" y="86" type="curve" smooth="yes"/>
      <point x="348" y="86" type="line" smooth="yes"/>
      <point x="183" y="86"/>
      <point x="107" y="123"/>
      <point x="107" y="204" type="curve" smooth="yes"/>
      <point x="107" y="246"/>
      <point x="120" y="292"/>
      <point x="148" y="350" type="curve"/>
      <point x="86" y="369" type="line"/>
      <point x="57" y="302"/>
      <point x="43" y="247"/>
      <point x="43" y="194" type="curve" smooth="yes"/>
      <point x="43" y="42"/>
      <point x="139" y="-12"/>
    </contour>
    <contour>
      <point x="418.0" y="0.0" type="move" name="bottom"/>
    </contour>
    <contour>
      <point x="418.0" y="-12.0" type="move" name="ring"/>
    </contour>
    <contour>
      <point x="418.0" y="249.0" type="move" name="top"/>
    </contour>
  </outline>
</glyph>
<glyph name="qafDotless-ar" format="1">
  <advance width="716"/>
  <unicode hex="066F"/>
  <outline>
    <contour>
      <point x="332" y="-240" type="curve" smooth="yes" name="hr00"/>
      <point x="563" y="-240"/>
      <point x="671" y="-143"/>
      <point x="671" y="66" type="curve" smooth="yes"/>
      <point x="671" y="263"/>
      <point x="604" y="379"/>
      <point x="488" y="379" type="curve" smooth="yes"/>
      <point x="382" y="379"/>
      <point x="306" y="280"/>
      <point x="306" y="160" type="curve" smooth="yes"/>
      <point x="306" y="58"/>
      <point x="368" y="-2"/>
      <point x="474" y="-2" type="curve" smooth="yes"/>
      <point x="532" y="-2"/>
      <point x="578" y="25"/>
      <point x="597" y="69" type="curve"/>
      <point x="602" y="69" type="line"/>
      <point x="602" y="26" type="line" smooth="yes"/>
      <point x="602" y="-95"/>
      <point x="527" y="-150"/>
      <point x="362" y="-150" type="curve" smooth="yes"/>
      <point x="302" y="-150" type="line" smooth="yes"/>
      <point x="179" y="-150"/>
      <point x="106" y="-84"/>
      <point x="106" y="29" type="curve" smooth="yes"/>
      <point x="106" y="79"/>
      <point x="124" y="139"/>
      <point x="149" y="191" type="curve"/>
      <point x="87" y="210" type="line"/>
      <point x="58" y="142"/>
      <point x="40" y="71"/>
      <point x="40" y="10" type="curve" smooth="yes"/>
      <point x="40" y="-147"/>
      <point x="148" y="-240"/>
    </contour>
    <contour>
      <point x="494" y="86" type="curve"/>
      <point x="474" y="86" type="line" smooth="yes"/>
      <point x="407" y="86"/>
      <point x="376" y="112"/>
      <point x="376" y="170" type="curve" smooth="yes"/>
      <point x="376" y="243"/>
      <point x="414" y="293"/>
      <point x="482" y="293" type="curve" smooth="yes"/>
      <point x="556" y="293"/>
      <point x="602" y="224"/>
      <point x="602" y="117" type="curve"/>
      <point x="583" y="96"/>
      <point x="551" y="86"/>
    </contour>
    <contour>
      <point x="332.0" y="-240.0" type="move" name="bottom"/>
    </contour>
    <contour>
      <point x="488.0" y="379.0" type="move" name="top"/>
    </contour>
  </outline>
</glyph>
<glyph name="alefabove-ar" format="1">
  <advance width="0"/>
  <unicode hex="0670"/>
  <outline>
    <contour>
      <point x="20" y="369" type="line" name="hr00"/>
      <point x="70" y="369" type="line"/>
      <point x="70" y="540" type="line"/>
      <point x="20" y="540" type="line"/>
    </contour>
    <contour>
      <point x="45.0" y="289.0" type="move" name="_top"/>
    </contour>
    <contour>
      <point x="45.0" y="540.0" type="move" name="top"/>
    </contour>
  </outline>
</glyph>
<glyph name="alefWasla-ar" format="1">
  <advance width="224"/>
  <unicode hex="0671"/>
  <outline>
    <component base="alef-ar.short"/>
    <component base="wasla-ar" xOffset="-34" yOffset="329"/>
    <contour>
      <point x="112.0" y="0.0" type="move" name="bottom"/>
    </contour>
  </outline>
</glyph>
<glyph name="dyeh-ar" format="1">
  <advance width="591"/>
  <unicode hex="0684"/>
  <outline>
    <component base="hah-ar"/>
    <component base="twodotsverticalcenter-ar" xOffset="125" yOffset="-471"/>
    <contour>
      <point x="332.0" y="-304.0" type="move" name="bottom"/>
    </contour>
    <contour>
      <point x="319.0" y="11.0" type="move" name="center"/>
    </contour>
    <contour>
      <point x="300.0" y="424.0" type="move" name="top"/>
    </contour>
  </outline>
</glyph>
<glyph name="dalRing-ar" format="1">
  <advance width="468"/>
  <unicode hex="0689"/>
  <outline>
    <contour>
      <point x="113" y="0" type="curve" name="hr00"/>
      <point x="151" y="0" type="line"/>
      <point x="146" y="-12"/>
      <point x="143" y="-26"/>
      <point x="143" y="-42" type="curve" smooth="yes"/>
      <point x="143" y="-99"/>
      <point x="185" y="-142"/>
      <point x="240" y="-142" type="curve" smooth="yes"/>
      <point x="295" y="-142"/>
      <point x="336" y="-99"/>
      <point x="336" y="-42" type="curve" smooth="yes"/>
      <point x="336" y="-23"/>
      <point x="331" y="-6"/>
      <point x="323" y="9" type="curve"/>
      <point x="391" y="29"/>
      <point x="429" y="82"/>
      <point x="429" y="157" type="curve" smooth="yes"/>
      <point x="429" y="234"/>
      <point x="401" y="292"/>
      <point x="322" y="384" type="curve" smooth="yes"/>
      <point x="222" y="499" type="line"/>
      <point x="157" y="437" type="line"/>
      <point x="262" y="322" type="line"/>
      <point x="333" y="251"/>
      <point x="358" y="210"/>
      <point x="358" y="164" type="curve" smooth="yes"/>
      <point x="358" y="124"/>
      <point x="339" y="86"/>
      <point x="265" y="86" type="curve" smooth="yes"/>
      <point x="100" y="86" type="line"/>
      <point x="100" y="162" type="line"/>
      <point x="30" y="162" type="line"/>
      <point x="30" y="85" type="line" smooth="yes"/>
      <point x="30" y="30"/>
      <point x="65" y="0"/>
    </contour>
    <contour>
      <point x="240" y="-84" type="curve" smooth="yes"/>
      <point x="213" y="-84"/>
      <point x="193" y="-66"/>
      <point x="193" y="-42" type="curve" smooth="yes"/>
      <point x="193" y="-18"/>
      <point x="213" y="0"/>
      <point x="240" y="0" type="curve" smooth="yes"/>
      <point x="266" y="0"/>
      <point x="286" y="-18"/>
      <point x="286" y="-42" type="curve" smooth="yes"/>
      <point x="286" y="-66"/>
      <point x="266" y="-84"/>
    </contour>
  </outline>
</glyph>
<glyph name="dahal-ar" format="1">
  <advance width="468"/>
  <unicode hex="068C"/>
  <outline>
    <component base="dal-ar"/>
    <component base="twodotshorizontalabove-ar" xOffset="78" yOffset="240"/>
    <contour>
      <point x="230.0" y="0.0" type="move" name="bottom"/>
    </contour>
    <contour>
      <point x="240.0" y="0.0" type="move" name="ring"/>
    </contour>
    <contour>
      <point x="210.0" y="489.0" type="move" name="top"/>
    </contour>
  </outline>
</glyph>
<glyph name="dalFourdots-ar" format="1">
  <advance width="468"/>
  <unicode hex="0690"/>
  <outline>
    <component base="dal-ar"/>
    <component base="fourdotsabove-ar" xOffset="81" yOffset="240"/>
    <contour>
      <point x="230.0" y="0.0" type="move" name="bottom"/>
    </contour>
    <contour>
      <point x="240.0" y="0.0" type="move" name="ring"/>
    </contour>
    <contour>
      <point x="210.0" y="489.0" type="move" name="top"/>
    </contour>
  </outline>
</glyph>
<glyph name="rehRing-ar" format="1">
  <advance width="265"/>
  <unicode hex="0693"/>
  <outline>
    <contour>
      <point x="84" y="-369" type="curve" smooth="yes"/>
      <point x="139" y="-369"/>
      <point x="180" y="-326"/>
      <point x="180" y="-269" type="curve" smooth="yes"/>
      <point x="180" y="-235"/>
      <point x="165" y="-206"/>
      <point x="142" y="-188" type="curve"/>
      <point x="203" y="-136"/>
      <point x="225" y="-51"/>
      <point x="225" y="39" type="curve" smooth="yes" name="hr01"/>
      <point x="225" y="95"/>
      <point x="220" y="150"/>
      <point x="209" y="213" type="curve" smooth="yes"/>
      <point x="196" y="289" type="line"/>
      <point x="126" y="275" type="line"/>
      <point x="147" y="162" type="line" smooth="yes"/>
      <point x="154" y="124"/>
      <point x="158" y="80"/>
      <point x="158" y="41" type="curve" smooth="yes"/>
      <point x="158" y="-63"/>
      <point x="123" y="-154"/>
      <point x="-23" y="-154" type="curve" smooth="yes"/>
      <point x="-60" y="-154" type="line"/>
      <point x="-60" y="-240" type="line"/>
      <point x="-9" y="-240" type="line"/>
      <point x="-12" y="-249"/>
      <point x="-13" y="-259"/>
      <point x="-13" y="-269" type="curve" smooth="yes"/>
      <point x="-13" y="-326"/>
      <point x="29" y="-369"/>
    </contour>
    <contour>
      <point x="84" y="-311" type="curve" smooth="yes"/>
      <point x="57" y="-311"/>
      <point x="37" y="-293"/>
      <point x="37" y="-269" type="curve" smooth="yes"/>
      <point x="37" y="-245"/>
      <point x="57" y="-227"/>
      <point x="84" y="-227" type="curve" smooth="yes"/>
      <point x="110" y="-227"/>
      <point x="130" y="-245"/>
      <point x="130" y="-269" type="curve" smooth="yes" name="hr02"/>
      <point x="130" y="-293"/>
      <point x="110" y="-311"/>
    </contour>
  </outline>
</glyph>
<glyph name="sadTwodotsbelow-ar" format="1">
  <advance width="1248"/>
  <unicode hex="069D"/>
  <outline>
    <component base="sad-ar"/>
    <component base="twodotshorizontalbelow-ar" xOffset="188" yOffset="-810"/>
    <contour>
      <point x="317.0" y="-240.0" type="move" name="bottom"/>
    </contour>
    <contour>
      <point x="969.0" y="410.0" type="move" name="top"/>
    </contour>
  </outline>
</glyph>
<glyph name="fehDotless-ar" format="1">
  <advance width="901"/>
  <unicode hex="06A1"/>
  <outline>
    <contour>
      <point x="418" y="-12" type="curve" smooth="yes" name="hr00"/>
      <point x="774" y="-12"/>
      <point x="856" y="44"/>
      <point x="856" y="270" type="curve" smooth="yes"/>
      <point x="856" y="447"/>
      <point x="786" y="552"/>
      <point x="672" y="552" type="curve" smooth="yes"/>
      <point x="566" y="552"/>
      <point x="490" y="455"/>
      <point x="490" y="338" type="curve" smooth="yes"/>
      <point x="490" y="239"/>
      <point x="552" y="181"/>
      <point x="658" y="181" type="curve" smooth="yes"/>
      <point x="716" y="181"/>
      <point x="762" y="208"/>
      <point x="781" y="252" type="curve"/>
      <point x="786" y="252" type="line"/>
      <point x="786" y="220" type="line" smooth="yes"/>
      <point x="786" y="113"/>
      <point x="729" y="86"/>
      <point x="508" y="86" type="curve" smooth="yes"/>
      <point x="348" y="86" type="line" smooth="yes"/>
      <point x="183" y="86"/>
      <point x="107" y="123"/>
      <point x="107" y="204" type="curve" smooth="yes"/>
      <point x="107" y="246"/>
      <point x="120" y="292"/>
      <point x="148" y="350" type="curve"/>
      <point x="86" y="369" type="line"/>
      <point x="57" y="302"/>
      <point x="43" y="247"/>
      <point x="43" y="194" type="curve" smooth="yes"/>
      <point x="43" y="42"/>
      <point x="139" y="-12"/>
    </contour>
    <contour>
      <point x="678" y="269" type="curve"/>
      <point x="658" y="269" type="line" smooth="yes"/>
      <point x="591" y="269"/>
      <point x="560" y="293"/>
      <point x="560" y="348" type="curve" smooth="yes"/>
      <point x="560" y="418"/>
      <point x="598" y="466"/>
      <point x="666" y="466" type="curve" smooth="yes"/>
      <point x="737" y="466"/>
      <point x="783" y="401"/>
      <point x="786" y="300" type="curve"/>
      <point x="767" y="279"/>
      <point x="735" y="269"/>
    </contour>
    <contour>
      <point x="418.0" y="-12.0" type="move" name="bottom"/>
    </contour>
    <contour>
      <point x="672.0" y="552.0" type="move" name="top"/>
    </contour>
  </outline>
</glyph>
<glyph name="fehDotbelow-ar" format="1">
  <advance width="901"/>
  <unicode hex="06A3"/>
  <outline>
    <component base="fehDotless-ar"/>
    <component base="dotabove-ar" xOffset="607" yOffset="303"/>
    <component base="dotbelow-ar" xOffset="353" yOffset="-582"/>
    <contour>
      <point x="418.0" y="-12.0" type="move" name="bottom"/>
    </contour>
    <contour>
      <point x="672.0" y="552.0" type="move" name="top"/>
    </contour>
  </outline>
</glyph>
<glyph name="fehThreedotsbelow-ar" format="1">
  <advance width="901"/>
  <unicode hex="06A5"/>
  <outline>
    <component base="fehDotless-ar"/>
    <component base="threedotsdownbelow-ar" xOffset="286" yOffset="-699"/>
    <contour>
      <point x="418.0" y="-12.0" type="move" name="bottom"/>
    </contour>
    <contour>
      <point x="672.0" y="552.0" type="move" name="top"/>
    </contour>
  </outline>
</glyph>
<glyph name="peheh-ar" format="1">
  <advance width="901"/>
  <unicode hex="06A6"/>
  <outline>
    <component base="fehDotless-ar"/>
    <component base="fourdotsabove-ar" xOffset="543" yOffset="303"/>
    <contour>
      <point x="418.0" y="-12.0" type="move" name="bottom"/>
    </contour>
    <contour>
      <point x="672.0" y="552.0" type="move" name="top"/>
    </contour>
  </outline>
</glyph>
<glyph name="qafThreedotsabove-ar" format="1">
  <advance width="716"/>
  <unicode hex="06A8"/>
  <outline>
    <component base="qafDotless-ar"/>
    <component base="threedotsupabove-ar" xOffset="359" yOffset="130"/>
    <contour>
      <point x="332.0" y="-240.0" type="move" name="bottom"/>
    </contour>
    <contour>
      <point x="488.0" y="379.0" type="move" name="top"/>
    </contour>
  </outline>
</glyph>
<glyph name="keheh-ar" format="1">
  <advance width="851"/>
  <unicode hex="06A9"/>
  <outline>
    <contour>
      <point x="418" y="-12" type="curve" smooth="yes" name="hr00"/>
      <point x="697" y="-12"/>
      <point x="794" y="35"/>
      <point x="794" y="171" type="curve" smooth="yes"/>
      <point x="794" y="227"/>
      <point x="765" y="276"/>
      <point x="682" y="356" type="curve" smooth="yes"/>
      <point x="564" y="471" type="line"/>
      <point x="564" y="476" type="line"/>
      <point x="961" y="660" type="line"/>
      <point x="961" y="751" type="line"/>
      <point x="529" y="552" type="line"/>
      <point x="529" y="382" type="line"/>
      <point x="683" y="235" type="line" smooth="yes"/>
      <point x="714" y="206"/>
      <point x="724" y="185"/>
      <point x="724" y="164" type="curve" smooth="yes"/>
      <point x="724" y="106"/>
      <point x="663" y="86"/>
      <point x="488" y="86" type="curve" smooth="yes"/>
      <point x="348" y="86" type="line" smooth="yes"/>
      <point x="183" y="86"/>
      <point x="107" y="123"/>
      <point x="107" y="204" type="curve" smooth="yes"/>
      <point x="107" y="246"/>
      <point x="120" y="292"/>
      <point x="148" y="350" type="curve"/>
      <point x="86" y="369" type="line"/>
      <point x="57" y="302"/>
      <point x="43" y="247"/>
      <point x="43" y="194" type="curve" smooth="yes"/>
      <point x="43" y="42"/>
      <point x="139" y="-12"/>
    </contour>
    <contour>
      <point x="418.0" y="0.0" type="move" name="bottom"/>
    </contour>
    <contour>
      <point x="529.0" y="552.0" type="move" name="kafbar"/>
    </contour>
    <contour>
      <point x="785.0" y="571.0" type="move" name="ring"/>
    </contour>
    <contour>
      <point x="654.0" y="668.0" type="move" name="top"/>
    </contour>
  </outline>
</glyph>
<glyph name="kafswash-ar" format="1">
  <advance width="941"/>
  <unicode hex="06AA"/>
  <outline>
    <contour>
      <point x="40" y="0" type="line" name="hr00"/>
      <point x="837" y="0" type="line"/>
      <point x="896" y="87" type="line"/>
      <point x="896" y="157" type="line" smooth="yes"/>
      <point x="896" y="306"/>
      <point x="828" y="375"/>
      <point x="680" y="375" type="curve" smooth="yes"/>
      <point x="149" y="375" type="line"/>
      <point x="149" y="380" type="line"/>
      <point x="566" y="651" type="line"/>
      <point x="566" y="751" type="line"/>
      <point x="114" y="458" type="line"/>
      <point x="114" y="289" type="line"/>
      <point x="681" y="289" type="line" smooth="yes"/>
      <point x="780" y="289"/>
      <point x="826" y="244"/>
      <point x="826" y="147" type="curve" smooth="yes"/>
      <point x="826" y="86" type="line"/>
      <point x="40" y="86" type="line"/>
    </contour>
  </outline>
</glyph>
<glyph name="kafRing-ar" format="1">
  <advance width="851"/>
  <unicode hex="06AB"/>
  <outline>
    <contour>
      <point x="785" y="429" type="curve" smooth="yes"/>
      <point x="840" y="429"/>
      <point x="881" y="472"/>
      <point x="881" y="529" type="curve" smooth="yes"/>
      <point x="881" y="561"/>
      <point x="868" y="589"/>
      <point x="846" y="607" type="curve"/>
      <point x="961" y="660" type="line"/>
      <point x="961" y="751" type="line"/>
      <point x="529" y="552" type="line"/>
      <point x="529" y="382" type="line"/>
      <point x="683" y="235" type="line" smooth="yes"/>
      <point x="714" y="206"/>
      <point x="724" y="185"/>
      <point x="724" y="164" type="curve" smooth="yes"/>
      <point x="724" y="106"/>
      <point x="663" y="86"/>
      <point x="488" y="86" type="curve" smooth="yes"/>
      <point x="348" y="86" type="line" smooth="yes"/>
      <point x="183" y="86"/>
      <point x="107" y="123"/>
      <point x="107" y="204" type="curve" smooth="yes"/>
      <point x="107" y="246"/>
      <point x="120" y="292"/>
      <point x="148" y="350" type="curve"/>
      <point x="86" y="369" type="line"/>
      <point x="57" y="302"/>
      <point x="43" y="247"/>
      <point x="43" y="194" type="curve" smooth="yes"/>
      <point x="43" y="42"/>
      <point x="139" y="-12"/>
      <point x="418" y="-12" type="curve" smooth="yes"/>
      <point x="697" y="-12"/>
      <point x="794" y="35"/>
      <point x="794" y="171" type="curve" smooth="yes"/>
      <point x="794" y="227"/>
      <point x="765" y="276"/>
      <point x="682" y="356" type="curve" smooth="yes"/>
      <point x="564" y="471" type="line"/>
      <point x="564" y="476" type="line"/>
      <point x="688" y="533" type="line" name="hr01"/>
      <point x="688" y="529" type="line" smooth="yes"/>
      <point x="688" y="472"/>
      <point x="730" y="429"/>
    </contour>
    <contour>
      <point x="785" y="487" type="curve" smooth="yes"/>
      <point x="758" y="487"/>
      <point x="738" y="505"/>
      <point x="738" y="529" type="curve" smooth="yes"/>
      <point x="738" y="553"/>
      <point x="758" y="571"/>
      <point x="785" y="571" type="curve" smooth="yes"/>
      <point x="811" y="571"/>
      <point x="831" y="553"/>
      <point x="831" y="529" type="curve" smooth="yes"/>
      <point x="831" y="505"/>
      <point x="811" y="487"/>
    </contour>
  </outline>
</glyph>
<glyph name="kafDotabove-ar" format="1">
  <advance width="751"/>
  <unicode hex="06AC"/>
  <outline>
    <component base="kaf-ar"/>
    <component base="dotabove-ar" xOffset="292" yOffset="267"/>
    <contour>
      <point x="356.0" y="0.0" type="move" name="bottom"/>
    </contour>
    <contour>
      <point x="357.0" y="516.0" type="move" name="top"/>
    </contour>
  </outline>
</glyph>
<glyph name="ng-ar" format="1">
  <advance width="751"/>
  <unicode hex="06AD"/>
  <outline>
    <component base="kaf-ar"/>
    <component base="threedotsupabove-ar" xOffset="228" yOffset="267"/>
    <contour>
      <point x="356.0" y="0.0" type="move" name="bottom"/>
    </contour>
    <contour>
      <point x="357.0" y="516.0" type="move" name="top"/>
    </contour>
  </outline>
</glyph>
<glyph name="kafThreedotsbelow-ar" format="1">
  <advance width="751"/>
  <unicode hex="06AE"/>
  <outline>
    <component base="kaf-ar"/>
    <component base="threedotsdownbelow-ar" xOffset="224" yOffset="-687"/>
    <contour>
      <point x="356.0" y="0.0" type="move" name="bottom"/>
    </contour>
    <contour>
      <point x="357.0" y="516.0" type="move" name="top"/>
    </contour>
  </outline>
</glyph>
<glyph name="gafRing-ar" format="1">
  <advance width="851"/>
  <unicode hex="06B0"/>
  <outline>
    <component base="kafRing-ar"/>
    <component base="comp.kafbar-ar" xOffset="509" yOffset="22"/>
    <contour>
      <point x="529.0" y="552.0" type="move" name="_kafbar"/>
    </contour>
    <contour>
      <point x="529.0" y="720.0" type="move" name="top"/>
    </contour>
  </outline>
</glyph>
<glyph name="gueh-ar" format="1">
  <advance width="851"/>
  <unicode hex="06B3"/>
  <outline>
    <component base="keheh-ar"/>
    <component base="comp.kafbar-ar" xOffset="509" yOffset="22"/>
    <component base="twodotsverticalbelow-ar" xOffset="224" yOffset="-648"/>
    <contour>
      <point x="418.0" y="0.0" type="move" name="bottom"/>
    </contour>
    <contour>
      <point x="785.0" y="571.0" type="move" name="ring"/>
    </contour>
    <contour>
      <point x="654.0" y="668.0" type="move" name="top"/>
    </contour>
  </outline>
</glyph>
<glyph name="lamThreedotsbelow-ar" format="1">
  <advance width="655"/>
  <unicode hex="06B8"/>
  <outline>
    <component base="lam-ar"/>
    <component base="threedotsdownbelow-ar" xOffset="174" yOffset="-927"/>
    <contour>
      <point x="543.0" y="424.0" type="move" name="bar"/>
    </contour>
    <contour>
      <point x="306.0" y="-240.0" type="move" name="bottom"/>
    </contour>
    <contour>
      <point x="279.0" y="516.0" type="move" name="top"/>
    </contour>
  </outline>
</glyph>
<glyph name="noonghunna-ar" format="1">
  <advance width="657"/>
  <unicode hex="06BA"/>
  <outline>
    <contour>
      <point x="317" y="-160" type="curve" smooth="yes" name="hr00"/>
      <point x="525" y="-160"/>
      <point x="620" y="-76"/>
      <point x="620" y="106" type="curve" smooth="yes"/>
      <point x="620" y="150"/>
      <point x="614" y="196"/>
      <point x="598" y="285" type="curve" smooth="yes"/>
      <point x="583" y="368" type="line"/>
      <point x="513" y="354" type="line"/>
      <point x="530" y="271" type="line" smooth="yes"/>
      <point x="547" y="190"/>
      <point x="552" y="148"/>
      <point x="552" y="106" type="curve" smooth="yes"/>
      <point x="552" y="-15"/>
      <point x="488" y="-70"/>
      <point x="347" y="-70" type="curve" smooth="yes"/>
      <point x="287" y="-70" type="line" smooth="yes"/>
      <point x="174" y="-70"/>
      <point x="106" y="-4"/>
      <point x="106" y="109" type="curve" smooth="yes"/>
      <point x="106" y="159"/>
      <point x="124" y="219"/>
      <point x="149" y="271" type="curve"/>
      <point x="87" y="290" type="line"/>
      <point x="58" y="222"/>
      <point x="40" y="151"/>
      <point x="40" y="90" type="curve" smooth="yes"/>
      <point x="40" y="-67"/>
      <point x="143" y="-160"/>
    </contour>
    <contour>
      <point x="317.0" y="-160.0" type="move" name="bottom"/>
    </contour>
    <contour>
      <point x="337.0" y="271.0" type="move" name="top"/>
    </contour>
  </outline>
</glyph>
<glyph name="rnoon-ar" format="1">
  <advance width="657"/>
  <unicode hex="06BB"/>
  <outline>
    <component base="noonghunna-ar"/>
    <component base="tahabove-ar" xOffset="206" yOffset="-18"/>
    <contour>
      <point x="317.0" y="-160.0" type="move" name="bottom"/>
    </contour>
    <contour>
      <point x="337.0" y="271.0" type="move" name="top"/>
    </contour>
  </outline>
</glyph>
<glyph name="noonRing-ar" format="1">
  <advance width="657"/>
  <unicode hex="06BC"/>
  <outline>
    <contour>
      <point x="317" y="-302" type="curve" smooth="yes"/>
      <point x="372" y="-302"/>
      <point x="413" y="-259"/>
      <point x="413" y="-202" type="curve" smooth="yes"/>
      <point x="413" y="-184"/>
      <point x="409" y="-168"/>
      <point x="402" y="-154" type="curve"/>
      <point x="551" y="-133"/>
      <point x="620" y="-49"/>
      <point x="620" y="106" type="curve" smooth="yes"/>
      <point x="620" y="150"/>
      <point x="614" y="196"/>
      <point x="598" y="285" type="curve" smooth="yes"/>
      <point x="583" y="368" type="line"/>
      <point x="513" y="354" type="line"/>
      <point x="530" y="271" type="line" smooth="yes"/>
      <point x="547" y="190"/>
      <point x="552" y="148"/>
      <point x="552" y="106" type="curve" smooth="yes"/>
      <point x="552" y="-15"/>
      <point x="488" y="-70"/>
      <point x="347" y="-70" type="curve" smooth="yes"/>
      <point x="287" y="-70" type="line" smooth="yes" name="hr01"/>
      <point x="174" y="-70"/>
      <point x="106" y="-4"/>
      <point x="106" y="109" type="curve" smooth="yes"/>
      <point x="106" y="159"/>
      <point x="124" y="219"/>
      <point x="149" y="271" type="curve"/>
      <point x="87" y="290" type="line"/>
      <point x="58" y="222"/>
      <point x="40" y="151"/>
      <point x="40" y="90" type="curve" smooth="yes"/>
      <point x="40" y="-39"/>
      <point x="110" y="-125"/>
      <point x="232" y="-151" type="curve"/>
      <point x="224" y="-166"/>
      <point x="220" y="-183"/>
      <point x="220" y="-202" type="curve" smooth="yes"/>
      <point x="220" y="-259"/>
      <point x="262" y="-302"/>
    </contour>
    <contour>
      <point x="331" y="391" type="curve"/>
      <point x="342" y="391" type="line" smooth="yes"/>
      <point x="368" y="391"/>
      <point x="386" y="406"/>
      <point x="386" y="440" type="curve" smooth="yes"/>
      <point x="386" y="474"/>
      <point x="368" y="489"/>
      <point x="342" y="489" type="curve" smooth="yes"/>
      <point x="331" y="489" type="line" smooth="yes"/>
      <point x="304" y="489"/>
      <point x="287" y="474"/>
      <point x="287" y="440" type="curve" smooth="yes"/>
      <point x="287" y="406"/>
      <point x="304" y="391"/>
    </contour>
    <contour>
      <point x="317" y="-244" type="curve" smooth="yes"/>
      <point x="290" y="-244"/>
      <point x="270" y="-226"/>
      <point x="270" y="-202" type="curve" smooth="yes"/>
      <point x="270" y="-178"/>
      <point x="290" y="-160"/>
      <point x="317" y="-160" type="curve" smooth="yes"/>
      <point x="343" y="-160"/>
      <point x="363" y="-178"/>
      <point x="363" y="-202" type="curve" smooth="yes" name="hr02"/>
      <point x="363" y="-226"/>
      <point x="343" y="-244"/>
    </contour>
  </outline>
</glyph>
<glyph name="hehDoachashmee-ar" format="1">
  <advance width="702"/>
  <unicode hex="06BE"/>
  <outline>
    <contour>
      <point x="221" y="86" type="line" name="hr00"/>
      <point x="40" y="86" type="line"/>
      <point x="40" y="0" type="line"/>
      <point x="76" y="0" type="line" smooth="yes"/>
      <point x="175" y="0"/>
      <point x="231" y="9"/>
      <point x="297" y="46" type="curve"/>
      <point x="352" y="15"/>
      <point x="416" y="0"/>
      <point x="484" y="0" type="curve" smooth="yes"/>
      <point x="598" y="0" type="line"/>
      <point x="657" y="87" type="line"/>
      <point x="657" y="107" type="line" smooth="yes"/>
      <point x="657" y="266"/>
      <point x="604" y="351"/>
      <point x="465" y="436" type="curve" smooth="yes"/>
      <point x="314" y="528" type="line"/>
      <point x="278" y="468" type="line"/>
      <point x="191" y="457"/>
      <point x="121" y="374"/>
      <point x="121" y="275" type="curve" smooth="yes"/>
      <point x="121" y="207"/>
      <point x="158" y="140"/>
      <point x="223" y="90" type="curve"/>
    </contour>
    <contour>
      <point x="297" y="116" type="curve"/>
      <point x="233" y="153"/>
      <point x="191" y="214"/>
      <point x="191" y="275" type="curve" smooth="yes"/>
      <point x="191" y="347"/>
      <point x="231" y="393"/>
      <point x="292" y="393" type="curve" smooth="yes"/>
      <point x="302" y="393" type="line" smooth="yes"/>
      <point x="363" y="393"/>
      <point x="403" y="347"/>
      <point x="403" y="275" type="curve" smooth="yes"/>
      <point x="403" y="214"/>
      <point x="361" y="153"/>
    </contour>
    <contour>
      <point x="464" y="345" type="line"/>
      <point x="550" y="286"/>
      <point x="587" y="217"/>
      <point x="587" y="97" type="curve" smooth="yes"/>
      <point x="587" y="86" type="line"/>
      <point x="373" y="86" type="line"/>
      <point x="371" y="90" type="line"/>
      <point x="436" y="140"/>
      <point x="473" y="207"/>
      <point x="473" y="275" type="curve" smooth="yes"/>
      <point x="473" y="298"/>
      <point x="469" y="321"/>
      <point x="461" y="342" type="curve"/>
    </contour>
    <contour>
      <point x="297.0" y="0.0" type="move" name="bottom"/>
    </contour>
    <contour>
      <point x="297.0" y="469.0" type="move" name="top"/>
    </contour>
  </outline>
</glyph>
<glyph name="tchehDotabove-ar" format="1">
  <advance width="591"/>
  <unicode hex="06BF"/>
  <outline>
    <component base="hah-ar"/>
    <component base="threedotsdowncenter-ar" xOffset="187" yOffset="-493"/>
    <component base="dotabove-ar" xOffset="235" yOffset="175"/>
    <contour>
      <point x="332.0" y="-304.0" type="move" name="bottom"/>
    </contour>
    <contour>
      <point x="319.0" y="11.0" type="move" name="center"/>
    </contour>
    <contour>
      <point x="300.0" y="424.0" type="move" name="top"/>
    </contour>
  </outline>
</glyph>
<glyph name="kirghizoe-ar" format="1">
  <advance width="455"/>
  <unicode hex="06C5"/>
  <outline>
    <contour>
      <point x="34" y="-109" type="line" name="hr00"/>
      <point x="271" y="-109" type="line"/>
      <point x="232" y="-138"/>
      <point x="176" y="-154"/>
      <point x="103" y="-154" type="curve" smooth="yes"/>
      <point x="34" y="-154" type="line"/>
      <point x="34" y="-240" type="line"/>
      <point x="103" y="-240" type="line" smooth="yes"/>
      <point x="328" y="-240"/>
      <point x="410" y="-95"/>
      <point x="410" y="97" type="curve" smooth="yes"/>
      <point x="410" y="274"/>
      <point x="340" y="379"/>
      <point x="226" y="379" type="curve" smooth="yes"/>
      <point x="120" y="379"/>
      <point x="44" y="280"/>
      <point x="44" y="160" type="curve" smooth="yes"/>
      <point x="44" y="58"/>
      <point x="106" y="-2"/>
      <point x="212" y="-2" type="curve" smooth="yes"/>
      <point x="270" y="-2"/>
      <point x="316" y="25"/>
      <point x="335" y="69" type="curve"/>
      <point x="340" y="69" type="line"/>
      <point x="340" y="47" type="line" smooth="yes"/>
      <point x="340" y="12"/>
      <point x="334" y="-18"/>
      <point x="322" y="-45" type="curve"/>
      <point x="34" y="-45" type="line"/>
    </contour>
    <contour>
      <point x="232" y="86" type="curve"/>
      <point x="212" y="86" type="line" smooth="yes"/>
      <point x="145" y="86"/>
      <point x="114" y="112"/>
      <point x="114" y="170" type="curve" smooth="yes"/>
      <point x="114" y="243"/>
      <point x="152" y="293"/>
      <point x="220" y="293" type="curve" smooth="yes"/>
      <point x="294" y="293"/>
      <point x="340" y="224"/>
      <point x="340" y="117" type="curve"/>
      <point x="321" y="96"/>
      <point x="289" y="86"/>
    </contour>
    <contour>
      <point x="348.0" y="-78.0" type="move" name="bar"/>
    </contour>
    <contour>
      <point x="173.0" y="-240.0" type="move" name="bottom"/>
    </contour>
    <contour>
      <point x="82.0" y="-59.0" type="move" name="center"/>
    </contour>
    <contour>
      <point x="341.0" y="379.0" type="move" name="high"/>
    </contour>
    <contour>
      <point x="164.0" y="-71.0" type="move" name="ring"/>
    </contour>
    <contour>
      <point x="225.0" y="379.0" type="move" name="top"/>
    </contour>
  </outline>
</glyph>
<glyph name="yehTail-ar" format="1">
  <advance width="726"/>
  <unicode hex="06CD"/>
  <outline>
    <contour>
      <point x="-91" y="191" type="line" name="hr00"/>
      <point x="79" y="191" type="line"/>
      <point x="54" y="129"/>
      <point x="40" y="65"/>
      <point x="40" y="10" type="curve" smooth="yes"/>
      <point x="40" y="-147"/>
      <point x="154" y="-240"/>
      <point x="347" y="-240" type="curve" smooth="yes"/>
      <point x="566" y="-240"/>
      <point x="696" y="-143"/>
      <point x="696" y="22" type="curve" smooth="yes"/>
      <point x="696" y="78"/>
      <point x="669" y="110"/>
      <point x="609" y="124" type="curve" smooth="yes"/>
      <point x="473" y="156" type="line" smooth="yes"/>
      <point x="402" y="173"/>
      <point x="370" y="199"/>
      <point x="370" y="240" type="curve" smooth="yes"/>
      <point x="370" y="324"/>
      <point x="435" y="393"/>
      <point x="513" y="393" type="curve" smooth="yes"/>
      <point x="556" y="393"/>
      <point x="588" y="374"/>
      <point x="616" y="331" type="curve"/>
      <point x="676" y="389" type="line"/>
      <point x="643" y="446"/>
      <point x="594" y="479"/>
      <point x="523" y="479" type="curve" smooth="yes"/>
      <point x="410" y="479"/>
      <point x="303" y="354"/>
      <point x="303" y="227" type="curve" smooth="yes"/>
      <point x="303" y="145"/>
      <point x="355" y="95"/>
      <point x="470" y="69" type="curve" smooth="yes"/>
      <point x="630" y="33" type="line"/>
      <point x="630" y="22" type="line" smooth="yes"/>
      <point x="630" y="-86"/>
      <point x="536" y="-150"/>
      <point x="377" y="-150" type="curve" smooth="yes"/>
      <point x="317" y="-150" type="line" smooth="yes"/>
      <point x="185" y="-150"/>
      <point x="106" y="-84"/>
      <point x="106" y="29" type="curve" smooth="yes"/>
      <point x="106" y="79"/>
      <point x="124" y="139"/>
      <point x="149" y="191" type="curve"/>
      <point x="149" y="255" type="line"/>
      <point x="-91" y="255" type="line"/>
    </contour>
    <contour>
      <point x="29.0" y="222.0" type="move" name="_bar"/>
    </contour>
    <contour>
      <point x="347.0" y="-240.0" type="move" name="bottom"/>
    </contour>
    <contour>
      <point x="523.0" y="479.0" type="move" name="high"/>
    </contour>
    <contour>
      <point x="347.0" y="-240.0" type="move" name="ring"/>
    </contour>
    <contour>
      <point x="118.0" y="191.0" type="move" name="top"/>
    </contour>
  </outline>
</glyph>
<glyph name="yehVabove-ar" format="1">
  <advance width="726"/>
  <unicode hex="06CE"/>
  <outline>
    <component base="alefMaksura-ar"/>
    <component base="vabove-ar" xOffset="-7" yOffset="-98"/>
    <contour>
      <point x="347.0" y="-240.0" type="move" name="bottom"/>
    </contour>
    <contour>
      <point x="523.0" y="479.0" type="move" name="high"/>
    </contour>
    <contour>
      <point x="347.0" y="-240.0" type="move" name="ring"/>
    </contour>
    <contour>
      <point x="149.0" y="191.0" type="move" name="tail"/>
    </contour>
    <contour>
      <point x="118.0" y="191.0" type="move" name="top"/>
    </contour>
  </outline>
</glyph>
<glyph name="ae-ar" format="1">
  <advance width="448"/>
  <unicode hex="06D5"/>
  <outline>
    <component base="heh-ar"/>
    <contour>
      <point x="224.0" y="-9.0" type="move" name="bottom"/>
    </contour>
    <contour>
      <point x="229.0" y="411.0" type="move" name="top"/>
    </contour>
  </outline>
</glyph>
<glyph name="sadLamAlefMaksuraabove-ar" format="1">
  <advance width="0"/>
  <unicode hex="06D6"/>
  <outline>
    <contour>
      <point x="59" y="286" type="curve" name="hr00"/>
      <point x="515" y="286" type="line"/>
      <point x="515" y="346" type="line"/>
      <point x="53" y="346" type="line"/>
      <point x="53" y="349" type="line" smooth="yes"/>
      <point x="53" y="359"/>
      <point x="58" y="363"/>
      <point x="77" y="369" type="curve" smooth="yes"/>
      <point x="107" y="379" type="line" smooth="yes"/>
      <point x="134" y="388"/>
      <point x="145" y="403"/>
      <point x="149" y="435" type="curve"/>
      <point x="152" y="435" type="line"/>
      <point x="157" y="390"/>
      <point x="172" y="369"/>
      <point x="212" y="369" type="curve" smooth="yes"/>
      <point x="243" y="369"/>
      <point x="259" y="385"/>
      <point x="265" y="418" type="curve"/>
      <point x="268" y="418" type="line"/>
      <point x="275" y="377"/>
      <point x="303" y="369"/>
      <point x="332" y="369" type="curve" smooth="yes"/>
      <point x="434" y="369" type="line" smooth="yes"/>
      <point x="480" y="369"/>
      <point x="526" y="381"/>
      <point x="526" y="451" type="curve" smooth="yes"/>
      <point x="526" y="502"/>
      <point x="497" y="534"/>
      <point x="442" y="534" type="curve" smooth="yes"/>
      <point x="385" y="534"/>
      <point x="366" y="507"/>
      <point x="339" y="459" type="curve" smooth="yes"/>
      <point x="322" y="429" type="line"/>
      <point x="312" y="432"/>
      <point x="307" y="440"/>
      <point x="307" y="455" type="curve" smooth="yes"/>
      <point x="307" y="479" type="line"/>
      <point x="264" y="479" type="line"/>
      <point x="264" y="455" type="line" smooth="yes"/>
      <point x="264" y="437"/>
      <point x="254" y="429"/>
      <point x="232" y="429" type="curve" smooth="yes"/>
      <point x="221" y="429" type="line" smooth="yes"/>
      <point x="200" y="429"/>
      <point x="190" y="437"/>
      <point x="190" y="455" type="curve" smooth="yes"/>
      <point x="190" y="626" type="line"/>
      <point x="147" y="626" type="line"/>
      <point x="147" y="469" type="line" smooth="yes"/>
      <point x="147" y="456"/>
      <point x="139" y="450"/>
      <point x="124" y="445" type="curve" smooth="yes"/>
      <point x="81" y="431" type="line" smooth="yes"/>
      <point x="32" y="415"/>
      <point x="10" y="390"/>
      <point x="10" y="351" type="curve" smooth="yes"/>
      <point x="10" y="334" type="line" smooth="yes"/>
      <point x="10" y="304"/>
      <point x="29" y="286"/>
    </contour>
    <contour>
      <point x="372" y="446" type="line" smooth="yes"/>
      <point x="385" y="468"/>
      <point x="398" y="474"/>
      <point x="437" y="474" type="curve" smooth="yes"/>
      <point x="447" y="474" type="line" smooth="yes"/>
      <point x="467" y="474"/>
      <point x="487" y="470"/>
      <point x="487" y="451" type="curve" smooth="yes"/>
      <point x="487" y="430"/>
      <point x="466" y="429"/>
      <point x="434" y="429" type="curve" smooth="yes"/>
      <point x="364" y="429" type="line"/>
      <point x="363" y="431" type="line"/>
    </contour>
    <contour>
      <point x="268.0" y="249.0" type="move" name="_top"/>
    </contour>
    <contour>
      <point x="268.0" y="626.0" type="move" name="top"/>
    </contour>
  </outline>
</glyph>
<glyph name="qafLamAlefMaksuraabove-ar" format="1">
  <advance width="0"/>
  <unicode hex="06D7"/>
  <outline>
    <contour>
      <point x="59" y="286" type="curve"/>
      <point x="368" y="286" type="line"/>
      <point x="368" y="346" type="line"/>
      <point x="53" y="346" type="line"/>
      <point x="53" y="349" type="line" smooth="yes"/>
      <point x="53" y="359"/>
      <point x="58" y="363"/>
      <point x="77" y="369" type="curve" smooth="yes"/>
      <point x="107" y="379" type="line" smooth="yes"/>
      <point x="134" y="388"/>
      <point x="145" y="403"/>
      <point x="149" y="435" type="curve"/>
      <point x="152" y="435" type="line"/>
      <point x="157" y="390"/>
      <point x="172" y="369"/>
      <point x="212" y="369" type="curve" smooth="yes"/>
      <point x="289" y="369" type="line" smooth="yes"/>
      <point x="331" y="369"/>
      <point x="378" y="374"/>
      <point x="378" y="477" type="curve" smooth="yes"/>
      <point x="378" y="544"/>
      <point x="351" y="585"/>
      <point x="305" y="585" type="curve" smooth="yes"/>
      <point x="264" y="585"/>
      <point x="232" y="549"/>
      <point x="232" y="501" type="curve" smooth="yes"/>
      <point x="232" y="466"/>
      <point x="254" y="445"/>
      <point x="289" y="445" type="curve" smooth="yes"/>
      <point x="316" y="445"/>
      <point x="331" y="456"/>
      <point x="336" y="476" type="curve"/>
      <point x="338" y="476" type="line"/>
      <point x="338" y="459" type="line" smooth="yes"/>
      <point x="338" y="429"/>
      <point x="306" y="429"/>
      <point x="289" y="429" type="curve" smooth="yes"/>
      <point x="221" y="429" type="line" smooth="yes"/>
      <point x="200" y="429"/>
      <point x="190" y="437"/>
      <point x="190" y="455" type="curve" smooth="yes"/>
      <point x="190" y="626" type="line"/>
      <point x="147" y="626" type="line"/>
      <point x="147" y="469" type="line" smooth="yes"/>
      <point x="147" y="456"/>
      <point x="139" y="450"/>
      <point x="124" y="445" type="curve" smooth="yes"/>
      <point x="81" y="431" type="line" smooth="yes"/>
      <point x="32" y="415"/>
      <point x="10" y="390"/>
      <point x="10" y="351" type="curve" smooth="yes"/>
      <point x="10" y="334" type="line" smooth="yes"/>
      <point x="10" y="304"/>
      <point x="29" y="286"/>
    </contour>
    <contour>
      <point x="268" y="611" type="curve"/>
      <point x="276" y="611" type="line" smooth="yes"/>
      <point x="288" y="611"/>
      <point x="299" y="619"/>
      <point x="299" y="637" type="curve" smooth="yes" name="hr01"/>
      <point x="299" y="655"/>
      <point x="288" y="663"/>
      <point x="276" y="663" type="curve" smooth="yes"/>
      <point x="268" y="663" type="line" smooth="yes"/>
      <point x="255" y="663"/>
      <point x="244" y="655"/>
      <point x="244" y="637" type="curve" smooth="yes"/>
      <point x="244" y="620"/>
      <point x="255" y="611"/>
    </contour>
    <contour>
      <point x="329" y="611" type="curve"/>
      <point x="336" y="611" type="line" smooth="yes"/>
      <point x="349" y="611"/>
      <point x="360" y="619"/>
      <point x="360" y="637" type="curve" smooth="yes"/>
      <point x="360" y="655"/>
      <point x="349" y="663"/>
      <point x="336" y="663" type="curve" smooth="yes"/>
      <point x="329" y="663" type="line" smooth="yes"/>
      <point x="316" y="663"/>
      <point x="306" y="655"/>
      <point x="306" y="637" type="curve" smooth="yes"/>
      <point x="306" y="620"/>
      <point x="316" y="611"/>
    </contour>
    <contour>
      <point x="304" y="497" type="curve"/>
      <point x="296" y="497" type="line" smooth="yes"/>
      <point x="284" y="497"/>
      <point x="271" y="499"/>
      <point x="271" y="509" type="curve" smooth="yes" name="hr02"/>
      <point x="271" y="520"/>
      <point x="284" y="528"/>
      <point x="300" y="528" type="curve" smooth="yes"/>
      <point x="317" y="528"/>
      <point x="332" y="517"/>
      <point x="336" y="499" type="curve"/>
      <point x="330" y="497"/>
      <point x="321" y="497"/>
    </contour>
    <contour>
      <point x="194.0" y="249.0" type="move" name="_top"/>
    </contour>
    <contour>
      <point x="194.0" y="663.0" type="move" name="top"/>
    </contour>
  </outline>
</glyph>
<glyph name="lamAlefabove-ar" format="1">
  <advance width="0"/>
  <unicode hex="06D9"/>
  <outline>
    <contour>
      <point x="16" y="369" type="line"/>
      <point x="121" y="369" type="line" smooth="yes"/>
      <point x="152" y="369"/>
      <point x="176" y="394"/>
      <point x="176" y="425" type="curve" smooth="yes"/>
      <point x="176" y="450"/>
      <point x="167" y="465"/>
      <point x="146" y="483" type="curve" smooth="yes"/>
      <point x="140" y="488" type="line"/>
      <point x="163" y="509"/>
      <point x="167" y="525"/>
      <point x="167" y="547" type="curve" smooth="yes" name="hr01"/>
      <point x="167" y="626" type="line"/>
      <point x="119" y="626" type="line"/>
      <point x="119" y="547" type="line" smooth="yes"/>
      <point x="119" y="528"/>
      <point x="116" y="520"/>
      <point x="110" y="514" type="curve"/>
      <point x="30" y="583" type="line"/>
      <point x="-3" y="544" type="line"/>
      <point x="72" y="479" type="line"/>
      <point x="16" y="429" type="line"/>
    </contour>
    <contour>
      <point x="132" y="429" type="line" name="hr02"/>
      <point x="70" y="429" type="line"/>
      <point x="70" y="430" type="line"/>
      <point x="101" y="455" type="line"/>
    </contour>
    <contour>
      <point x="86.0" y="280.0" type="move" name="_top"/>
    </contour>
    <contour>
      <point x="87.0" y="626.0" type="move" name="top"/>
    </contour>
  </outline>
</glyph>
<glyph name="endofayah-ar" format="1">
  <advance width="1140"/>
  <unicode hex="06DD"/>
  <outline>
    <contour>
      <point x="570" y="-240" type="curve" smooth="yes" name="hr00"/>
      <point x="861" y="-240"/>
      <point x="1080" y="-21"/>
      <point x="1080" y="270" type="curve" smooth="yes"/>
      <point x="1080" y="561"/>
      <point x="861" y="780"/>
      <point x="570" y="780" type="curve" smooth="yes"/>
      <point x="279" y="780"/>
      <point x="60" y="561"/>
      <point x="60" y="270" type="curve" smooth="yes"/>
      <point x="60" y="-21"/>
      <point x="279" y="-240"/>
    </contour>
    <contour>
      <point x="565" y="-110" type="curve" smooth="yes"/>
      <point x="576" y="-110" type="line" smooth="yes"/>
      <point x="602" y="-110"/>
      <point x="620" y="-95"/>
      <point x="620" y="-61" type="curve" smooth="yes"/>
      <point x="620" y="-27"/>
      <point x="602" y="-12"/>
      <point x="576" y="-12" type="curve" smooth="yes"/>
      <point x="565" y="-12" type="line" smooth="yes"/>
      <point x="538" y="-12"/>
      <point x="521" y="-27"/>
      <point x="521" y="-61" type="curve" smooth="yes"/>
      <point x="521" y="-95"/>
      <point x="538" y="-110"/>
    </contour>
    <contour>
      <point x="550" y="-160" type="line" smooth="yes"/>
      <point x="286" y="-160"/>
      <point x="130" y="0"/>
      <point x="130" y="270" type="curve" smooth="yes"/>
      <point x="130" y="540"/>
      <point x="286" y="700"/>
      <point x="550" y="700" type="curve" smooth="yes"/>
      <point x="590" y="700" type="line" smooth="yes"/>
      <point x="854" y="700"/>
      <point x="1010" y="540"/>
      <point x="1010" y="270" type="curve" smooth="yes"/>
      <point x="1010" y="0"/>
      <point x="854" y="-160"/>
      <point x="590" y="-160" type="curve" smooth="yes"/>
    </contour>
    <contour>
      <point x="565" y="552" type="curve" smooth="yes"/>
      <point x="576" y="552" type="line" smooth="yes"/>
      <point x="602" y="552"/>
      <point x="620" y="567"/>
      <point x="620" y="601" type="curve" smooth="yes"/>
      <point x="620" y="635"/>
      <point x="602" y="650"/>
      <point x="576" y="650" type="curve" smooth="yes"/>
      <point x="565" y="650" type="line" smooth="yes"/>
      <point x="538" y="650"/>
      <point x="521" y="635"/>
      <point x="521" y="601" type="curve" smooth="yes"/>
      <point x="521" y="567"/>
      <point x="538" y="552"/>
    </contour>
  </outline>
</glyph>
<glyph name="asteriskArt-ar" format="1">
  <advance width="1095"/>
  <unicode hex="06DE"/>
  <outline>
    <contour>
      <point x="50" y="285" type="line" name="hr00"/>
      <point x="196" y="139" type="line"/>
      <point x="196" y="-67" type="line"/>
      <point x="402" y="-67" type="line"/>
      <point x="548" y="-213" type="line"/>
      <point x="694" y="-67" type="line"/>
      <point x="900" y="-67" type="line"/>
      <point x="900" y="139" type="line"/>
      <point x="1046" y="285" type="line"/>
      <point x="900" y="431" type="line"/>
      <point x="900" y="637" type="line"/>
      <point x="694" y="637" type="line"/>
      <point x="548" y="783" type="line"/>
      <point x="402" y="637" type="line"/>
      <point x="196" y="637" type="line"/>
      <point x="196" y="431" type="line"/>
    </contour>
    <contour>
      <point x="249" y="161" type="line"/>
      <point x="249" y="409" type="line"/>
      <point x="424" y="584" type="line"/>
      <point x="672" y="584" type="line"/>
      <point x="847" y="409" type="line"/>
      <point x="847" y="161" type="line"/>
      <point x="672" y="-14" type="line"/>
      <point x="424" y="-14" type="line"/>
    </contour>
    <contour>
      <point x="548" y="175" type="curve" smooth="yes"/>
      <point x="611" y="175"/>
      <point x="658" y="223"/>
      <point x="658" y="286" type="curve" smooth="yes"/>
      <point x="658" y="348"/>
      <point x="611" y="395"/>
      <point x="548" y="395" type="curve" smooth="yes"/>
      <point x="485" y="395"/>
      <point x="438" y="348"/>
      <point x="438" y="286" type="curve" smooth="yes"/>
      <point x="438" y="223"/>
      <point x="485" y="175"/>
    </contour>
    <contour>
      <point x="548" y="226" type="curve" smooth="yes"/>
      <point x="514" y="226"/>
      <point x="489" y="252"/>
      <point x="489" y="286" type="curve" smooth="yes"/>
      <point x="489" y="319"/>
      <point x="514" y="344"/>
      <point x="548" y="344" type="curve" smooth="yes"/>
      <point x="582" y="344"/>
      <point x="607" y="319"/>
      <point x="607" y="286" type="curve" smooth="yes"/>
      <point x="607" y="252"/>
      <point x="582" y="226"/>
    </contour>
    <contour>
      <point x="971" y="285" type="line"/>
      <point x="900" y="214" type="line"/>
      <point x="900" y="356" type="line"/>
    </contour>
    <contour>
      <point x="477" y="-67" type="line"/>
      <point x="619" y="-67" type="line"/>
      <point x="548" y="-138" type="line"/>
    </contour>
    <contour>
      <point x="125" y="285" type="line"/>
      <point x="196" y="356" type="line"/>
      <point x="196" y="214" type="line"/>
    </contour>
    <contour>
      <point x="548" y="708" type="line"/>
      <point x="619" y="637" type="line"/>
      <point x="477" y="637" type="line"/>
    </contour>
    <contour>
      <point x="249" y="584" type="line"/>
      <point x="349" y="584" type="line"/>
      <point x="249" y="484" type="line"/>
    </contour>
    <contour>
      <point x="847" y="584" type="line"/>
      <point x="847" y="484" type="line"/>
      <point x="747" y="584" type="line"/>
    </contour>
    <contour>
      <point x="747" y="-14" type="line"/>
      <point x="847" y="86" type="line"/>
      <point x="847" y="-14" type="line"/>
    </contour>
    <contour>
      <point x="249" y="86" type="line"/>
      <point x="349" y="-14" type="line"/>
      <point x="249" y="-14" type="line"/>
    </contour>
  </outline>
</glyph>
<glyph name="sukunround-ar" format="1">
  <advance width="0"/>
  <unicode hex="06DF"/>
  <outline>
    <contour>
      <point x="113" y="361" type="curve" smooth="yes" name="hr00"/>
      <point x="169" y="361"/>
      <point x="211" y="404"/>
      <point x="211" y="461" type="curve" smooth="yes"/>
      <point x="211" y="518"/>
      <point x="169" y="561"/>
      <point x="113" y="561" type="curve" smooth="yes"/>
      <point x="56" y="561"/>
      <point x="14" y="518"/>
      <point x="14" y="461" type="curve" smooth="yes"/>
      <point x="14" y="404"/>
      <point x="56" y="361"/>
    </contour>
    <contour>
      <point x="113" y="413" type="curve" smooth="yes"/>
      <point x="85" y="413"/>
      <point x="64" y="434"/>
      <point x="64" y="461" type="curve" smooth="yes"/>
      <point x="64" y="488"/>
      <point x="85" y="509"/>
      <point x="113" y="509" type="curve" smooth="yes"/>
      <point x="140" y="509"/>
      <point x="161" y="488"/>
      <point x="161" y="461" type="curve" smooth="yes"/>
      <point x="161" y="434"/>
      <point x="140" y="413"/>
    </contour>
    <contour>
      <point x="113.0" y="289.0" type="move" name="_top"/>
    </contour>
    <contour>
      <point x="113.0" y="561.0" type="move" name="top"/>
    </contour>
  </outline>
</glyph>
<glyph name="seenbelow-ar" format="1">
  <advance width="0"/>
  <unicode hex="06E3"/>
  <outline>
    <component base="comp.seenSmall-ar"/>
    <contour>
      <point x="220.0" y="607.0" type="move" name="_bottom"/>
    </contour>
    <contour>
      <point x="220.0" y="289.0" type="move" name="bottom"/>
    </contour>
  </outline>
</glyph>
<glyph name="noonabove-ar" format="1">
  <advance width="0"/>
  <unicode hex="06E8"/>
  <outline>
    <contour>
      <point x="118" y="551" type="curve" smooth="yes" name="hr00"/>
      <point x="126" y="551" type="line" smooth="yes"/>
      <point x="139" y="551"/>
      <point x="149" y="560"/>
      <point x="149" y="577" type="curve" smooth="yes"/>
      <point x="149" y="595"/>
      <point x="138" y="603"/>
      <point x="126" y="603" type="curve" smooth="yes"/>
      <point x="118" y="603" type="line" smooth="yes"/>
      <point x="106" y="603"/>
      <point x="95" y="595"/>
      <point x="95" y="577" type="curve" smooth="yes"/>
      <point x="95" y="559"/>
      <point x="106" y="551"/>
    </contour>
    <contour>
      <point x="123" y="359" type="curve" smooth="yes"/>
      <point x="203" y="359"/>
      <point x="239" y="397"/>
      <point x="239" y="480" type="curve" smooth="yes"/>
      <point x="239" y="498"/>
      <point x="237" y="519"/>
      <point x="232" y="542" type="curve" smooth="yes"/>
      <point x="228" y="562" type="line"/>
      <point x="177" y="552" type="line"/>
      <point x="183" y="524" type="line" smooth="yes"/>
      <point x="187" y="506"/>
      <point x="189" y="490"/>
      <point x="189" y="480" type="curve" smooth="yes"/>
      <point x="189" y="441"/>
      <point x="172" y="423"/>
      <point x="136" y="423" type="curve" smooth="yes"/>
      <point x="109" y="423" type="line" smooth="yes"/>
      <point x="76" y="423"/>
      <point x="56" y="436"/>
      <point x="56" y="459" type="curve" smooth="yes"/>
      <point x="56" y="475"/>
      <point x="61" y="496"/>
      <point x="69" y="518" type="curve"/>
      <point x="26" y="531" type="line"/>
      <point x="17" y="507"/>
      <point x="10" y="479"/>
      <point x="10" y="457" type="curve" smooth="yes"/>
      <point x="10" y="390"/>
      <point x="46" y="359"/>
    </contour>
    <contour>
      <point x="125.0" y="289.0" type="move" name="_top"/>
    </contour>
    <contour>
      <point x="125.0" y="603.0" type="move" name="top"/>
    </contour>
  </outline>
</glyph>
<glyph name="rhombusStopbelow-ar" format="1">
  <advance width="0"/>
  <unicode hex="06EA"/>
  <outline>
    <contour>
      <point x="157" y="613" type="line" name="hr00"/>
      <point x="30" y="486" type="line"/>
      <point x="157" y="359" type="line"/>
      <point x="285" y="486" type="line"/>
    </contour>
    <contour>
      <point x="157" y="542" type="line"/>
      <point x="214" y="486" type="line"/>
      <point x="157" y="430" type="line"/>
      <point x="101" y="486" type="line"/>
    </contour>
    <contour>
      <point x="157.0" y="698.0" type="move" name="_bottom"/>
    </contour>
    <contour>
      <point x="157.0" y="359.0" type="move" name="bottom"/>
    </contour>
  </outline>
</glyph>
<glyph name="meembelow-ar" format="1">
  <advance width="0"/>
  <unicode hex="06ED"/>
  <outline>
    <component base="comp.meemSmall-ar"/>
    <contour>
      <point x="111.0" y="606.0" type="move" name="_bottom"/>
    </contour>
    <contour>
      <point x="111.0" y="289.0" type="move" name="bottom"/>
    </contour>
  </outline>
</glyph>
<glyph name="four-persian" format="1">
  <advance width="541"/>
  <unicode hex="06F4"/>
  <outline>
    <contour>
      <point x="149" y="606" type="line"/>
      <point x="75" y="606" type="line"/>
      <point x="114" y="0" type="line"/>
      <point x="188" y="0" type="line"/>
      <point x="168" y="310" type="line"/>
      <point x="502" y="310" type="line"/>
      <point x="502" y="401" type="line" name="hr01"/>
      <point x="397" y="401" type="line" smooth="yes"/>
      <point x="332" y="401"/>
      <point x="293" y="429"/>
      <point x="293" y="469" type="curve" smooth="yes"/>
      <point x="293" y="511"/>
      <point x="319" y="532"/>
      <point x="364" y="532" type="curve" smooth="yes"/>
      <point x="399" y="532"/>
      <point x="429" y="518"/>
      <point x="446" y="494" type="curve"/>
      <point x="499" y="556" type="line"/>
      <point x="465" y="599"/>
      <point x="424" y="618"/>
      <point x="368" y="618" type="curve" smooth="yes"/>
      <point x="291" y="618"/>
      <point x="233" y="562"/>
      <point x="233" y="485" type="curve" smooth="yes"/>
      <point x="233" y="457"/>
      <point x="243" y="425"/>
      <point x="262" y="400" type="curve"/>
      <point x="260" y="396" type="line" name="hr02"/>
      <point x="162" y="396" type="line"/>
    </contour>
  </outline>
</glyph>
<glyph name="tehThreedotsupbelow-ar" format="1">
  <advance width="839"/>
  <unicode hex="0753"/>
  <outline>
    <component base="behDotless-ar"/>
    <component base="threedotsupbelow-ar" xOffset="286" yOffset="-687"/>
    <component base="twodotshorizontalabove-ar" xOffset="286"/>
    <contour>
      <point x="418.0" y="0.0" type="move" name="bottom"/>
    </contour>
    <contour>
      <point x="418.0" y="-12.0" type="move" name="ring"/>
    </contour>
    <contour>
      <point x="418.0" y="249.0" type="move" name="top"/>
    </contour>
  </outline>
</glyph>
<glyph name="hahTwodotshorizontalabove-ar" format="1">
  <advance width="591"/>
  <unicode hex="0757"/>
  <outline>
    <component base="hah-ar"/>
    <component base="twodotshorizontalabove-ar" xOffset="168" yOffset="175"/>
    <contour>
      <point x="332.0" y="-304.0" type="move" name="bottom"/>
    </contour>
    <contour>
      <point x="319.0" y="11.0" type="move" name="center"/>
    </contour>
    <contour>
      <point x="300.0" y="424.0" type="move" name="top"/>
    </contour>
  </outline>
</glyph>
<glyph name="rehStroke-ar" format="1">
  <advance width="265"/>
  <unicode hex="075B"/>
  <outline>
    <contour>
      <point x="-60" y="-89" type="line" name="hr00"/>
      <point x="127" y="-89" type="line"/>
      <point x="100" y="-128"/>
      <point x="54" y="-154"/>
      <point x="-23" y="-154" type="curve" smooth="yes"/>
      <point x="-60" y="-154" type="line"/>
      <point x="-60" y="-240" type="line"/>
      <point x="-23" y="-240" type="line" smooth="yes"/>
      <point x="168" y="-240"/>
      <point x="225" y="-107"/>
      <point x="225" y="39" type="curve" smooth="yes"/>
      <point x="225" y="95"/>
      <point x="220" y="150"/>
      <point x="209" y="213" type="curve" smooth="yes"/>
      <point x="196" y="289" type="line"/>
      <point x="126" y="275" type="line"/>
      <point x="147" y="162" type="line" smooth="yes"/>
      <point x="154" y="124"/>
      <point x="158" y="80"/>
      <point x="158" y="41" type="curve" smooth="yes"/>
      <point x="158" y="18"/>
      <point x="156" y="-4"/>
      <point x="152" y="-25" type="curve"/>
      <point x="-60" y="-25" type="line"/>
    </contour>
    <contour>
      <point x="191.0" y="-58.0" type="move" name="bar"/>
    </contour>
    <contour>
      <point x="32.0" y="-240.0" type="move" name="bottom"/>
    </contour>
    <contour>
      <point x="84.0" y="-227.0" type="move" name="ring"/>
    </contour>
    <contour>
      <point x="145.0" y="289.0" type="move" name="top"/>
    </contour>
  </outline>
</glyph>
<glyph name="ainTwodotsverticalabove-ar" format="1">
  <advance width="596"/>
  <unicode hex="075F"/>
  <outline>
    <component base="ain-ar"/>
    <component base="twodotsverticalabove-ar" xOffset="114" yOffset="356"/>
    <contour>
      <point x="337.0" y="-304.0" type="move" name="bottom"/>
    </contour>
    <contour>
      <point x="333.0" y="-1.0" type="move" name="center"/>
    </contour>
    <contour>
      <point x="308.0" y="605.0" type="move" name="top"/>
    </contour>
  </outline>
</glyph>
<glyph name="kehehDotabove-ar" format="1">
  <advance width="851"/>
  <unicode hex="0762"/>
  <outline>
    <component base="keheh-ar"/>
    <component base="dotabove-ar" xOffset="589" yOffset="419"/>
    <contour>
      <point x="418.0" y="0.0" type="move" name="bottom"/>
    </contour>
    <contour>
      <point x="529.0" y="552.0" type="move" name="kafbar"/>
    </contour>
    <contour>
      <point x="785.0" y="571.0" type="move" name="ring"/>
    </contour>
    <contour>
      <point x="654.0" y="668.0" type="move" name="top"/>
    </contour>
  </outline>
</glyph>
<glyph name="kehehThreedotsabove-ar" format="1">
  <advance width="851"/>
  <unicode hex="0763"/>
  <outline>
    <component base="keheh-ar"/>
    <component base="threedotsupabove-ar" xOffset="525" yOffset="419"/>
    <contour>
      <point x="418.0" y="0.0" type="move" name="bottom"/>
    </contour>
    <contour>
      <point x="529.0" y="552.0" type="move" name="kafbar"/>
    </contour>
    <contour>
      <point x="785.0" y="571.0" type="move" name="ring"/>
    </contour>
    <contour>
      <point x="654.0" y="668.0" type="move" name="top"/>
    </contour>
  </outline>
</glyph>
<glyph name="meemDotabove-ar" format="1">
  <advance width="555"/>
  <unicode hex="0765"/>
  <outline>
    <component base="meem-ar"/>
    <component base="dotabove-ar" xOffset="251" yOffset="160"/>
    <contour>
      <point x="316.0" y="0.0" type="move" name="bottom"/>
    </contour>
    <contour>
      <point x="316.0" y="409.0" type="move" name="top"/>
    </contour>
  </outline>
</glyph>
<glyph name="noonTwodotsbelow-ar" format="1">
  <advance width="657"/>
  <unicode hex="0767"/>
  <outline>
    <component base="noonghunna-ar"/>
    <component base="dotabove-ar" xOffset="272" yOffset="22"/>
    <component base="twodotshorizontalbelow-ar" xOffset="188" yOffset="-730"/>
    <contour>
      <point x="317.0" y="-160.0" type="move" name="bottom"/>
    </contour>
    <contour>
      <point x="337.0" y="271.0" type="move" name="top"/>
    </contour>
  </outline>
</glyph>
<glyph name="seenTahTwodotshorizontalabove-ar" format="1">
  <advance width="1133"/>
  <unicode hex="0770"/>
  <outline>
    <component base="seen-ar"/>
    <component base="twodotshorizontalabove-ar" xOffset="702"/>
    <component base="tahabove-ar" xOffset="700" yOffset="181"/>
    <contour>
      <point x="347.0" y="-240.0" type="move" name="bottom"/>
    </contour>
    <contour>
      <point x="834.0" y="-145.0" type="move" name="center"/>
    </contour>
    <contour>
      <point x="834.0" y="249.0" type="move" name="top"/>
    </contour>
  </outline>
</glyph>
<glyph name="hahTahabove-ar" format="1">
  <advance width="591"/>
  <unicode hex="0772"/>
  <outline>
    <component base="hah-ar"/>
    <component base="tahabove-ar" xOffset="169" yOffset="135"/>
    <contour>
      <point x="332.0" y="-304.0" type="move" name="bottom"/>
    </contour>
    <contour>
      <point x="319.0" y="11.0" type="move" name="center"/>
    </contour>
    <contour>
      <point x="300.0" y="424.0" type="move" name="top"/>
    </contour>
  </outline>
</glyph>
<glyph name="wawThreeAbove-ar" format="1">
  <advance width="455"/>
  <unicode hex="0779"/>
  <outline>
    <component base="waw-ar"/>
    <component base="threeabove-ar" xOffset="104" yOffset="90"/>
    <contour>
      <point x="348.0" y="-78.0" type="move" name="bar"/>
    </contour>
    <contour>
      <point x="173.0" y="-240.0" type="move" name="bottom"/>
    </contour>
    <contour>
      <point x="82.0" y="-59.0" type="move" name="center"/>
    </contour>
    <contour>
      <point x="341.0" y="379.0" type="move" name="high"/>
    </contour>
    <contour>
      <point x="164.0" y="-71.0" type="move" name="ring"/>
    </contour>
  </outline>
</glyph>
<glyph name="yehbarreeThreeabove-ar" format="1">
  <advance width="711"/>
  <unicode hex="077B"/>
  <outline>
    <component base="yehbarree-ar"/>
    <component base="threeabove-ar" xOffset="207" yOffset="100"/>
    <contour>
      <point x="435.0" y="0.0" type="move" name="bottom"/>
    </contour>
  </outline>
</glyph>
<glyph name="seenFourabove-ar" format="1">
  <advance width="1133"/>
  <unicode hex="077D"/>
  <outline>
    <component base="seen-ar"/>
    <component base="foururduabove-ar" xOffset="723" yOffset="-40"/>
    <contour>
      <point x="347.0" y="-240.0" type="move" name="bottom"/>
    </contour>
    <contour>
      <point x="834.0" y="-145.0" type="move" name="center"/>
    </contour>
    <contour>
      <point x="834.0" y="249.0" type="move" name="top"/>
    </contour>
  </outline>
</glyph>
<glyph name="jeemTwodotsabove-ar" format="1">
  <advance width="591"/>
  <unicode hex="08A2"/>
  <outline>
    <component base="hah-ar"/>
    <component base="dotcenter-ar" xOffset="254" yOffset="-407"/>
    <component base="twodotshorizontalabove-ar" xOffset="168" yOffset="175"/>
    <contour>
      <point x="332.0" y="-304.0" type="move" name="bottom"/>
    </contour>
    <contour>
      <point x="319.0" y="11.0" type="move" name="center"/>
    </contour>
    <contour>
      <point x="300.0" y="424.0" type="move" name="top"/>
    </contour>
  </outline>
</glyph>
<glyph name="lamDoublebar-ar" format="1">
  <advance width="655"/>
  <unicode hex="08A6"/>
  <outline>
    <contour>
      <point x="423" y="457" type="line" name="hr00"/>
      <point x="506" y="457" type="line"/>
      <point x="506" y="393" type="line"/>
      <point x="423" y="393" type="line"/>
      <point x="423" y="329" type="line"/>
      <point x="506" y="329" type="line"/>
      <point x="506" y="56" type="line" smooth="yes"/>
      <point x="506" y="-97"/>
      <point x="462" y="-150"/>
      <point x="336" y="-150" type="curve" smooth="yes"/>
      <point x="276" y="-150" type="line" smooth="yes"/>
      <point x="170" y="-150"/>
      <point x="106" y="-88"/>
      <point x="106" y="19" type="curve" smooth="yes"/>
      <point x="106" y="72"/>
      <point x="124" y="136"/>
      <point x="149" y="191" type="curve"/>
      <point x="87" y="210" type="line"/>
      <point x="58" y="142"/>
      <point x="40" y="71"/>
      <point x="40" y="10" type="curve" smooth="yes"/>
      <point x="40" y="-147"/>
      <point x="139" y="-240"/>
      <point x="306" y="-240" type="curve" smooth="yes"/>
      <point x="494" y="-240"/>
      <point x="580" y="-147"/>
      <point x="580" y="56" type="curve" smooth="yes"/>
      <point x="580" y="329" type="line"/>
      <point x="663" y="329" type="line"/>
      <point x="663" y="393" type="line"/>
      <point x="580" y="393" type="line"/>
      <point x="580" y="457" type="line"/>
      <point x="663" y="457" type="line"/>
      <point x="663" y="521" type="line"/>
      <point x="580" y="521" type="line"/>
      <point x="580" y="740" type="line"/>
      <point x="506" y="740" type="line"/>
      <point x="506" y="521" type="line"/>
      <point x="423" y="521" type="line"/>
    </contour>
  </outline>
</glyph>
<glyph name="rehLoop-ar" format="1">
  <advance width="548"/>
  <unicode hex="08AA"/>
  <outline>
    <contour>
      <point x="209" y="-304" type="curve" smooth="yes" name="hr00"/>
      <point x="279" y="-304"/>
      <point x="344" y="-277"/>
      <point x="395" y="-231" type="curve"/>
      <point x="446" y="-304" type="line"/>
      <point x="507" y="-262" type="line"/>
      <point x="445" y="-174" type="line"/>
      <point x="485" y="-116"/>
      <point x="508" y="-43"/>
      <point x="508" y="39" type="curve" smooth="yes"/>
      <point x="508" y="95"/>
      <point x="503" y="150"/>
      <point x="492" y="213" type="curve" smooth="yes"/>
      <point x="479" y="289" type="line"/>
      <point x="409" y="275" type="line"/>
      <point x="430" y="162" type="line" smooth="yes"/>
      <point x="437" y="124"/>
      <point x="441" y="80"/>
      <point x="441" y="41" type="curve" smooth="yes"/>
      <point x="441" y="-22"/>
      <point x="428" y="-75"/>
      <point x="405" y="-116" type="curve"/>
      <point x="400" y="-109" type="line" smooth="yes"/>
      <point x="336" y="-17"/>
      <point x="302" y="15"/>
      <point x="210" y="15" type="curve" smooth="yes"/>
      <point x="102" y="15"/>
      <point x="30" y="-38"/>
      <point x="30" y="-144" type="curve" smooth="yes"/>
      <point x="30" y="-249"/>
      <point x="101" y="-304"/>
    </contour>
    <contour>
      <point x="219" y="-218" type="curve"/>
      <point x="189" y="-218" type="line" smooth="yes"/>
      <point x="126" y="-218"/>
      <point x="97" y="-195"/>
      <point x="97" y="-144" type="curve" smooth="yes"/>
      <point x="97" y="-94"/>
      <point x="126" y="-71"/>
      <point x="190" y="-71" type="curve" smooth="yes"/>
      <point x="220" y="-71" type="line" smooth="yes"/>
      <point x="289" y="-71"/>
      <point x="297" y="-92"/>
      <point x="339" y="-151" type="curve" smooth="yes"/>
      <point x="356" y="-175" type="line"/>
      <point x="320" y="-203"/>
      <point x="274" y="-218"/>
    </contour>
  </outline>
</glyph>
<glyph name="yehRohingya" format="1">
  <advance width="582"/>
  <unicode hex="08AC"/>
  <outline>
    <contour>
      <point x="100" y="0" type="line"/>
      <point x="174" y="0" type="line" smooth="yes"/>
      <point x="242" y="0"/>
      <point x="306" y="15"/>
      <point x="361" y="46" type="curve"/>
      <point x="416" y="15"/>
      <point x="480" y="0"/>
      <point x="548" y="0" type="curve" smooth="yes"/>
      <point x="562" y="0" type="line"/>
      <point x="582" y="20" type="line"/>
      <point x="582" y="86" type="line"/>
      <point x="437" y="86" type="line"/>
      <point x="435" y="90" type="line"/>
      <point x="503" y="143"/>
      <point x="542" y="203"/>
      <point x="542" y="285" type="curve" smooth="yes"/>
      <point x="542" y="392"/>
      <point x="468" y="479"/>
      <point x="361" y="479" type="curve" smooth="yes"/>
      <point x="254" y="479"/>
      <point x="180" y="391"/>
      <point x="180" y="285" type="curve" smooth="yes"/>
      <point x="180" y="203"/>
      <point x="219" y="143"/>
      <point x="287" y="90" type="curve"/>
      <point x="285" y="86" type="line"/>
      <point x="113" y="86" type="line" smooth="yes"/>
      <point x="65" y="86"/>
      <point x="30" y="56"/>
      <point x="30" y="1" type="curve" smooth="yes"/>
      <point x="30" y="-70" type="line"/>
      <point x="100" y="-70" type="line"/>
    </contour>
    <contour>
      <point x="361" y="116" type="curve"/>
      <point x="294" y="153"/>
      <point x="250" y="204"/>
      <point x="250" y="275" type="curve" smooth="yes"/>
      <point x="250" y="347"/>
      <point x="292" y="393"/>
      <point x="356" y="393" type="curve" smooth="yes"/>
      <point x="366" y="393" type="line" smooth="yes"/>
      <point x="430" y="393"/>
      <point x="472" y="347"/>
      <point x="472" y="275" type="curve" smooth="yes"/>
      <point x="472" y="204"/>
      <point x="428" y="153"/>
    </contour>
    <contour>
      <point x="420" y="-201" type="curve"/>
      <point x="431" y="-201" type="line" smooth="yes"/>
      <point x="457" y="-201"/>
      <point x="475" y="-186"/>
      <point x="475" y="-152" type="curve" smooth="yes" name="hr01"/>
      <point x="475" y="-118"/>
      <point x="457" y="-103"/>
      <point x="431" y="-103" type="curve" smooth="yes"/>
      <point x="420" y="-103" type="line" smooth="yes"/>
      <point x="393" y="-103"/>
      <point x="376" y="-118"/>
      <point x="376" y="-152" type="curve" smooth="yes"/>
      <point x="376" y="-186"/>
      <point x="393" y="-201"/>
    </contour>
    <contour>
      <point x="291" y="-201" type="curve"/>
      <point x="302" y="-201" type="line" smooth="yes"/>
      <point x="328" y="-201"/>
      <point x="346" y="-186"/>
      <point x="346" y="-152" type="curve" smooth="yes"/>
      <point x="346" y="-118"/>
      <point x="328" y="-103"/>
      <point x="302" y="-103" type="curve" smooth="yes"/>
      <point x="291" y="-103" type="line" smooth="yes"/>
      <point x="264" y="-103"/>
      <point x="247" y="-118"/>
      <point x="247" y="-152" type="curve" smooth="yes"/>
      <point x="247" y="-186"/>
      <point x="264" y="-201"/>
    </contour>
    <contour>
      <point x="361.0" y="0.0" type="move" name="bottom"/>
    </contour>
    <contour>
      <point x="361.0" y="479.0" type="move" name="top"/>
    </contour>
  </outline>
</glyph>
<glyph name="fathatanCurly-ar" format="1">
  <advance width="0"/>
  <unicode hex="08E7"/>
  <outline>
    <component base="comp.fathacurly-ar"/>
    <component base="comp.fathacurly-ar" yOffset="130"/>
    <contour>
      <point x="121.0" y="289.0" type="move" name="_top"/>
    </contour>
    <contour>
      <point x="121.0" y="544.0" type="move" name="top"/>
    </contour>
  </outline>
</glyph>
<glyph name="dammatanCurly-ar" format="1">
  <advance width="0"/>
  <unicode hex="08E8"/>
  <outline>
    <contour>
      <point x="233" y="356" type="curve" name="hr00"/>
      <point x="297" y="386" type="line" smooth="yes"/>
      <point x="357" y="414"/>
      <point x="385" y="452"/>
      <point x="385" y="504" type="curve" smooth="yes"/>
      <point x="385" y="555"/>
      <point x="349" y="594"/>
      <point x="302" y="594" type="curve" smooth="yes"/>
      <point x="250" y="594"/>
      <point x="214" y="556"/>
      <point x="214" y="504" type="curve" smooth="yes"/>
      <point x="214" y="474"/>
      <point x="230" y="447"/>
      <point x="257" y="431" type="curve"/>
      <point x="257" y="427" type="line"/>
      <point x="186" y="393" type="line"/>
      <point x="173" y="430" type="line"/>
      <point x="126" y="410" type="line"/>
      <point x="139" y="380" type="line" smooth="yes"/>
      <point x="156" y="342"/>
      <point x="185" y="334"/>
    </contour>
    <contour>
      <point x="265" y="507" type="curve" smooth="yes"/>
      <point x="265" y="526"/>
      <point x="278" y="539"/>
      <point x="296" y="539" type="curve" smooth="yes"/>
      <point x="318" y="539"/>
      <point x="335" y="522"/>
      <point x="335" y="499" type="curve" smooth="yes"/>
      <point x="335" y="481"/>
      <point x="329" y="469"/>
      <point x="314" y="457" type="curve"/>
      <point x="300" y="465" type="line" smooth="yes"/>
      <point x="276" y="478"/>
      <point x="265" y="491"/>
    </contour>
    <contour>
      <point x="172" y="693" type="curve"/>
      <point x="108" y="663" type="line" smooth="yes"/>
      <point x="48" y="635"/>
      <point x="20" y="597"/>
      <point x="20" y="545" type="curve" smooth="yes"/>
      <point x="20" y="494"/>
      <point x="56" y="455"/>
      <point x="103" y="455" type="curve" smooth="yes"/>
      <point x="155" y="455"/>
      <point x="191" y="493"/>
      <point x="191" y="545" type="curve" smooth="yes"/>
      <point x="191" y="575"/>
      <point x="175" y="602"/>
      <point x="148" y="618" type="curve"/>
      <point x="148" y="622" type="line"/>
      <point x="219" y="656" type="line"/>
      <point x="232" y="619" type="line"/>
      <point x="279" y="639" type="line"/>
      <point x="266" y="669" type="line" smooth="yes"/>
      <point x="249" y="707"/>
      <point x="220" y="715"/>
    </contour>
    <contour>
      <point x="140" y="542" type="curve" smooth="yes"/>
      <point x="140" y="523"/>
      <point x="127" y="510"/>
      <point x="109" y="510" type="curve" smooth="yes"/>
      <point x="87" y="510"/>
      <point x="70" y="527"/>
      <point x="70" y="550" type="curve" smooth="yes"/>
      <point x="70" y="568"/>
      <point x="76" y="580"/>
      <point x="91" y="592" type="curve"/>
      <point x="105" y="584" type="line" smooth="yes"/>
      <point x="129" y="571"/>
      <point x="140" y="558"/>
    </contour>
    <contour>
      <point x="203.0" y="289.0" type="move" name="_top"/>
    </contour>
    <contour>
      <point x="203.0" y="698.0" type="move" name="top"/>
    </contour>
  </outline>
</glyph>
<glyph name="opendammatan-ar" format="1">
  <advance width="0"/>
  <unicode hex="08F1"/>
  <outline>
    <component base="comp.damma-ar" xOffset="262"/>
    <component base="comp.damma-ar"/>
    <contour>
      <point x="262.0" y="289.0" type="move" name="_top"/>
    </contour>
    <contour>
      <point x="262.0" y="624.0" type="move" name="top"/>
    </contour>
  </outline>
</glyph>
<glyph name="fathaRing-ar" format="1">
  <advance width="0"/>
  <unicode hex="08F4"/>
  <outline>
    <contour>
      <point x="113" y="361" type="curve" smooth="yes" name="hr00"/>
      <point x="168" y="361"/>
      <point x="209" y="404"/>
      <point x="209" y="461" type="curve" smooth="yes"/>
      <point x="209" y="472"/>
      <point x="207" y="483"/>
      <point x="204" y="493" type="curve"/>
      <point x="233" y="506" type="line"/>
      <point x="225" y="524" type="line"/>
      <point x="197" y="511" type="line"/>
      <point x="181" y="541"/>
      <point x="150" y="561"/>
      <point x="113" y="561" type="curve" smooth="yes"/>
      <point x="58" y="561"/>
      <point x="16" y="518"/>
      <point x="16" y="461" type="curve" smooth="yes"/>
      <point x="16" y="450"/>
      <point x="17" y="439"/>
      <point x="20" y="430" type="curve"/>
      <point x="-8" y="417" type="line"/>
      <point x="0" y="399" type="line"/>
      <point x="28" y="412" type="line"/>
      <point x="44" y="381"/>
      <point x="75" y="361"/>
    </contour>
    <contour>
      <point x="113" y="419" type="curve" smooth="yes"/>
      <point x="98" y="419"/>
      <point x="85" y="424"/>
      <point x="76" y="434" type="curve"/>
      <point x="157" y="471" type="line"/>
      <point x="158" y="468"/>
      <point x="159" y="464"/>
      <point x="159" y="461" type="curve" smooth="yes"/>
      <point x="159" y="437"/>
      <point x="139" y="419"/>
    </contour>
    <contour>
      <point x="66" y="461" type="curve" smooth="yes"/>
      <point x="66" y="485"/>
      <point x="86" y="503"/>
      <point x="113" y="503" type="curve" smooth="yes"/>
      <point x="127" y="503"/>
      <point x="139" y="497"/>
      <point x="148" y="488" type="curve"/>
      <point x="67" y="451" type="line"/>
      <point x="66" y="454"/>
      <point x="66" y="458"/>
    </contour>
  </outline>
</glyph>
<glyph name="leftarrowheadabove-ar" format="1">
  <advance width="0"/>
  <unicode hex="08F7"/>
  <outline>
    <contour>
      <point x="216" y="357" type="line" name="hr00"/>
      <point x="216" y="426" type="line"/>
      <point x="80" y="476" type="line"/>
      <point x="80" y="477" type="line"/>
      <point x="216" y="525" type="line"/>
      <point x="216" y="587" type="line"/>
      <point x="20" y="509" type="line"/>
      <point x="20" y="434" type="line"/>
    </contour>
    <contour>
      <point x="118.0" y="587.0" type="move" name="_top"/>
    </contour>
    <contour>
      <point x="118.0" y="289.0" type="move" name="top"/>
    </contour>
  </outline>
</glyph>
<glyph name="rightarrowheadabove-ar" format="1">
  <advance width="0"/>
  <unicode hex="08F8"/>
  <outline>
    <contour>
      <point x="20" y="587" type="line" name="hr00"/>
      <point x="20" y="518" type="line"/>
      <point x="156" y="468" type="line"/>
      <point x="156" y="467" type="line"/>
      <point x="20" y="419" type="line"/>
      <point x="20" y="357" type="line"/>
      <point x="216" y="435" type="line"/>
      <point x="216" y="510" type="line"/>
    </contour>
    <contour>
      <point x="118.0" y="587.0" type="move" name="_top"/>
    </contour>
    <contour>
      <point x="118.0" y="289.0" type="move" name="top"/>
    </contour>
  </outline>
</glyph>
<glyph name="rightarrowheadDotabove-ar" format="1">
  <advance width="0"/>
  <unicode hex="08FD"/>
  <outline>
    <contour>
      <point x="133" y="587" type="line" name="hr00"/>
      <point x="133" y="518" type="line"/>
      <point x="269" y="468" type="line"/>
      <point x="269" y="467" type="line"/>
      <point x="133" y="419" type="line"/>
      <point x="133" y="357" type="line"/>
      <point x="329" y="435" type="line"/>
      <point x="329" y="510" type="line"/>
    </contour>
    <contour>
      <point x="64" y="423" type="curve" smooth="yes"/>
      <point x="75" y="423" type="line" smooth="yes"/>
      <point x="101" y="423"/>
      <point x="119" y="438"/>
      <point x="119" y="472" type="curve" smooth="yes"/>
      <point x="119" y="506"/>
      <point x="101" y="521"/>
      <point x="75" y="521" type="curve" smooth="yes"/>
      <point x="64" y="521" type="line" smooth="yes"/>
      <point x="37" y="521"/>
      <point x="20" y="506"/>
      <point x="20" y="472" type="curve" smooth="yes"/>
      <point x="20" y="438"/>
      <point x="37" y="423"/>
    </contour>
    <contour>
      <point x="174.0" y="587.0" type="move" name="_top"/>
    </contour>
    <contour>
      <point x="174.0" y="289.0" type="move" name="top"/>
    </contour>
  </outline>
</glyph>
<glyph name="arrowuprightcorner" format="1">
  <advance width="820"/>
  <unicode hex="21B1"/>
  <outline>
    <contour>
      <point x="690" y="503" type="line" name="hr00"/>
      <point x="483" y="710" type="line"/>
      <point x="435" y="662" type="line"/>
      <point x="521" y="576" type="line"/>
      <point x="571" y="534" type="line"/>
      <point x="570" y="531" type="line"/>
      <point x="474" y="537" type="line"/>
      <point x="193" y="537" type="line"/>
      <point x="193" y="0" type="line"/>
      <point x="261" y="0" type="line"/>
      <point x="261" y="469" type="line"/>
      <point x="474" y="469" type="line"/>
      <point x="570" y="475" type="line"/>
      <point x="571" y="472" type="line"/>
      <point x="521" y="430" type="line"/>
      <point x="435" y="344" type="line"/>
      <point x="483" y="296" type="line"/>
    </contour>
  </outline>
</glyph>
<glyph name="dottedCircle" format="1">
  <advance width="600"/>
  <unicode hex="25CC"/>
  <outline>
    <contour>
      <point x="303" y="-12" type="curve" smooth="yes"/>
      <point x="325" y="-12"/>
      <point x="336" y="1"/>
      <point x="336" y="19" type="curve" smooth="yes"/>
      <point x="336" y="26" type="line" smooth="yes"/>
      <point x="336" y="44"/>
      <point x="325" y="57"/>
      <point x="303" y="57" type="curve" smooth="yes"/>
      <point x="281" y="57"/>
      <point x="270" y="44"/>
      <point x="270" y="26" type="curve" smooth="yes"/>
      <point x="270" y="19" type="line" smooth="yes"/>
      <point x="270" y="1"/>
      <point x="281" y="-12"/>
    </contour>
    <contour>
      <point x="175" y="22" type="curve" smooth="yes" name="hr01"/>
      <point x="197" y="22"/>
      <point x="208" y="35"/>
      <point x="208" y="53" type="curve" smooth="yes"/>
      <point x="208" y="60" type="line" smooth="yes"/>
      <point x="208" y="78"/>
      <point x="197" y="91"/>
      <point x="175" y="91" type="curve" smooth="yes"/>
      <point x="153" y="91"/>
      <point x="142" y="78"/>
      <point x="142" y="60" type="curve" smooth="yes"/>
      <point x="142" y="53" type="line" smooth="yes"/>
      <point x="142" y="35"/>
      <point x="153" y="22"/>
    </contour>
    <contour>
      <point x="80" y="117" type="curve" smooth="yes"/>
      <point x="102" y="117"/>
      <point x="113" y="130"/>
      <point x="113" y="148" type="curve" smooth="yes"/>
      <point x="113" y="155" type="line" smooth="yes"/>
      <point x="113" y="173"/>
      <point x="102" y="186"/>
      <point x="80" y="186" type="curve" smooth="yes"/>
      <point x="58" y="186"/>
      <point x="47" y="173"/>
      <point x="47" y="155" type="curve" smooth="yes"/>
      <point x="47" y="148" type="line" smooth="yes"/>
      <point x="47" y="130"/>
      <point x="58" y="117"/>
    </contour>
    <contour>
      <point x="46" y="245" type="curve" smooth="yes"/>
      <point x="68" y="245"/>
      <point x="79" y="258"/>
      <point x="79" y="276" type="curve" smooth="yes" name="hr02"/>
      <point x="79" y="283" type="line" smooth="yes"/>
      <point x="79" y="301"/>
      <point x="68" y="314"/>
      <point x="46" y="314" type="curve" smooth="yes"/>
      <point x="24" y="314"/>
      <point x="13" y="301"/>
      <point x="13" y="283" type="curve" smooth="yes"/>
      <point x="13" y="276" type="line" smooth="yes"/>
      <point x="13" y="258"/>
      <point x="24" y="245"/>
    </contour>
    <contour>
      <point x="80" y="373" type="curve" smooth="yes"/>
      <point x="102" y="373"/>
      <point x="113" y="386"/>
      <point x="113" y="404" type="curve" smooth="yes" name="hr03"/>
      <point x="113" y="411" type="line" smooth="yes"/>
      <point x="113" y="429"/>
      <point x="102" y="442"/>
      <point x="80" y="442" type="curve" smooth="yes"/>
      <point x="58" y="442"/>
      <point x="47" y="429"/>
      <point x="47" y="411" type="curve" smooth="yes"/>
      <point x="47" y="404" type="line" smooth="yes"/>
      <point x="47" y="386"/>
      <point x="58" y="373"/>
    </contour>
    <contour>
      <point x="175" y="468" type="curve" smooth="yes"/>
      <point x="197" y="468"/>
      <point x="208" y="481"/>
      <point x="208" y="499" type="curve" smooth="yes"/>
      <point x="208" y="506" type="line" smooth="yes"/>
      <point x="208" y="524"/>
      <point x="197" y="537"/>
      <point x="175" y="537" type="curve" smooth="yes"/>
      <point x="153" y="537"/>
      <point x="142" y="524"/>
      <point x="142" y="506" type="curve" smooth="yes"/>
      <point x="142" y="499" type="line" smooth="yes"/>
      <point x="142" y="481"/>
      <point x="153" y="468"/>
    </contour>
    <contour>
      <point x="303" y="502" type="curve" smooth="yes" name="hr04"/>
      <point x="325" y="502"/>
      <point x="336" y="515"/>
      <point x="336" y="533" type="curve" smooth="yes"/>
      <point x="336" y="540" type="line" smooth="yes"/>
      <point x="336" y="558"/>
      <point x="325" y="571"/>
      <point x="303" y="571" type="curve" smooth="yes"/>
      <point x="281" y="571"/>
      <point x="270" y="558"/>
      <point x="270" y="540" type="curve" smooth="yes"/>
      <point x="270" y="533" type="line" smooth="yes"/>
      <point x="270" y="515"/>
      <point x="281" y="502"/>
    </contour>
    <contour>
      <point x="431" y="468" type="curve" smooth="yes" name="hr05"/>
      <point x="453" y="468"/>
      <point x="464" y="481"/>
      <point x="464" y="499" type="curve" smooth="yes"/>
      <point x="464" y="506" type="line" smooth="yes"/>
      <point x="464" y="524"/>
      <point x="453" y="537"/>
      <point x="431" y="537" type="curve" smooth="yes"/>
      <point x="409" y="537"/>
      <point x="398" y="524"/>
      <point x="398" y="506" type="curve" smooth="yes"/>
      <point x="398" y="499" type="line" smooth="yes"/>
      <point x="398" y="481"/>
      <point x="409" y="468"/>
    </contour>
    <contour>
      <point x="526" y="373" type="curve" smooth="yes"/>
      <point x="548" y="373"/>
      <point x="559" y="386"/>
      <point x="559" y="404" type="curve" smooth="yes"/>
      <point x="559" y="411" type="line" smooth="yes"/>
      <point x="559" y="429"/>
      <point x="548" y="442"/>
      <point x="526" y="442" type="curve" smooth="yes"/>
      <point x="504" y="442"/>
      <point x="493" y="429"/>
      <point x="493" y="411" type="curve" smooth="yes"/>
      <point x="493" y="404" type="line" smooth="yes"/>
      <point x="493" y="386"/>
      <point x="504" y="373"/>
    </contour>
    <contour>
      <point x="560" y="245" type="curve" smooth="yes"/>
      <point x="582" y="245"/>
      <point x="593" y="258"/>
      <point x="593" y="276" type="curve" smooth="yes" name="hr06"/>
      <point x="593" y="283" type="line" smooth="yes"/>
      <point x="593" y="301"/>
      <point x="582" y="314"/>
      <point x="560" y="314" type="curve" smooth="yes"/>
      <point x="538" y="314"/>
      <point x="527" y="301"/>
      <point x="527" y="283" type="curve" smooth="yes"/>
      <point x="527" y="276" type="line" smooth="yes"/>
      <point x="527" y="258"/>
      <point x="538" y="245"/>
    </contour>
    <contour>
      <point x="526" y="117" type="curve" smooth="yes"/>
      <point x="548" y="117"/>
      <point x="559" y="130"/>
      <point x="559" y="148" type="curve" smooth="yes" name="hr07"/>
      <point x="559" y="155" type="line" smooth="yes"/>
      <point x="559" y="173"/>
      <point x="548" y="186"/>
      <point x="526" y="186" type="curve" smooth="yes"/>
      <point x="504" y="186"/>
      <point x="493" y="173"/>
      <point x="493" y="155" type="curve" smooth="yes"/>
      <point x="493" y="148" type="line" smooth="yes"/>
      <point x="493" y="130"/>
      <point x="504" y="117"/>
    </contour>
    <contour>
      <point x="431" y="22" type="curve" smooth="yes"/>
      <point x="453" y="22"/>
      <point x="464" y="35"/>
      <point x="464" y="53" type="curve" smooth="yes"/>
      <point x="464" y="60" type="line" smooth="yes"/>
      <point x="464" y="78"/>
      <point x="453" y="91"/>
      <point x="431" y="91" type="curve" smooth="yes"/>
      <point x="409" y="91"/>
      <point x="398" y="78"/>
      <point x="398" y="60" type="curve" smooth="yes"/>
      <point x="398" y="53" type="line" smooth="yes"/>
      <point x="398" y="35"/>
      <point x="409" y="22"/>
    </contour>
    <contour>
      <point x="303.0" y="-12.0" type="move" name="bottom"/>
    </contour>
    <contour>
      <point x="303.0" y="571.0" type="move" name="top"/>
    </contour>
  </outline>
</glyph>
<glyph name="alefWasla-ar.fina" format="1">
  <advance width="270"/>
  <unicode hex="FB51"/>
  <outline>
    <component base="alef-ar.fina.short"/>
    <component base="wasla-ar" xOffset="-34" yOffset="329"/>
    <contour>
      <point x="121.0" y="0.0" type="move" name="bottom"/>
    </contour>
  </outline>
</glyph>
<glyph name="beheh-ar.init" format="1">
  <advance width="253"/>
  <unicode hex="FB5C"/>
  <outline>
    <component base="behDotless-ar.init"/>
    <component base="fourdotsbelow-ar" xOffset="9" yOffset="-648"/>
    <contour>
      <point x="138.0" y="0.0" type="move" name="bottom"/>
    </contour>
    <contour>
      <point x="314.0" y="329.0" type="move" name="high"/>
    </contour>
    <contour>
      <point x="127.0" y="14.0" type="move" name="ring"/>
    </contour>
    <contour>
      <point x="137.0" y="380.0" type="move" name="top"/>
    </contour>
  </outline>
</glyph>
<glyph name="tteheh-ar.fina" format="1">
  <advance width="919"/>
  <unicode hex="FB5F"/>
  <outline>
    <component base="behDotless-ar.fina"/>
    <component base="twodotsverticalabove-ar" xOffset="224"/>
    <contour>
      <point x="418.0" y="0.0" type="move" name="bottom"/>
    </contour>
    <contour>
      <point x="418.0" y="-12.0" type="move" name="ring"/>
    </contour>
    <contour>
      <point x="418.0" y="249.0" type="move" name="top"/>
    </contour>
  </outline>
</glyph>
<glyph name="teheh-ar.medi" format="1">
  <advance width="310"/>
  <unicode hex="FB65"/>
  <outline>
    <component base="behDotless-ar.medi"/>
    <component base="fourdotsabove-ar" xOffset="26" yOffset="80"/>
    <contour>
      <point x="155.0" y="0.0" type="move" name="bottom"/>
    </contour>
    <contour>
      <point x="289.0" y="329.0" type="move" name="high"/>
    </contour>
    <contour>
      <point x="198.0" y="7.0" type="move" name="ring"/>
    </contour>
    <contour>
      <point x="155.0" y="329.0" type="move" name="top"/>
    </contour>
  </outline>
</glyph>
<glyph name="veh-ar.fina" format="1">
  <advance width="965"/>
  <unicode hex="FB6B"/>
  <outline>
    <component base="fehDotless-ar.fina"/>
    <component base="threedotsupabove-ar" xOffset="615" yOffset="230"/>
    <contour>
      <point x="418.0" y="-12.0" type="move" name="bottom"/>
    </contour>
    <contour>
      <point x="744.0" y="479.0" type="move" name="top"/>
    </contour>
  </outline>
</glyph>
<glyph name="dyeh-ar.medi" format="1">
  <advance width="663"/>
  <unicode hex="FB75"/>
  <outline>
    <component base="hah-ar.medi"/>
    <component base="twodotsverticalbelow-ar" xOffset="111" yOffset="-648"/>
    <contour>
      <point x="305.0" y="0.0" type="move" name="bottom"/>
    </contour>
    <contour>
      <point x="254.0" y="369.0" type="move" name="top"/>
    </contour>
  </outline>
</glyph>
<glyph name="tcheh-ar.init" format="1">
  <advance width="634"/>
  <unicode hex="FB7C"/>
  <outline>
    <component base="hah-ar.init"/>
    <component base="threedotsdownbelow-ar" xOffset="173" yOffset="-687"/>
    <contour>
      <point x="305.0" y="0.0" type="move" name="bottom"/>
    </contour>
    <contour>
      <point x="254.0" y="369.0" type="move" name="top"/>
    </contour>
  </outline>
</glyph>
<glyph name="tcheheh-ar.init" format="1">
  <advance width="634"/>
  <unicode hex="FB80"/>
  <outline>
    <component base="hah-ar.init"/>
    <component base="fourdotsbelow-ar" xOffset="176" yOffset="-648"/>
    <contour>
      <point x="305.0" y="0.0" type="move" name="bottom"/>
    </contour>
    <contour>
      <point x="254.0" y="369.0" type="move" name="top"/>
    </contour>
  </outline>
</glyph>
<glyph name="ddahal-ar.fina" format="1">
  <advance width="531"/>
  <unicode hex="FB83"/>
  <outline>
    <component base="dal-ar.fina"/>
    <component base="twodotshorizontalbelow-ar" xOffset="106" yOffset="-570"/>
    <contour>
      <point x="235.0" y="0.0" type="move" name="bottom"/>
    </contour>
    <contour>
      <point x="215.0" y="0.0" type="move" name="ring"/>
    </contour>
    <contour>
      <point x="253.0" y="486.0" type="move" name="top"/>
    </contour>
  </outline>
</glyph>
<glyph name="dahal-ar.fina" format="1">
  <advance width="531"/>
  <unicode hex="FB85"/>
  <outline>
    <component base="dal-ar.fina"/>
    <component base="twodotshorizontalabove-ar" xOffset="121" yOffset="237"/>
    <contour>
      <point x="235.0" y="0.0" type="move" name="bottom"/>
    </contour>
    <contour>
      <point x="215.0" y="0.0" type="move" name="ring"/>
    </contour>
    <contour>
      <point x="253.0" y="486.0" type="move" name="top"/>
    </contour>
  </outline>
</glyph>
<glyph name="keheh-ar.medi" format="1">
  <advance width="452"/>
  <unicode hex="FB91"/>
  <outline>
    <component base="kaf-ar.medi"/>
    <contour>
      <point x="154.0" y="0.0" type="move" name="bottom"/>
    </contour>
    <contour>
      <point x="10.0" y="552.0" type="move" name="kafbar"/>
    </contour>
    <contour>
      <point x="267.0" y="571.0" type="move" name="ring"/>
    </contour>
    <contour>
      <point x="135.0" y="668.0" type="move" name="top"/>
    </contour>
  </outline>
</glyph>
<glyph name="gueh-ar.init" format="1">
  <advance width="332"/>
  <unicode hex="FB98"/>
  <outline>
    <component base="kaf-ar.init"/>
    <component base="comp.kafbar-ar" xOffset="-10" yOffset="22"/>
    <component base="twodotsverticalbelow-ar" xOffset="5" yOffset="-648"/>
    <contour>
      <point x="199.0" y="0.0" type="move" name="bottom"/>
    </contour>
    <contour>
      <point x="267.0" y="571.0" type="move" name="ring"/>
    </contour>
    <contour>
      <point x="135.0" y="668.0" type="move" name="top"/>
    </contour>
  </outline>
</glyph>
<glyph name="ngoeh-ar.init" format="1">
  <advance width="332"/>
  <unicode hex="FB9C"/>
  <outline>
    <component base="kaf-ar.init"/>
    <component base="comp.kafbar-ar" xOffset="-10" yOffset="22"/>
    <component base="twodotshorizontalabove-ar" xOffset="-122" yOffset="471"/>
    <contour>
      <point x="199.0" y="0.0" type="move" name="bottom"/>
    </contour>
    <contour>
      <point x="267.0" y="571.0" type="move" name="ring"/>
    </contour>
    <contour>
      <point x="135.0" y="668.0" type="move" name="top"/>
    </contour>
  </outline>
</glyph>
<glyph name="hehgoal-ar.fina" format="1">
  <advance width="589"/>
  <unicode hex="FBA7"/>
  <outline>
    <contour>
      <point x="569" y="0" type="curve" name="hr00"/>
      <point x="589" y="20" type="line"/>
      <point x="589" y="86" type="line"/>
      <point x="569" y="86" type="line" smooth="yes"/>
      <point x="525" y="86"/>
      <point x="506" y="103"/>
      <point x="488" y="163" type="curve" smooth="yes"/>
      <point x="469" y="228" type="line" smooth="yes"/>
      <point x="446" y="303"/>
      <point x="416" y="329"/>
      <point x="356" y="329" type="curve" smooth="yes"/>
      <point x="313" y="329"/>
      <point x="264" y="312"/>
      <point x="198" y="274" type="curve" smooth="yes"/>
      <point x="20" y="175" type="line"/>
      <point x="60" y="104" type="line"/>
      <point x="238" y="203" type="line" smooth="yes"/>
      <point x="285" y="228"/>
      <point x="322" y="243"/>
      <point x="347" y="243" type="curve" smooth="yes"/>
      <point x="372" y="243"/>
      <point x="383" y="233"/>
      <point x="392" y="206" type="curve" smooth="yes"/>
      <point x="412" y="141" type="line" smooth="yes"/>
      <point x="447" y="28"/>
      <point x="478" y="0"/>
    </contour>
    <contour>
      <point x="301.0" y="0.0" type="move" name="bottom"/>
    </contour>
    <contour>
      <point x="352.0" y="329.0" type="move" name="top"/>
    </contour>
  </outline>
</glyph>
<glyph name="hehgoal-ar.init" format="1">
  <advance width="480"/>
  <unicode hex="FBA8"/>
  <outline>
    <contour>
      <point x="-20" y="0" type="line"/>
      <point x="52" y="0"/>
      <point x="96" y="10"/>
      <point x="140" y="55" type="curve"/>
      <point x="173" y="34" type="line" smooth="yes"/>
      <point x="220" y="3"/>
      <point x="261" y="-12"/>
      <point x="306" y="-12" type="curve" smooth="yes" name="hr01"/>
      <point x="387" y="-12"/>
      <point x="435" y="44"/>
      <point x="435" y="138" type="curve" smooth="yes"/>
      <point x="435" y="164"/>
      <point x="429" y="204"/>
      <point x="420" y="245" type="curve"/>
      <point x="352" y="234" type="line"/>
      <point x="362" y="195"/>
      <point x="367" y="159"/>
      <point x="367" y="138" type="curve" smooth="yes"/>
      <point x="367" y="98"/>
      <point x="346" y="74"/>
      <point x="303" y="74" type="curve" smooth="yes"/>
      <point x="277" y="74"/>
      <point x="241" y="83"/>
      <point x="201" y="110" type="curve" smooth="yes"/>
      <point x="189" y="118" type="line"/>
      <point x="200" y="133"/>
      <point x="210" y="150"/>
      <point x="222" y="170" type="curve"/>
      <point x="170" y="205" type="line"/>
      <point x="112" y="108"/>
      <point x="85" y="86"/>
      <point x="35" y="86" type="curve" smooth="yes" name="hr02"/>
      <point x="0" y="86" type="line"/>
      <point x="-20" y="66" type="line"/>
    </contour>
    <contour>
      <point x="150" y="-240" type="curve"/>
      <point x="161" y="-240" type="line" smooth="yes"/>
      <point x="187" y="-240"/>
      <point x="205" y="-225"/>
      <point x="205" y="-191" type="curve" smooth="yes"/>
      <point x="205" y="-158"/>
      <point x="192" y="-143"/>
      <point x="172" y="-143" type="curve"/>
      <point x="178" y="-107"/>
      <point x="191" y="-79"/>
      <point x="213" y="-46" type="curve"/>
      <point x="161" y="-46" type="line"/>
      <point x="127" y="-84"/>
      <point x="106" y="-142"/>
      <point x="106" y="-191" type="curve" smooth="yes"/>
      <point x="106" y="-225"/>
      <point x="123" y="-240"/>
    </contour>
    <contour>
      <point x="156.0" y="-240.0" type="move" name="bottom"/>
    </contour>
    <contour>
      <point x="155.0" y="249.0" type="move" name="top"/>
    </contour>
  </outline>
</glyph>
<glyph name="hehgoal-ar.medi" format="1">
  <advance width="575"/>
  <unicode hex="FBA9"/>
  <outline>
    <contour>
      <point x="-20" y="0" type="line"/>
      <point x="87" y="0" type="line" smooth="yes"/>
      <point x="156" y="0"/>
      <point x="189" y="9"/>
      <point x="216" y="37" type="curve"/>
      <point x="220" y="34" type="line"/>
      <point x="198" y="-3"/>
      <point x="187" y="-37"/>
      <point x="187" y="-70" type="curve" smooth="yes"/>
      <point x="187" y="-114"/>
      <point x="199" y="-143"/>
      <point x="280" y="-270" type="curve"/>
      <point x="371" y="-270" type="line"/>
      <point x="474" y="0" type="line"/>
      <point x="555" y="0" type="line"/>
      <point x="575" y="20" type="line"/>
      <point x="575" y="86" type="line"/>
      <point x="497" y="86" type="line" smooth="yes"/>
      <point x="451" y="86"/>
      <point x="429" y="66"/>
      <point x="407" y="9" type="curve" smooth="yes"/>
      <point x="330" y="-192" type="line"/>
      <point x="265" y="-95"/>
      <point x="255" y="-67"/>
      <point x="255" y="-22" type="curve" smooth="yes"/>
      <point x="255" y="24"/>
      <point x="273" y="74"/>
      <point x="309" y="146" type="curve" smooth="yes"/>
      <point x="346" y="219" type="line"/>
      <point x="290" y="249" type="line"/>
      <point x="247" y="165" type="line" smooth="yes"/>
      <point x="217" y="106"/>
      <point x="189" y="86"/>
      <point x="142" y="86" type="curve" smooth="yes"/>
      <point x="0" y="86" type="line"/>
      <point x="-20" y="66" type="line"/>
    </contour>
    <contour>
      <point x="91" y="-240" type="curve" name="hr01"/>
      <point x="102" y="-240" type="line" smooth="yes"/>
      <point x="128" y="-240"/>
      <point x="146" y="-225"/>
      <point x="146" y="-191" type="curve" smooth="yes"/>
      <point x="146" y="-158"/>
      <point x="133" y="-143"/>
      <point x="113" y="-143" type="curve"/>
      <point x="119" y="-107"/>
      <point x="132" y="-79"/>
      <point x="154" y="-46" type="curve"/>
      <point x="102" y="-46" type="line"/>
      <point x="68" y="-84"/>
      <point x="47" y="-142"/>
      <point x="47" y="-191" type="curve" smooth="yes"/>
      <point x="47" y="-225"/>
      <point x="64" y="-240"/>
    </contour>
  </outline>
</glyph>
<glyph name="hehDoachashmee-ar.fina" format="1">
  <advance width="568"/>
  <unicode hex="FBAB"/>
  <outline>
    <contour>
      <point x="351" y="-243" type="curve" smooth="yes"/>
      <point x="452" y="-243"/>
      <point x="505" y="-175"/>
      <point x="505" y="-61" type="curve" smooth="yes"/>
      <point x="505" y="0" type="line"/>
      <point x="548" y="0" type="line"/>
      <point x="568" y="20" type="line"/>
      <point x="568" y="86" type="line"/>
      <point x="480" y="86" type="line"/>
      <point x="501" y="120"/>
      <point x="513" y="163"/>
      <point x="513" y="215" type="curve" smooth="yes" name="hr01"/>
      <point x="513" y="309"/>
      <point x="456" y="379"/>
      <point x="380" y="379" type="curve" smooth="yes"/>
      <point x="300" y="379"/>
      <point x="263" y="339"/>
      <point x="184" y="178" type="curve" smooth="yes"/>
      <point x="139" y="86" type="line"/>
      <point x="40" y="86" type="line"/>
      <point x="40" y="0" type="line"/>
      <point x="139" y="0" type="line"/>
      <point x="184" y="-92" type="line" smooth="yes"/>
      <point x="239" y="-204"/>
      <point x="282" y="-243"/>
    </contour>
    <contour>
      <point x="247" y="147" type="line" smooth="yes"/>
      <point x="304" y="264"/>
      <point x="329" y="293"/>
      <point x="370" y="293" type="curve" smooth="yes"/>
      <point x="416" y="293"/>
      <point x="443" y="260"/>
      <point x="443" y="205" type="curve" smooth="yes"/>
      <point x="443" y="130"/>
      <point x="390" y="86"/>
      <point x="301" y="86" type="curve" smooth="yes"/>
      <point x="217" y="86" type="line"/>
    </contour>
    <contour>
      <point x="351" y="-157" type="curve" smooth="yes"/>
      <point x="309" y="-157"/>
      <point x="282" y="-132"/>
      <point x="247" y="-61" type="curve" smooth="yes"/>
      <point x="217" y="0" type="line"/>
      <point x="301" y="0" type="line" smooth="yes"/>
      <point x="355" y="0"/>
      <point x="400" y="13"/>
      <point x="435" y="38" type="curve" name="hr02"/>
      <point x="435" y="-61" type="line" smooth="yes"/>
      <point x="435" y="-121"/>
      <point x="408" y="-157"/>
    </contour>
    <contour>
      <point x="351.0" y="-243.0" type="move" name="bottom"/>
    </contour>
    <contour>
      <point x="380.0" y="379.0" type="move" name="top"/>
    </contour>
  </outline>
</glyph>
<glyph name="hehDoachashmee-ar.medi" format="1">
  <advance width="468"/>
  <unicode hex="FBAD"/>
  <outline>
    <contour>
      <point x="251" y="-243" type="curve" smooth="yes"/>
      <point x="352" y="-243"/>
      <point x="405" y="-175"/>
      <point x="405" y="-61" type="curve" smooth="yes"/>
      <point x="405" y="0" type="line"/>
      <point x="448" y="0" type="line"/>
      <point x="468" y="20" type="line"/>
      <point x="468" y="86" type="line"/>
      <point x="380" y="86" type="line"/>
      <point x="401" y="120"/>
      <point x="413" y="163"/>
      <point x="413" y="215" type="curve" smooth="yes" name="hr01"/>
      <point x="413" y="309"/>
      <point x="356" y="379"/>
      <point x="280" y="379" type="curve" smooth="yes"/>
      <point x="200" y="379"/>
      <point x="163" y="339"/>
      <point x="84" y="178" type="curve" smooth="yes"/>
      <point x="39" y="86" type="line"/>
      <point x="0" y="86" type="line"/>
      <point x="-20" y="66" type="line"/>
      <point x="-20" y="0" type="line"/>
      <point x="39" y="0" type="line"/>
      <point x="84" y="-92" type="line" smooth="yes"/>
      <point x="139" y="-204"/>
      <point x="182" y="-243"/>
    </contour>
    <contour>
      <point x="147" y="147" type="line" smooth="yes"/>
      <point x="204" y="264"/>
      <point x="229" y="293"/>
      <point x="270" y="293" type="curve" smooth="yes"/>
      <point x="316" y="293"/>
      <point x="343" y="260"/>
      <point x="343" y="205" type="curve" smooth="yes"/>
      <point x="343" y="130"/>
      <point x="290" y="86"/>
      <point x="201" y="86" type="curve" smooth="yes"/>
      <point x="117" y="86" type="line"/>
    </contour>
    <contour>
      <point x="251" y="-157" type="curve" smooth="yes"/>
      <point x="209" y="-157"/>
      <point x="182" y="-132"/>
      <point x="147" y="-61" type="curve" smooth="yes"/>
      <point x="117" y="0" type="line"/>
      <point x="201" y="0" type="line" smooth="yes"/>
      <point x="255" y="0"/>
      <point x="300" y="13"/>
      <point x="335" y="38" type="curve" name="hr02"/>
      <point x="335" y="-61" type="line" smooth="yes"/>
      <point x="335" y="-121"/>
      <point x="308" y="-157"/>
    </contour>
    <contour>
      <point x="251.0" y="-243.0" type="move" name="bottom"/>
    </contour>
    <contour>
      <point x="280.0" y="379.0" type="move" name="top"/>
    </contour>
  </outline>
</glyph>
<glyph name="dotabove-ar" format="1">
  <advance width="0"/>
  <unicode hex="FBB2"/>
  <outline>
    <contour>
      <point x="59" y="369" type="curve" smooth="yes" name="hr00"/>
      <point x="70" y="369" type="line" smooth="yes"/>
      <point x="96" y="369"/>
      <point x="114" y="384"/>
      <point x="114" y="418" type="curve" smooth="yes"/>
      <point x="114" y="452"/>
      <point x="96" y="467"/>
      <point x="70" y="467" type="curve" smooth="yes"/>
      <point x="59" y="467" type="line" smooth="yes"/>
      <point x="32" y="467"/>
      <point x="15" y="452"/>
      <point x="15" y="418" type="curve" smooth="yes"/>
      <point x="15" y="384"/>
      <point x="32" y="369"/>
    </contour>
    <contour>
      <point x="65.0" y="249.0" type="move" name="_top"/>
    </contour>
    <contour>
      <point x="65.0" y="467.0" type="move" name="top"/>
    </contour>
  </outline>
</glyph>
<glyph name="dotbelow-ar" format="1">
  <advance width="0"/>
  <unicode hex="FBB3"/>
  <outline>
    <contour>
      <point x="59" y="369" type="curve" smooth="yes" name="hr00"/>
      <point x="70" y="369" type="line" smooth="yes"/>
      <point x="96" y="369"/>
      <point x="114" y="384"/>
      <point x="114" y="418" type="curve" smooth="yes"/>
      <point x="114" y="452"/>
      <point x="96" y="467"/>
      <point x="70" y="467" type="curve" smooth="yes"/>
      <point x="59" y="467" type="line" smooth="yes"/>
      <point x="32" y="467"/>
      <point x="15" y="452"/>
      <point x="15" y="418" type="curve" smooth="yes"/>
      <point x="15" y="384"/>
      <point x="32" y="369"/>
    </contour>
    <contour>
      <point x="65.0" y="570.0" type="move" name="_bottom"/>
    </contour>
    <contour>
      <point x="65.0" y="369.0" type="move" name="bottom"/>
    </contour>
  </outline>
</glyph>
<glyph name="threedotsupbelow-ar" format="1">
  <advance width="0"/>
  <unicode hex="FBB7"/>
  <outline>
    <contour>
      <point x="188" y="369" type="curve" smooth="yes"/>
      <point x="199" y="369" type="line" smooth="yes"/>
      <point x="225" y="369"/>
      <point x="243" y="384"/>
      <point x="243" y="418" type="curve" smooth="yes"/>
      <point x="243" y="452"/>
      <point x="225" y="467"/>
      <point x="199" y="467" type="curve" smooth="yes"/>
      <point x="188" y="467" type="line" smooth="yes"/>
      <point x="161" y="467"/>
      <point x="144" y="452"/>
      <point x="144" y="418" type="curve" smooth="yes"/>
      <point x="144" y="384"/>
      <point x="161" y="369"/>
    </contour>
    <contour>
      <point x="59" y="369" type="curve" smooth="yes"/>
      <point x="70" y="369" type="line" smooth="yes"/>
      <point x="96" y="369"/>
      <point x="114" y="384"/>
      <point x="114" y="418" type="curve" smooth="yes"/>
      <point x="114" y="452"/>
      <point x="96" y="467"/>
      <point x="70" y="467" type="curve" smooth="yes"/>
      <point x="59" y="467" type="line" smooth="yes"/>
      <point x="32" y="467"/>
      <point x="15" y="452"/>
      <point x="15" y="418" type="curve" smooth="yes"/>
      <point x="15" y="384"/>
      <point x="32" y="369"/>
    </contour>
    <contour>
      <point x="123" y="490" type="curve" smooth="yes"/>
      <point x="135" y="490" type="line" smooth="yes"/>
      <point x="160" y="490"/>
      <point x="177" y="505"/>
      <point x="177" y="537" type="curve" smooth="yes" name="hr01"/>
      <point x="177" y="569"/>
      <point x="160" y="584"/>
      <point x="135" y="584" type="curve" smooth="yes"/>
      <point x="123" y="584" type="line" smooth="yes"/>
      <point x="98" y="584"/>
      <point x="81" y="569"/>
      <point x="81" y="537" type="curve" smooth="yes"/>
      <point x="81" y="505"/>
      <point x="98" y="490"/>
    </contour>
    <contour>
      <point x="132.0" y="687.0" type="move" name="_bottom"/>
    </contour>
    <contour>
      <point x="131.0" y="378.0" type="move" name="bottom"/>
    </contour>
  </outline>
</glyph>
<glyph name="twodotsverticalbelow-ar" format="1">
  <advance width="0"/>
  <unicode hex="FBBE"/>
  <outline>
    <contour>
      <point x="188" y="369" type="curve" smooth="yes" name="hr00"/>
      <point x="199" y="369" type="line" smooth="yes"/>
      <point x="225" y="369"/>
      <point x="243" y="384"/>
      <point x="243" y="418" type="curve" smooth="yes"/>
      <point x="243" y="452"/>
      <point x="225" y="467"/>
      <point x="199" y="467" type="curve" smooth="yes"/>
      <point x="188" y="467" type="line" smooth="yes"/>
      <point x="161" y="467"/>
      <point x="144" y="452"/>
      <point x="144" y="418" type="curve" smooth="yes"/>
      <point x="144" y="384"/>
      <point x="161" y="369"/>
    </contour>
    <contour>
      <point x="188" y="497" type="curve" smooth="yes"/>
      <point x="199" y="497" type="line" smooth="yes"/>
      <point x="225" y="497"/>
      <point x="243" y="512"/>
      <point x="243" y="546" type="curve" smooth="yes"/>
      <point x="243" y="580"/>
      <point x="225" y="595"/>
      <point x="199" y="595" type="curve" smooth="yes"/>
      <point x="188" y="595" type="line" smooth="yes"/>
      <point x="161" y="595"/>
      <point x="144" y="580"/>
      <point x="144" y="546" type="curve" smooth="yes"/>
      <point x="144" y="512"/>
      <point x="161" y="497"/>
    </contour>
    <contour>
      <point x="194.0" y="648.0" type="move" name="_bottom"/>
    </contour>
    <contour>
      <point x="194.0" y="369.0" type="move" name="bottom"/>
    </contour>
  </outline>
</glyph>
<glyph name="yu-ar.fina" format="1">
  <advance width="450"/>
  <unicode hex="FBDC"/>
  <outline>
    <component base="waw-ar.fina"/>
    <component base="alefabove-ar" xOffset="180" yOffset="90"/>
    <contour>
      <point x="348.0" y="-78.0" type="move" name="bar"/>
    </contour>
    <contour>
      <point x="173.0" y="-240.0" type="move" name="bottom"/>
    </contour>
    <contour>
      <point x="82.0" y="-59.0" type="move" name="center"/>
    </contour>
    <contour>
      <point x="341.0" y="379.0" type="move" name="high"/>
    </contour>
    <contour>
      <point x="164.0" y="-71.0" type="move" name="ring"/>
    </contour>
    <contour>
      <point x="225.0" y="379.0" type="move" name="top"/>
    </contour>
  </outline>
</glyph>
<glyph name="yeh-farsi.medi" format="1">
  <advance width="310"/>
  <unicode hex="FBFF"/>
  <outline>
    <component base="behDotless-ar.medi"/>
    <component base="twodotshorizontalbelow-ar" xOffset="26" yOffset="-570"/>
    <contour>
      <point x="155.0" y="0.0" type="move" name="bottom"/>
    </contour>
    <contour>
      <point x="289.0" y="329.0" type="move" name="high"/>
    </contour>
    <contour>
      <point x="198.0" y="7.0" type="move" name="ring"/>
    </contour>
    <contour>
      <point x="155.0" y="329.0" type="move" name="top"/>
    </contour>
  </outline>
</glyph>
<glyph name="teh_alefMaksura-ar" format="1">
  <advance width="726"/>
  <unicode hex="FC0F"/>
  <outline>
    <component base="comp.behDotless_alefMaksura-ar"/>
    <component base="twodotshorizontalabove-ar" xOffset="435" yOffset="172"/>
    <contour>
      <point x="637.0" y="-160.0" type="move" name="bottom_1"/>
    </contour>
    <contour>
      <point x="347.0" y="-240.0" type="move" name="bottom_2"/>
    </contour>
    <contour>
      <point x="567.0" y="421.0" type="move" name="top_1"/>
    </contour>
    <contour>
      <point x="118.0" y="191.0" type="move" name="top_2"/>
    </contour>
  </outline>
</glyph>
<glyph name="theh_alefMaksura-ar" format="1">
  <advance width="726"/>
  <unicode hex="FC13"/>
  <outline>
    <component base="comp.behDotless_alefMaksura-ar"/>
    <component base="threedotsupabove-ar" xOffset="438" yOffset="172"/>
    <contour>
      <point x="637.0" y="-160.0" type="move" name="bottom_1"/>
    </contour>
    <contour>
      <point x="347.0" y="-240.0" type="move" name="bottom_2"/>
    </contour>
    <contour>
      <point x="567.0" y="421.0" type="move" name="top_1"/>
    </contour>
    <contour>
      <point x="118.0" y="191.0" type="move" name="top_2"/>
    </contour>
  </outline>
</glyph>
<glyph name="lam_meem-ar" format="1">
  <advance width="392"/>
  <unicode hex="FC42"/>
  <outline>
    <contour>
      <point x="60" y="-306" type="line" name="hr00"/>
      <point x="130" y="-306" type="line"/>
      <point x="130" y="14" type="line" smooth="yes"/>
      <point x="130" y="83"/>
      <point x="161" y="114"/>
      <point x="230" y="114" type="curve" smooth="yes"/>
      <point x="254" y="114"/>
      <point x="294" y="103"/>
      <point x="323" y="90" type="curve" smooth="yes"/>
      <point x="375" y="66" type="line"/>
      <point x="412" y="144" type="line"/>
      <point x="375" y="161" type="line" smooth="yes"/>
      <point x="339" y="177"/>
      <point x="303" y="189"/>
      <point x="273" y="195" type="curve"/>
      <point x="273" y="740" type="line"/>
      <point x="199" y="740" type="line"/>
      <point x="199" y="198" type="line"/>
      <point x="104" y="188"/>
      <point x="60" y="130"/>
      <point x="60" y="16" type="curve" smooth="yes"/>
    </contour>
    <contour>
      <point x="294.0" y="0.0" type="move" name="bottom_1"/>
    </contour>
    <contour>
      <point x="95.0" y="-304.0" type="move" name="bottom_2"/>
    </contour>
    <contour>
      <point x="236.0" y="740.0" type="move" name="top_1"/>
    </contour>
    <contour>
      <point x="27.0" y="249.0" type="move" name="top_2"/>
    </contour>
  </outline>
</glyph>
<glyph name="lam_alefMaksura-ar" format="1">
  <advance width="726"/>
  <unicode hex="FC43"/>
  <outline>
    <contour>
      <point x="347" y="-240" type="curve" smooth="yes"/>
      <point x="566" y="-240"/>
      <point x="696" y="-133"/>
      <point x="696" y="-8" type="curve" smooth="yes"/>
      <point x="696" y="34"/>
      <point x="677" y="59"/>
      <point x="635" y="70" type="curve" smooth="yes"/>
      <point x="579" y="85" type="line"/>
      <point x="579" y="89" type="line"/>
      <point x="619" y="115"/>
      <point x="640" y="153"/>
      <point x="640" y="208" type="curve" smooth="yes" name="hr01"/>
      <point x="640" y="740" type="line"/>
      <point x="570" y="740" type="line"/>
      <point x="570" y="208" type="line" smooth="yes"/>
      <point x="570" y="143"/>
      <point x="532" y="124"/>
      <point x="455" y="124" type="curve" smooth="yes"/>
      <point x="414" y="124" type="line"/>
      <point x="414" y="42" type="line"/>
      <point x="630" y="-6" type="line" name="hr02"/>
      <point x="630" y="-8" type="line" smooth="yes"/>
      <point x="630" y="-76"/>
      <point x="536" y="-150"/>
      <point x="377" y="-150" type="curve" smooth="yes"/>
      <point x="317" y="-150" type="line" smooth="yes"/>
      <point x="185" y="-150"/>
      <point x="106" y="-84"/>
      <point x="106" y="29" type="curve" smooth="yes"/>
      <point x="106" y="79"/>
      <point x="124" y="139"/>
      <point x="149" y="191" type="curve"/>
      <point x="87" y="210" type="line"/>
      <point x="58" y="142"/>
      <point x="40" y="71"/>
      <point x="40" y="10" type="curve" smooth="yes"/>
      <point x="40" y="-147"/>
      <point x="154" y="-240"/>
    </contour>
    <contour>
      <point x="627.0" y="-240.0" type="move" name="bottom_1"/>
    </contour>
    <contour>
      <point x="347.0" y="-240.0" type="move" name="bottom_2"/>
    </contour>
    <contour>
      <point x="605.0" y="740.0" type="move" name="top_1"/>
    </contour>
    <contour>
      <point x="118.0" y="191.0" type="move" name="top_2"/>
    </contour>
  </outline>
</glyph>
<glyph name="lam_yeh-ar" format="1">
  <advance width="726"/>
  <unicode hex="FC44"/>
  <outline>
    <component base="lam_alefMaksura-ar"/>
    <component base="twodotshorizontalbelow-ar" xOffset="218" yOffset="-810"/>
    <contour>
      <point x="627.0" y="-240.0" type="move" name="bottom_1"/>
    </contour>
    <contour>
      <point x="347.0" y="-240.0" type="move" name="bottom_2"/>
    </contour>
    <contour>
      <point x="605.0" y="740.0" type="move" name="top_1"/>
    </contour>
    <contour>
      <point x="118.0" y="191.0" type="move" name="top_2"/>
    </contour>
  </outline>
</glyph>
<glyph name="thalAlefabove-ar" format="1">
  <advance width="468"/>
  <unicode hex="FC5B"/>
  <outline>
    <component base="dal-ar"/>
    <component base="dotabove-ar" xOffset="145" yOffset="240"/>
    <component base="alefabove-ar" xOffset="165" yOffset="418"/>
    <contour>
      <point x="230.0" y="0.0" type="move" name="bottom"/>
    </contour>
    <contour>
      <point x="240.0" y="0.0" type="move" name="ring"/>
    </contour>
    <contour>
      <point x="210.0" y="489.0" type="move" name="top"/>
    </contour>
  </outline>
</glyph>
<glyph name="theh_reh-ar.fina" format="1">
  <advance width="575"/>
  <unicode hex="FC76"/>
  <outline>
    <component base="alefMaksura_reh-ar.fina"/>
    <component base="threedotsupabove-ar" xOffset="290" yOffset="80"/>
    <contour>
      <point x="419.0" y="0.0" type="move" name="bottom_1"/>
    </contour>
    <contour>
      <point x="32.0" y="-240.0" type="move" name="bottom_2"/>
    </contour>
    <contour>
      <point x="419.0" y="329.0" type="move" name="top_1"/>
    </contour>
    <contour>
      <point x="145.0" y="289.0" type="move" name="top_2"/>
    </contour>
  </outline>
</glyph>
<glyph name="lam_meem-ar.init" format="1">
  <advance width="250"/>
  <unicode hex="FCCC"/>
  <outline>
    <contour>
      <point x="245" y="-63" type="line" name="hr00"/>
      <point x="288" y="12" type="line"/>
      <point x="237" y="41" type="line" smooth="yes"/>
      <point x="205" y="58"/>
      <point x="178" y="70"/>
      <point x="149" y="77" type="curve"/>
      <point x="149" y="740" type="line"/>
      <point x="75" y="740" type="line"/>
      <point x="75" y="86" type="line"/>
      <point x="0" y="86" type="line"/>
      <point x="-20" y="66" type="line"/>
      <point x="-20" y="0" type="line"/>
      <point x="70" y="0" type="line" smooth="yes"/>
      <point x="120" y="-1"/>
      <point x="152" y="-10"/>
      <point x="194" y="-34" type="curve" smooth="yes"/>
    </contour>
    <contour>
      <point x="187.0" y="0.0" type="move" name="bottom_1"/>
    </contour>
    <contour>
      <point x="62.0" y="0.0" type="move" name="bottom_2"/>
    </contour>
    <contour>
      <point x="112.0" y="745.0" type="move" name="top_1"/>
    </contour>
    <contour>
      <point x="112.0" y="745.0" type="move" name="top_2"/>
    </contour>
  </outline>
</glyph>
<glyph name="seen_alefMaksura-ar" format="1">
  <advance width="1280"/>
  <unicode hex="FCFB"/>
  <outline>
    <contour>
      <point x="347" y="-306" type="curve" smooth="yes" name="hr00"/>
      <point x="566" y="-306"/>
      <point x="696" y="-220"/>
      <point x="696" y="-74" type="curve" smooth="yes"/>
      <point x="696" y="-18"/>
      <point x="669" y="13"/>
      <point x="609" y="28" type="curve" smooth="yes"/>
      <point x="482" y="59" type="line" smooth="yes"/>
      <point x="416" y="75"/>
      <point x="399" y="92"/>
      <point x="399" y="133" type="curve" smooth="yes"/>
      <point x="399" y="202"/>
      <point x="469" y="267"/>
      <point x="543" y="267" type="curve" smooth="yes"/>
      <point x="599" y="267"/>
      <point x="635" y="243"/>
      <point x="658" y="190" type="curve" smooth="yes"/>
      <point x="691" y="115" type="line" smooth="yes"/>
      <point x="732" y="22"/>
      <point x="769" y="-12"/>
      <point x="834" y="-12" type="curve" smooth="yes"/>
      <point x="899" y="-12"/>
      <point x="936" y="19"/>
      <point x="950" y="88" type="curve"/>
      <point x="955" y="88" type="line"/>
      <point x="968" y="23"/>
      <point x="1014" y="-12"/>
      <point x="1093" y="-12" type="curve" smooth="yes"/>
      <point x="1183" y="-12"/>
      <point x="1235" y="46"/>
      <point x="1235" y="138" type="curve" smooth="yes"/>
      <point x="1235" y="164"/>
      <point x="1232" y="204"/>
      <point x="1227" y="245" type="curve" smooth="yes"/>
      <point x="1220" y="298" type="line"/>
      <point x="1151" y="289" type="line"/>
      <point x="1159" y="234" type="line" smooth="yes"/>
      <point x="1165" y="195"/>
      <point x="1167" y="159"/>
      <point x="1167" y="138" type="curve" smooth="yes"/>
      <point x="1167" y="94"/>
      <point x="1147" y="74"/>
      <point x="1103" y="74" type="curve" smooth="yes"/>
      <point x="1083" y="74" type="line" smooth="yes"/>
      <point x="1034" y="74"/>
      <point x="1016" y="99"/>
      <point x="1016" y="171" type="curve" smooth="yes"/>
      <point x="1016" y="249" type="line"/>
      <point x="946" y="249" type="line"/>
      <point x="946" y="171" type="line" smooth="yes"/>
      <point x="946" y="101"/>
      <point x="916" y="74"/>
      <point x="854" y="74" type="curve" smooth="yes"/>
      <point x="810" y="74"/>
      <point x="788" y="92"/>
      <point x="766" y="143" type="curve" smooth="yes"/>
      <point x="732" y="223" type="line" smooth="yes"/>
      <point x="695" y="310"/>
      <point x="637" y="353"/>
      <point x="553" y="353" type="curve" smooth="yes"/>
      <point x="439" y="353"/>
      <point x="332" y="235"/>
      <point x="332" y="110" type="curve" smooth="yes"/>
      <point x="332" y="34"/>
      <point x="370" y="-3"/>
      <point x="479" y="-28" type="curve" smooth="yes"/>
      <point x="630" y="-62" type="line"/>
      <point x="630" y="-74" type="line" smooth="yes"/>
      <point x="630" y="-163"/>
      <point x="536" y="-216"/>
      <point x="377" y="-216" type="curve" smooth="yes"/>
      <point x="317" y="-216" type="line" smooth="yes"/>
      <point x="185" y="-216"/>
      <point x="106" y="-150"/>
      <point x="106" y="-37" type="curve" smooth="yes"/>
      <point x="106" y="13"/>
      <point x="124" y="73"/>
      <point x="149" y="125" type="curve"/>
      <point x="87" y="144" type="line"/>
      <point x="58" y="76"/>
      <point x="40" y="5"/>
      <point x="40" y="-56" type="curve" smooth="yes"/>
      <point x="40" y="-213"/>
      <point x="154" y="-306"/>
    </contour>
    <contour>
      <point x="981.0" y="0.0" type="move" name="bottom_1"/>
    </contour>
    <contour>
      <point x="342.0" y="-306.0" type="move" name="bottom_2"/>
    </contour>
    <contour>
      <point x="981.0" y="249.0" type="move" name="top_1"/>
    </contour>
    <contour>
      <point x="118.0" y="125.0" type="move" name="top_2"/>
    </contour>
  </outline>
</glyph>
<glyph name="sheen_reh-ar" format="1">
  <advance width="949"/>
  <unicode hex="FD0D"/>
  <outline>
    <component base="seen_reh-ar"/>
    <component base="threedotsupabove-ar" xOffset="521"/>
    <contour>
      <point x="650.0" y="0.0" type="move" name="bottom_1"/>
    </contour>
    <contour>
      <point x="32.0" y="-240.0" type="move" name="bottom_2"/>
    </contour>
    <contour>
      <point x="650.0" y="249.0" type="move" name="top_1"/>
    </contour>
    <contour>
      <point x="145.0" y="289.0" type="move" name="top_2"/>
    </contour>
  </outline>
</glyph>
<glyph name="sad_reh-ar" format="1">
  <advance width="1094"/>
  <unicode hex="FD0F"/>
  <outline>
    <contour>
      <point x="-60" y="-240" type="line" name="hr00"/>
      <point x="-23" y="-240" type="line" smooth="yes"/>
      <point x="168" y="-240"/>
      <point x="225" y="-107"/>
      <point x="225" y="39" type="curve" smooth="yes"/>
      <point x="225" y="78"/>
      <point x="221" y="127"/>
      <point x="214" y="178" type="curve"/>
      <point x="359" y="197" type="line"/>
      <point x="359" y="171" type="line" smooth="yes"/>
      <point x="359" y="54"/>
      <point x="408" y="0"/>
      <point x="514" y="0" type="curve" smooth="yes"/>
      <point x="825" y="0" type="line" smooth="yes"/>
      <point x="973" y="0"/>
      <point x="1050" y="58"/>
      <point x="1050" y="209" type="curve" smooth="yes"/>
      <point x="1050" y="334"/>
      <point x="974" y="410"/>
      <point x="845" y="410" type="curve" smooth="yes"/>
      <point x="726" y="410"/>
      <point x="623" y="358"/>
      <point x="521" y="183" type="curve" smooth="yes"/>
      <point x="468" y="94" type="line"/>
      <point x="441" y="106"/>
      <point x="429" y="131"/>
      <point x="429" y="171" type="curve" smooth="yes"/>
      <point x="429" y="289" type="line"/>
      <point x="131" y="249" type="line"/>
      <point x="147" y="162" type="line" smooth="yes"/>
      <point x="154" y="124"/>
      <point x="158" y="80"/>
      <point x="158" y="41" type="curve" smooth="yes"/>
      <point x="158" y="-63"/>
      <point x="123" y="-154"/>
      <point x="-23" y="-154" type="curve" smooth="yes"/>
      <point x="-60" y="-154" type="line"/>
    </contour>
    <contour>
      <point x="577" y="158" type="line" smooth="yes"/>
      <point x="662" y="290"/>
      <point x="724" y="324"/>
      <point x="830" y="324" type="curve" smooth="yes"/>
      <point x="860" y="324" type="line" smooth="yes"/>
      <point x="936" y="324"/>
      <point x="980" y="281"/>
      <point x="980" y="199" type="curve" smooth="yes"/>
      <point x="980" y="116"/>
      <point x="924" y="86"/>
      <point x="825" y="86" type="curve" smooth="yes"/>
      <point x="537" y="86" type="line"/>
      <point x="534" y="91" type="line"/>
    </contour>
    <contour>
      <point x="670.0" y="0.0" type="move" name="bottom_1"/>
    </contour>
    <contour>
      <point x="32.0" y="-240.0" type="move" name="bottom_2"/>
    </contour>
    <contour>
      <point x="815.0" y="410.0" type="move" name="top_1"/>
    </contour>
    <contour>
      <point x="145.0" y="289.0" type="move" name="top_2"/>
    </contour>
  </outline>
</glyph>
<glyph name="seen_reh-ar.fina" format="1">
  <advance width="1027"/>
  <unicode hex="FD2A"/>
  <outline>
    <contour>
      <point x="-60" y="-240" type="line"/>
      <point x="-23" y="-240" type="line" smooth="yes"/>
      <point x="168" y="-240"/>
      <point x="225" y="-107"/>
      <point x="225" y="39" type="curve" smooth="yes"/>
      <point x="225" y="78"/>
      <point x="221" y="127"/>
      <point x="214" y="178" type="curve"/>
      <point x="359" y="197" type="line"/>
      <point x="359" y="171" type="line" smooth="yes"/>
      <point x="359" y="46"/>
      <point x="404" y="-12"/>
      <point x="503" y="-12" type="curve" smooth="yes"/>
      <point x="567" y="-12"/>
      <point x="606" y="25"/>
      <point x="619" y="88" type="curve"/>
      <point x="624" y="88" type="line"/>
      <point x="636" y="23"/>
      <point x="677" y="-12"/>
      <point x="745" y="-12" type="curve" smooth="yes"/>
      <point x="806" y="-12"/>
      <point x="837" y="14"/>
      <point x="845" y="88" type="curve"/>
      <point x="850" y="88" type="line"/>
      <point x="870" y="28"/>
      <point x="919" y="0"/>
      <point x="1007" y="0" type="curve" name="hr01"/>
      <point x="1027" y="20" type="line"/>
      <point x="1027" y="86" type="line"/>
      <point x="992" y="86" type="line" smooth="yes"/>
      <point x="934" y="86"/>
      <point x="907" y="113"/>
      <point x="907" y="171" type="curve" smooth="yes"/>
      <point x="907" y="289" type="line"/>
      <point x="837" y="289" type="line"/>
      <point x="837" y="171" type="line" smooth="yes"/>
      <point x="837" y="99"/>
      <point x="820" y="74"/>
      <point x="773" y="74" type="curve" smooth="yes" name="hr02"/>
      <point x="750" y="74" type="line" smooth="yes"/>
      <point x="703" y="74"/>
      <point x="685" y="99"/>
      <point x="685" y="171" type="curve" smooth="yes"/>
      <point x="685" y="249" type="line"/>
      <point x="615" y="249" type="line"/>
      <point x="615" y="171" type="line" smooth="yes"/>
      <point x="615" y="101"/>
      <point x="585" y="74"/>
      <point x="523" y="74" type="curve" smooth="yes"/>
      <point x="459" y="74"/>
      <point x="429" y="104"/>
      <point x="429" y="171" type="curve" smooth="yes"/>
      <point x="429" y="289" type="line"/>
      <point x="131" y="249" type="line"/>
      <point x="147" y="162" type="line" smooth="yes"/>
      <point x="154" y="124"/>
      <point x="158" y="80"/>
      <point x="158" y="41" type="curve" smooth="yes"/>
      <point x="158" y="-63"/>
      <point x="123" y="-154"/>
      <point x="-23" y="-154" type="curve" smooth="yes"/>
      <point x="-60" y="-154" type="line"/>
    </contour>
    <contour>
      <point x="650.0" y="0.0" type="move" name="bottom_1"/>
    </contour>
    <contour>
      <point x="32.0" y="-240.0" type="move" name="bottom_2"/>
    </contour>
    <contour>
      <point x="650.0" y="249.0" type="move" name="top_1"/>
    </contour>
    <contour>
      <point x="145.0" y="289.0" type="move" name="top_2"/>
    </contour>
  </outline>
</glyph>
